STARTFONT 2.1
COMMENT
COMMENT Converted from OpenType font "NovaMono-Regular.ttf" by "otf2bdf 3.0".
COMMENT
FONT -FreeType-NovaMono-Medium-R-Normal--29-210-100-100-P-124-ISO10646-1
SIZE 21 100 100
FONTBOUNDINGBOX 21 39 -1 -8
STARTPROPERTIES 19
FOUNDRY "FreeType"
FAMILY_NAME "NovaMono"
WEIGHT_NAME "Medium"
SLANT "R"
SETWIDTH_NAME "Normal"
ADD_STYLE_NAME ""
PIXEL_SIZE 29
POINT_SIZE 210
RESOLUTION_X 100
RESOLUTION_Y 100
SPACING "P"
AVERAGE_WIDTH 124
CHARSET_REGISTRY "ISO10646"
CHARSET_ENCODING "1"
FONT_ASCENT 31
FONT_DESCENT 9
COPYRIGHT "wmk69  SIL - Open Font License v.1.1"
_OTF_FONTFILE "NovaMono-Regular.ttf"
_OTF_PSNAME "NovaMono"
ENDPROPERTIES
CHARS 1328
STARTCHAR 0020
ENCODING 32
SWIDTH 548 0
DWIDTH 16 0
BBX 0 0 0 0
BITMAP
ENDCHAR
STARTCHAR 0021
ENCODING 33
SWIDTH 548 0
DWIDTH 16 0
BBX 4 22 6 0
BITMAP
20
60
60
60
60
60
60
60
60
60
60
60
60
60
60
60
40
00
60
F0
F0
60
ENDCHAR
STARTCHAR 0022
ENCODING 34
SWIDTH 548 0
DWIDTH 16 0
BBX 6 8 5 14
BITMAP
44
CC
CC
CC
CC
CC
CC
88
ENDCHAR
STARTCHAR 0023
ENCODING 35
SWIDTH 548 0
DWIDTH 16 0
BBX 14 15 1 3
BITMAP
0420
0CE0
0CE0
0CE0
7FFC
FFFC
0CE0
0CE0
0CE0
7FFC
FFFC
0CE0
0CE0
0CE0
0880
ENDCHAR
STARTCHAR 0024
ENCODING 36
SWIDTH 548 0
DWIDTH 16 0
BBX 13 31 2 -5
BITMAP
0600
0600
0600
0600
0600
1F80
3FC0
76C0
66E0
E660
E640
6600
7600
3F00
1FC0
07E0
0670
0630
0630
C638
C630
C630
E670
7EE0
3FC0
0F80
0600
0600
0600
0600
0400
ENDCHAR
STARTCHAR 0025
ENCODING 37
SWIDTH 548 0
DWIDTH 16 0
BBX 15 22 1 0
BITMAP
3800
7E00
C600
C700
C700
C604
FE1C
3C3C
0070
01E0
03C0
0700
1E00
3C00
7070
E0FC
418C
018E
018E
018C
01FC
0078
ENDCHAR
STARTCHAR 0026
ENCODING 38
SWIDTH 548 0
DWIDTH 16 0
BBX 16 21 0 0
BITMAP
0FC0
1FC0
3800
3000
3000
3000
3800
1F00
1F82
3987
61C6
E0CE
C0FC
C078
C038
C038
E078
60FC
78CE
3F87
0F86
ENDCHAR
STARTCHAR 0027
ENCODING 39
SWIDTH 548 0
DWIDTH 16 0
BBX 2 8 7 14
BITMAP
40
C0
C0
C0
C0
C0
C0
80
ENDCHAR
STARTCHAR 0028
ENCODING 40
SWIDTH 548 0
DWIDTH 16 0
BBX 7 31 6 -5
BITMAP
0C
0E
1C
38
38
70
70
60
60
E0
E0
E0
E0
E0
E0
E0
E0
E0
E0
E0
E0
E0
60
70
70
30
38
38
1C
0C
04
ENDCHAR
STARTCHAR 0029
ENCODING 41
SWIDTH 548 0
DWIDTH 16 0
BBX 6 31 4 -5
BITMAP
C0
E0
E0
70
30
38
38
18
1C
1C
1C
0C
0C
0C
0C
0C
0C
0C
0C
1C
1C
1C
1C
18
38
38
30
70
E0
C0
80
ENDCHAR
STARTCHAR 002A
ENCODING 42
SWIDTH 548 0
DWIDTH 16 0
BBX 12 12 2 9
BITMAP
0200
0600
0600
2660
FFF0
3FC0
0F00
3FC0
FFF0
2660
0600
0600
ENDCHAR
STARTCHAR 002B
ENCODING 43
SWIDTH 548 0
DWIDTH 16 0
BBX 12 12 2 5
BITMAP
0200
0600
0600
0600
0600
7FF0
FFF0
0600
0600
0600
0600
0400
ENDCHAR
STARTCHAR 002C
ENCODING 44
SWIDTH 548 0
DWIDTH 16 0
BBX 4 7 6 -4
BITMAP
60
F0
F0
70
60
E0
C0
ENDCHAR
STARTCHAR 002D
ENCODING 45
SWIDTH 548 0
DWIDTH 16 0
BBX 12 2 2 10
BITMAP
7FF0
FFF0
ENDCHAR
STARTCHAR 002E
ENCODING 46
SWIDTH 548 0
DWIDTH 16 0
BBX 4 4 6 0
BITMAP
60
F0
F0
60
ENDCHAR
STARTCHAR 002F
ENCODING 47
SWIDTH 548 0
DWIDTH 16 0
BBX 14 31 1 -5
BITMAP
000C
000C
001C
001C
0018
0038
0030
0070
0060
00E0
00E0
00C0
01C0
0180
0380
0300
0700
0700
0600
0E00
0C00
1C00
1800
3800
3800
3000
7000
6000
E000
C000
4000
ENDCHAR
STARTCHAR 0030
ENCODING 48
SWIDTH 548 0
DWIDTH 16 0
BBX 13 22 2 0
BITMAP
0F80
3FC0
70E0
E070
C0F0
C0F0
C1F8
C1B8
C3B8
C338
C738
C638
CE38
CC38
DC38
D838
F830
F030
F070
70E0
3FC0
0F80
ENDCHAR
STARTCHAR 0031
ENCODING 49
SWIDTH 548 0
DWIDTH 16 0
BBX 6 22 3 0
BITMAP
04
0C
1C
3C
7C
EC
CC
8C
0C
0C
0C
0C
0C
0C
0C
0C
0C
0C
0C
0C
0C
08
ENDCHAR
STARTCHAR 0032
ENCODING 50
SWIDTH 548 0
DWIDTH 16 0
BBX 12 22 2 0
BITMAP
0F80
3FC0
70E0
E070
C030
C030
C030
0030
0030
0070
00E0
03C0
0780
0F00
1E00
1C00
3800
7000
7000
E000
FFF0
FFF0
ENDCHAR
STARTCHAR 0033
ENCODING 51
SWIDTH 548 0
DWIDTH 16 0
BBX 13 21 2 0
BITMAP
7FF0
7FE0
00C0
01C0
0380
0380
0700
0600
0F00
1FC0
0BE0
0070
0030
0030
C038
C030
C030
E070
70E0
3FC0
0F80
ENDCHAR
STARTCHAR 0034
ENCODING 52
SWIDTH 548 0
DWIDTH 16 0
BBX 14 22 1 0
BITMAP
0010
0070
0070
00F0
00F0
01F0
03B0
0330
0730
0E30
0C30
1C30
3830
3830
7030
7FFC
FFF8
0030
0030
0030
0030
0020
ENDCHAR
STARTCHAR 0035
ENCODING 53
SWIDTH 548 0
DWIDTH 16 0
BBX 13 21 2 0
BITMAP
1FF0
3FE0
3800
3000
3000
3000
3000
7000
6F80
7FC0
30E0
0070
0030
0030
C038
C030
C030
E070
70E0
3FC0
0F80
ENDCHAR
STARTCHAR 0036
ENCODING 54
SWIDTH 548 0
DWIDTH 16 0
BBX 13 22 2 0
BITMAP
0F80
3FC0
70E0
E070
C030
C030
C038
C000
C000
CF80
FFC0
F0E0
E070
C030
C030
C038
C030
C030
E070
70E0
3FC0
0F80
ENDCHAR
STARTCHAR 0037
ENCODING 55
SWIDTH 548 0
DWIDTH 16 0
BBX 13 21 2 0
BITMAP
FFF8
FFF0
0070
00E0
00E0
01C0
01C0
0380
0380
0700
0700
0E00
0E00
1C00
1C00
3800
3800
7000
7000
E000
8000
ENDCHAR
STARTCHAR 0038
ENCODING 56
SWIDTH 548 0
DWIDTH 16 0
BBX 13 22 2 0
BITMAP
0F80
3FC0
70E0
6070
E070
E030
6070
7060
79E0
3FC0
3FC0
79E0
E070
E030
C030
C038
C030
C030
6070
70E0
3FC0
0F80
ENDCHAR
STARTCHAR 0039
ENCODING 57
SWIDTH 548 0
DWIDTH 16 0
BBX 13 22 2 0
BITMAP
0F80
3FC0
70E0
E070
C030
C030
C038
C038
C038
E078
70F8
3FF8
0FB8
0038
0038
C038
C030
C030
E070
70E0
3FC0
0F80
ENDCHAR
STARTCHAR 003A
ENCODING 58
SWIDTH 548 0
DWIDTH 16 0
BBX 4 13 6 0
BITMAP
60
F0
F0
60
00
00
00
00
00
60
F0
F0
60
ENDCHAR
STARTCHAR 003B
ENCODING 59
SWIDTH 548 0
DWIDTH 16 0
BBX 4 16 6 -4
BITMAP
60
F0
F0
60
00
00
00
00
00
60
F0
F0
70
70
60
C0
ENDCHAR
STARTCHAR 003C
ENCODING 60
SWIDTH 548 0
DWIDTH 16 0
BBX 12 12 2 5
BITMAP
0030
00F0
03E0
0F80
3E00
7800
F800
7E00
1F80
03F0
00F0
0020
ENDCHAR
STARTCHAR 003D
ENCODING 61
SWIDTH 548 0
DWIDTH 16 0
BBX 12 7 2 7
BITMAP
7FF0
FFF0
0000
0000
0000
7FF0
FFF0
ENDCHAR
STARTCHAR 003E
ENCODING 62
SWIDTH 548 0
DWIDTH 16 0
BBX 12 12 2 5
BITMAP
4000
F000
7E00
1F80
07E0
00F0
00F0
07E0
1F80
7C00
F000
4000
ENDCHAR
STARTCHAR 003F
ENCODING 63
SWIDTH 548 0
DWIDTH 16 0
BBX 13 22 2 0
BITMAP
0F80
3FC0
70E0
E070
C030
C030
C038
0030
0030
0070
01E0
07C0
0F00
0C00
0C00
0800
0000
0000
0C00
1E00
1E00
0C00
ENDCHAR
STARTCHAR 0040
ENCODING 64
SWIDTH 548 0
DWIDTH 16 0
BBX 12 22 2 -6
BITMAP
0F80
1FC0
38E0
7070
6030
E030
E0F0
E3F0
E7B0
FF30
FC30
FC30
EC30
EC30
EFB0
E7A0
E000
6000
7000
3800
1F80
0F80
ENDCHAR
STARTCHAR 0041
ENCODING 65
SWIDTH 548 0
DWIDTH 16 0
BBX 13 22 2 0
BITMAP
0F80
3FC0
70E0
E070
C030
C030
C038
C038
C038
C038
FFF8
FFF8
C038
C038
C038
C038
C038
C038
C038
C038
C038
8020
ENDCHAR
STARTCHAR 0042
ENCODING 66
SWIDTH 548 0
DWIDTH 16 0
BBX 13 21 2 0
BITMAP
7F00
FF80
C1C0
C0E0
C060
C060
C0E0
C1C0
FFC0
FFC0
C0E0
C070
C030
C030
C038
C030
C030
C070
C0E0
FFC0
FF80
ENDCHAR
STARTCHAR 0043
ENCODING 67
SWIDTH 548 0
DWIDTH 16 0
BBX 13 22 2 0
BITMAP
0F80
3FC0
70E0
E070
C030
C030
C038
C000
C000
C000
C000
C000
C000
C000
C008
C038
C030
C030
E070
70E0
3FC0
0F80
ENDCHAR
STARTCHAR 0044
ENCODING 68
SWIDTH 548 0
DWIDTH 16 0
BBX 13 21 2 0
BITMAP
7F80
FFC0
C0E0
C070
C030
C030
C038
C038
C038
C038
C038
C038
C038
C038
C038
C030
C030
C070
C0E0
FFC0
FF80
ENDCHAR
STARTCHAR 0045
ENCODING 69
SWIDTH 548 0
DWIDTH 16 0
BBX 12 21 3 0
BITMAP
7FC0
FFC0
C000
C000
C000
C000
C000
C000
C000
FFC0
FFC0
C000
C000
C000
C000
C000
C000
C000
C000
FFF0
FFF0
ENDCHAR
STARTCHAR 0046
ENCODING 70
SWIDTH 548 0
DWIDTH 16 0
BBX 10 21 3 0
BITMAP
7FC0
FFC0
C000
C000
C000
C000
C000
C000
C000
FFC0
FFC0
C000
C000
C000
C000
C000
C000
C000
C000
C000
8000
ENDCHAR
STARTCHAR 0047
ENCODING 71
SWIDTH 548 0
DWIDTH 16 0
BBX 13 22 2 0
BITMAP
0F80
3FC0
70E0
E070
C030
C030
C038
C020
C000
C000
C1F8
C3F8
C038
C038
C038
C038
C030
C030
E070
70E0
3FC0
0F80
ENDCHAR
STARTCHAR 0048
ENCODING 72
SWIDTH 548 0
DWIDTH 16 0
BBX 13 22 2 0
BITMAP
4018
C038
C038
C038
C038
C038
C038
C038
C038
C038
FFF8
FFF8
C038
C038
C038
C038
C038
C038
C038
C038
C038
8020
ENDCHAR
STARTCHAR 0049
ENCODING 73
SWIDTH 548 0
DWIDTH 16 0
BBX 12 21 2 0
BITMAP
7FF0
FFF0
0600
0600
0600
0600
0600
0600
0600
0600
0600
0600
0600
0600
0600
0600
0600
0600
0600
7FF0
FFF0
ENDCHAR
STARTCHAR 004A
ENCODING 74
SWIDTH 548 0
DWIDTH 16 0
BBX 13 21 2 0
BITMAP
1FF8
3FF8
0038
0038
0038
0038
0038
0038
0038
0038
0038
0038
0038
0038
C038
C030
C030
E070
70E0
3FC0
0F80
ENDCHAR
STARTCHAR 004B
ENCODING 75
SWIDTH 548 0
DWIDTH 16 0
BBX 13 22 2 0
BITMAP
4060
C070
C0E0
C1C0
C1C0
C380
C700
CF00
CE00
DC00
FF80
FFC0
F0E0
E070
C030
C030
C038
C038
C038
C038
C038
8020
ENDCHAR
STARTCHAR 004C
ENCODING 76
SWIDTH 548 0
DWIDTH 16 0
BBX 12 22 2 0
BITMAP
4000
C000
C000
C000
C000
C000
C000
C000
C000
C000
C000
C000
C000
C000
C000
C000
C000
C000
C000
C000
FFF0
FFF0
ENDCHAR
STARTCHAR 004D
ENCODING 77
SWIDTH 548 0
DWIDTH 16 0
BBX 13 22 2 0
BITMAP
39E0
FFF0
C730
C638
C638
C638
C638
C638
C638
C638
C638
C638
C638
C638
C638
C638
C638
C638
C638
C638
C638
8430
ENDCHAR
STARTCHAR 004E
ENCODING 78
SWIDTH 548 0
DWIDTH 16 0
BBX 13 22 2 0
BITMAP
0F80
3FC0
70E0
E070
C030
C030
C038
C038
C038
C038
C038
C038
C038
C038
C038
C038
C038
C038
C038
C038
C038
8020
ENDCHAR
STARTCHAR 004F
ENCODING 79
SWIDTH 548 0
DWIDTH 16 0
BBX 13 22 2 0
BITMAP
0F80
3FC0
70E0
E070
C030
C030
C038
C038
C038
C038
C038
C038
C038
C038
C038
C038
C030
C030
E070
70E0
3FC0
0F80
ENDCHAR
STARTCHAR 0050
ENCODING 80
SWIDTH 548 0
DWIDTH 16 0
BBX 13 21 2 0
BITMAP
FF80
FFC0
C0E0
C070
C030
C030
C038
C030
C030
C070
C0E0
FFC0
FF80
C000
C000
C000
C000
C000
C000
C000
8000
ENDCHAR
STARTCHAR 0051
ENCODING 81
SWIDTH 548 0
DWIDTH 16 0
BBX 14 24 1 -2
BITMAP
0F80
1FE0
3870
7030
6038
E018
E018
E018
E018
E018
E018
E018
E018
E018
E018
E018
E018
6138
73B0
39F0
1FE0
0FF0
0038
001C
ENDCHAR
STARTCHAR 0052
ENCODING 82
SWIDTH 548 0
DWIDTH 16 0
BBX 12 21 2 0
BITMAP
FF80
FFC0
C0E0
C070
C030
C030
C030
C030
C030
C070
C0E0
FFC0
FF80
C180
C1C0
C0C0
C0E0
C060
C070
C030
8020
ENDCHAR
STARTCHAR 0053
ENCODING 83
SWIDTH 548 0
DWIDTH 16 0
BBX 13 22 2 0
BITMAP
1F00
3F80
71C0
60E0
E060
E060
6000
7000
7C00
3F80
0FC0
00E0
0070
0030
0030
C038
C030
C030
E070
70E0
3FC0
0F80
ENDCHAR
STARTCHAR 0054
ENCODING 84
SWIDTH 548 0
DWIDTH 16 0
BBX 14 21 1 0
BITMAP
FFFC
FFFC
0300
0300
0300
0300
0300
0300
0300
0300
0300
0300
0300
0300
0300
0300
0300
0300
0300
0300
0200
ENDCHAR
STARTCHAR 0055
ENCODING 85
SWIDTH 548 0
DWIDTH 16 0
BBX 13 22 2 0
BITMAP
4018
C038
C038
C038
C038
C038
C038
C038
C038
C038
C038
C038
C038
C038
C038
C038
C030
C030
E070
70E0
3FC0
0F80
ENDCHAR
STARTCHAR 0056
ENCODING 86
SWIDTH 548 0
DWIDTH 16 0
BBX 14 22 1 0
BITMAP
400C
C00C
C00C
E01C
601C
6018
7018
3038
3030
3830
1870
1860
1C60
1CE0
0CE0
0CC0
0EC0
07C0
0780
0780
0380
0200
ENDCHAR
STARTCHAR 0057
ENCODING 87
SWIDTH 548 0
DWIDTH 16 0
BBX 13 22 2 0
BITMAP
4208
C638
C638
C638
C638
C638
C638
C638
C638
C638
C638
C638
C638
C638
C638
C638
C638
C638
C638
CF30
FFF0
79E0
ENDCHAR
STARTCHAR 0058
ENCODING 88
SWIDTH 548 0
DWIDTH 16 0
BBX 14 22 1 0
BITMAP
4008
E01C
7018
3038
3830
1870
1CE0
0CC0
0FC0
0780
0780
0380
0780
0FC0
0EC0
1CE0
1870
3870
3038
7018
E01C
6008
ENDCHAR
STARTCHAR 0059
ENCODING 89
SWIDTH 548 0
DWIDTH 16 0
BBX 13 22 2 0
BITMAP
4018
C038
C038
C038
C038
C038
C038
C038
C038
C038
C030
C030
E070
70E0
3FC0
1F80
0600
0600
0600
0600
0600
0400
ENDCHAR
STARTCHAR 005A
ENCODING 90
SWIDTH 548 0
DWIDTH 16 0
BBX 13 21 2 0
BITMAP
7FF0
FFF0
00E0
00E0
00C0
01C0
0180
0380
0300
0700
0600
0E00
0C00
1C00
1800
3800
3000
7000
6000
FFF8
FFF0
ENDCHAR
STARTCHAR 005B
ENCODING 91
SWIDTH 548 0
DWIDTH 16 0
BBX 8 31 6 -5
BITMAP
7F
FE
E0
E0
E0
E0
E0
E0
E0
E0
E0
E0
E0
E0
E0
E0
E0
E0
E0
E0
E0
E0
E0
E0
E0
E0
E0
E0
E0
FF
FE
ENDCHAR
STARTCHAR 005C
ENCODING 92
SWIDTH 548 0
DWIDTH 16 0
BBX 14 31 1 -5
BITMAP
4000
C000
E000
6000
7000
3000
3800
3800
1800
1C00
0C00
0E00
0600
0700
0700
0300
0380
0180
01C0
00C0
00E0
00E0
0060
0070
0030
0038
0018
001C
001C
000C
000C
ENDCHAR
STARTCHAR 005D
ENCODING 93
SWIDTH 548 0
DWIDTH 16 0
BBX 7 31 3 -5
BITMAP
FE
FE
06
06
06
06
06
06
06
06
06
06
06
06
06
06
06
06
06
06
06
06
06
06
06
06
06
06
06
FE
FC
ENDCHAR
STARTCHAR 005E
ENCODING 94
SWIDTH 548 0
DWIDTH 16 0
BBX 11 6 3 16
BITMAP
0C00
1E00
3F80
F3C0
E0E0
8040
ENDCHAR
STARTCHAR 005F
ENCODING 95
SWIDTH 548 0
DWIDTH 16 0
BBX 12 2 2 0
BITMAP
7FF0
FFF0
ENDCHAR
STARTCHAR 0060
ENCODING 96
SWIDTH 548 0
DWIDTH 16 0
BBX 6 7 5 15
BITMAP
40
60
F0
78
1C
0C
08
ENDCHAR
STARTCHAR 0061
ENCODING 97
SWIDTH 548 0
DWIDTH 16 0
BBX 10 16 3 0
BITMAP
1E00
3F80
71C0
E0C0
C0C0
C0C0
03C0
0FC0
7EC0
F8C0
E0C0
C0C0
C0C0
E0C0
7EC0
3EC0
ENDCHAR
STARTCHAR 0062
ENCODING 98
SWIDTH 548 0
DWIDTH 16 0
BBX 10 22 3 0
BITMAP
4000
C000
C000
C000
C000
C000
DE00
FF80
E1C0
E0C0
C0C0
C0C0
C0C0
C0C0
C0C0
C0C0
C0C0
C0C0
E0C0
71C0
7F80
1E00
ENDCHAR
STARTCHAR 0063
ENCODING 99
SWIDTH 548 0
DWIDTH 16 0
BBX 10 16 3 0
BITMAP
1E00
7F80
71C0
E0C0
C0C0
C0C0
C000
C000
C000
C000
C0C0
C0C0
E0C0
71C0
7F80
1E00
ENDCHAR
STARTCHAR 0064
ENCODING 100
SWIDTH 548 0
DWIDTH 16 0
BBX 10 22 3 0
BITMAP
0040
00C0
00C0
00C0
00C0
00C0
1FC0
7FC0
61C0
E0C0
C0C0
C0C0
C0C0
C0C0
C0C0
C0C0
C0C0
C0C0
E0C0
71C0
7F80
1E00
ENDCHAR
STARTCHAR 0065
ENCODING 101
SWIDTH 548 0
DWIDTH 16 0
BBX 10 16 3 0
BITMAP
1E00
7F80
61C0
E0C0
C0C0
C0C0
C3C0
DF80
FE00
F000
C0C0
C0C0
E0C0
71C0
7F80
1E00
ENDCHAR
STARTCHAR 0066
ENCODING 102
SWIDTH 548 0
DWIDTH 16 0
BBX 12 22 1 0
BITMAP
0780
1FE0
1C70
3830
3030
3030
3000
3000
3000
3000
7FE0
FFC0
3000
3000
3000
3000
3000
3000
3000
3000
3000
2000
ENDCHAR
STARTCHAR 0067
ENCODING 103
SWIDTH 548 0
DWIDTH 16 0
BBX 10 22 3 -6
BITMAP
1E00
7F80
61C0
E0C0
C0C0
C0C0
C0C0
C0C0
C0C0
C0C0
C0C0
C0C0
E0C0
71C0
7FC0
1FC0
00C0
00C0
E0C0
71C0
7F80
1E00
ENDCHAR
STARTCHAR 0068
ENCODING 104
SWIDTH 548 0
DWIDTH 16 0
BBX 10 22 3 0
BITMAP
4000
C000
C000
C000
C000
C000
DE00
FF80
E1C0
E0C0
C0C0
C0C0
C0C0
C0C0
C0C0
C0C0
C0C0
C0C0
C0C0
C0C0
C0C0
8080
ENDCHAR
STARTCHAR 0069
ENCODING 105
SWIDTH 548 0
DWIDTH 16 0
BBX 11 22 2 0
BITMAP
6000
F000
F000
6000
0000
0000
2000
6000
6000
6000
6000
6000
6000
6000
6000
6000
6020
6060
7060
30E0
3FC0
0F00
ENDCHAR
STARTCHAR 006A
ENCODING 106
SWIDTH 548 0
DWIDTH 16 0
BBX 11 28 3 -6
BITMAP
00C0
00E0
00E0
00C0
0000
0000
0040
00C0
00C0
00C0
00C0
00C0
00C0
00C0
00C0
00C0
C0C0
C0C0
C0C0
C0C0
C0C0
C0C0
C0C0
C0C0
E0C0
61C0
7F80
1E00
ENDCHAR
STARTCHAR 006B
ENCODING 107
SWIDTH 548 0
DWIDTH 16 0
BBX 10 22 3 0
BITMAP
4000
C000
C000
C000
C000
C000
C080
C1C0
C380
C700
CE00
DE00
FF80
FFC0
E1C0
C0C0
C0C0
C0C0
C0C0
C0C0
C0C0
8080
ENDCHAR
STARTCHAR 006C
ENCODING 108
SWIDTH 548 0
DWIDTH 16 0
BBX 10 22 3 0
BITMAP
4000
C000
C000
C000
C000
C000
C000
C000
C000
C000
C000
C000
C000
C000
C000
C000
C040
C0C0
E0C0
61C0
7F80
1E00
ENDCHAR
STARTCHAR 006D
ENCODING 109
SWIDTH 548 0
DWIDTH 16 0
BBX 13 16 2 0
BITMAP
39E0
FFF0
C730
C638
C638
C638
C638
C638
C638
C638
C638
C638
C638
C638
C638
8430
ENDCHAR
STARTCHAR 006E
ENCODING 110
SWIDTH 548 0
DWIDTH 16 0
BBX 10 16 3 0
BITMAP
1E00
7F80
71C0
E0C0
C0C0
C0C0
C0C0
C0C0
C0C0
C0C0
C0C0
C0C0
C0C0
C0C0
C0C0
8080
ENDCHAR
STARTCHAR 006F
ENCODING 111
SWIDTH 548 0
DWIDTH 16 0
BBX 10 16 3 0
BITMAP
1E00
7F80
61C0
E0C0
C0C0
C0C0
C0C0
C0C0
C0C0
C0C0
C0C0
C0C0
E0C0
71C0
7F80
1E00
ENDCHAR
STARTCHAR 0070
ENCODING 112
SWIDTH 548 0
DWIDTH 16 0
BBX 10 22 3 -6
BITMAP
1E00
7F80
61C0
E0C0
C0C0
C0C0
C0C0
C0C0
C0C0
C0C0
C0C0
C0C0
E0C0
F1C0
FF80
DE00
C000
C000
C000
C000
C000
8000
ENDCHAR
STARTCHAR 0071
ENCODING 113
SWIDTH 548 0
DWIDTH 16 0
BBX 13 22 3 -6
BITMAP
1E00
7F80
61C0
E0C0
C0C0
C0C0
C0C0
C0C0
C0C0
C0C0
C0C0
C0C0
E0C0
71C0
7FC0
1FC0
00C0
00C8
00F8
00F8
00E0
0080
ENDCHAR
STARTCHAR 0072
ENCODING 114
SWIDTH 548 0
DWIDTH 16 0
BBX 10 16 3 0
BITMAP
1E00
7F80
71C0
E0C0
C0C0
C0C0
C000
C000
C000
C000
C000
C000
C000
C000
C000
8000
ENDCHAR
STARTCHAR 0073
ENCODING 115
SWIDTH 548 0
DWIDTH 16 0
BBX 10 16 3 0
BITMAP
1E00
3F00
7380
6180
6000
7000
3F00
1F80
01C0
00C0
C0C0
C0C0
E0C0
71C0
3F80
1F00
ENDCHAR
STARTCHAR 0074
ENCODING 116
SWIDTH 548 0
DWIDTH 16 0
BBX 12 22 1 0
BITMAP
1000
3000
3000
3000
3000
3000
7FE0
FFE0
3000
3000
3000
3000
3000
3000
3000
3000
3030
3030
3830
1C70
0FE0
0780
ENDCHAR
STARTCHAR 0075
ENCODING 117
SWIDTH 548 0
DWIDTH 16 0
BBX 10 16 3 0
BITMAP
4040
C0C0
C0C0
C0C0
C0C0
C0C0
C0C0
C0C0
C0C0
C0C0
C0C0
C0C0
E0C0
61C0
7F80
1E00
ENDCHAR
STARTCHAR 0076
ENCODING 118
SWIDTH 548 0
DWIDTH 16 0
BBX 14 16 1 0
BITMAP
4008
E00C
601C
7018
7038
3030
3830
1870
1860
1CE0
0CC0
0EC0
07C0
0780
0780
0200
ENDCHAR
STARTCHAR 0077
ENCODING 119
SWIDTH 548 0
DWIDTH 16 0
BBX 13 16 2 0
BITMAP
4208
C638
C638
C638
C638
C638
C638
C638
C638
C638
C638
C638
C638
CF30
FFF0
79E0
ENDCHAR
STARTCHAR 0078
ENCODING 120
SWIDTH 548 0
DWIDTH 16 0
BBX 12 16 2 0
BITMAP
4030
E070
7070
70E0
39C0
1D80
0F80
0F00
0F00
0F80
1D80
39C0
30E0
7070
E070
4030
ENDCHAR
STARTCHAR 0079
ENCODING 121
SWIDTH 548 0
DWIDTH 16 0
BBX 10 22 3 -6
BITMAP
4040
C0C0
C0C0
C0C0
C0C0
C0C0
C0C0
C0C0
C0C0
C0C0
C0C0
C0C0
E0C0
61C0
7FC0
1FC0
00C0
00C0
E0C0
71C0
7F80
1E00
ENDCHAR
STARTCHAR 007A
ENCODING 122
SWIDTH 548 0
DWIDTH 16 0
BBX 11 15 3 0
BITMAP
7FE0
FFC0
0180
0380
0300
0700
0E00
0E00
1C00
1800
3800
7000
7000
FFE0
FFC0
ENDCHAR
STARTCHAR 007B
ENCODING 123
SWIDTH 548 0
DWIDTH 16 0
BBX 12 31 1 -5
BITMAP
0070
01F0
03C0
0300
0700
0700
0600
0600
0600
0600
0600
0600
0E00
1C00
7800
F800
1C00
0E00
0600
0600
0600
0600
0600
0600
0600
0700
0700
0300
03C0
01F0
0030
ENDCHAR
STARTCHAR 007C
ENCODING 124
SWIDTH 548 0
DWIDTH 16 0
BBX 2 31 7 -5
BITMAP
C0
C0
C0
C0
C0
C0
C0
C0
C0
C0
C0
C0
C0
C0
C0
C0
C0
C0
C0
C0
C0
C0
C0
C0
C0
C0
C0
C0
C0
C0
80
ENDCHAR
STARTCHAR 007D
ENCODING 125
SWIDTH 548 0
DWIDTH 16 0
BBX 12 31 3 -5
BITMAP
E000
F800
1C00
0E00
0600
0600
0600
0600
0600
0600
0600
0600
0700
0380
01F0
01F0
0380
0700
0600
0600
0600
0600
0600
0600
0600
0600
0E00
0C00
1C00
F800
E000
ENDCHAR
STARTCHAR 007E
ENCODING 126
SWIDTH 548 0
DWIDTH 16 0
BBX 12 4 2 9
BITMAP
3C10
7F30
E7F0
C1E0
ENDCHAR
STARTCHAR 00A0
ENCODING 160
SWIDTH 548 0
DWIDTH 16 0
BBX 0 0 0 0
BITMAP
ENDCHAR
STARTCHAR 00A1
ENCODING 161
SWIDTH 548 0
DWIDTH 16 0
BBX 4 22 6 0
BITMAP
60
F0
F0
60
00
00
60
60
60
60
60
60
60
60
60
60
60
60
60
60
60
40
ENDCHAR
STARTCHAR 00A2
ENCODING 162
SWIDTH 548 0
DWIDTH 16 0
BBX 10 26 3 -5
BITMAP
0400
0C00
0C00
0C00
0C00
1E00
3F80
7FC0
EDC0
CCC0
CCC0
CC80
CC00
CC00
CC00
CCC0
CCC0
ECC0
7FC0
7F80
1E00
0C00
0C00
0C00
0C00
0800
ENDCHAR
STARTCHAR 00A3
ENCODING 163
SWIDTH 548 0
DWIDTH 16 0
BBX 14 22 1 0
BITMAP
0780
0FE0
1C70
3830
3030
3030
3000
3000
3000
3000
3000
3000
7F80
FF80
3000
3000
3000
3000
3000
3000
3FFC
3FF8
ENDCHAR
STARTCHAR 00A4
ENCODING 164
SWIDTH 548 0
DWIDTH 16 0
BBX 13 12 2 5
BITMAP
C030
EFF8
7FF0
38E0
7060
6070
6070
6070
7060
78E0
FFF8
CF30
ENDCHAR
STARTCHAR 00A5
ENCODING 165
SWIDTH 548 0
DWIDTH 16 0
BBX 14 22 1 0
BITMAP
400C
C00C
E01C
6018
7038
3038
3870
1870
1C60
1CE0
3FF8
3FF8
0780
0780
0300
3FF8
3FF8
0300
0300
0300
0300
0200
ENDCHAR
STARTCHAR 00A6
ENCODING 166
SWIDTH 548 0
DWIDTH 16 0
BBX 2 31 7 -5
BITMAP
C0
C0
C0
C0
C0
C0
C0
C0
C0
C0
C0
C0
C0
80
00
00
00
C0
C0
C0
C0
C0
C0
C0
C0
C0
C0
C0
C0
C0
80
ENDCHAR
STARTCHAR 00A7
ENCODING 167
SWIDTH 548 0
DWIDTH 16 0
BBX 10 22 3 0
BITMAP
1E00
3F00
7380
6180
6000
7000
3E00
7F80
61C0
E0C0
C0C0
C0C0
E0C0
71C0
7F80
1F80
0380
0180
6180
7380
3F00
1E00
ENDCHAR
STARTCHAR 00A8
ENCODING 168
SWIDTH 548 0
DWIDTH 16 0
BBX 10 4 3 18
BITMAP
61C0
F1C0
F1C0
61C0
ENDCHAR
STARTCHAR 00A9
ENCODING 169
SWIDTH 548 0
DWIDTH 16 0
BBX 16 16 0 3
BITMAP
07E0
0C18
100C
2004
43C2
47E2
4671
8631
8601
8631
4671
47E2
23C6
300C
1C18
07E0
ENDCHAR
STARTCHAR 00AA
ENCODING 170
SWIDTH 548 0
DWIDTH 16 0
BBX 12 13 2 9
BITMAP
0F00
1F80
1980
18C0
03C0
0FC0
1CC0
18C0
1FC0
0F80
0000
7FF0
FFF0
ENDCHAR
STARTCHAR 00AB
ENCODING 171
SWIDTH 548 0
DWIDTH 16 0
BBX 12 16 2 3
BITMAP
0620
0E70
0C60
1CE0
39C0
3180
7380
E700
E700
7300
7380
39C0
1CE0
0C60
0E70
0620
ENDCHAR
STARTCHAR 00AC
ENCODING 172
SWIDTH 548 0
DWIDTH 16 0
BBX 12 7 2 4
BITMAP
7FF0
FFF0
0060
00E0
00C0
01C0
01C0
ENDCHAR
STARTCHAR 00AD
ENCODING 173
SWIDTH 548 0
DWIDTH 16 0
BBX 12 2 2 10
BITMAP
7FF0
FFF0
ENDCHAR
STARTCHAR 00AE
ENCODING 174
SWIDTH 548 0
DWIDTH 16 0
BBX 16 16 0 3
BITMAP
07E0
0C18
300C
27C6
47E2
4631
C631
87F1
87E1
4661
4663
4632
2436
100C
0C18
03E0
ENDCHAR
STARTCHAR 00AF
ENCODING 175
SWIDTH 548 0
DWIDTH 16 0
BBX 12 2 2 20
BITMAP
7FF0
FFF0
ENDCHAR
STARTCHAR 00B0
ENCODING 176
SWIDTH 548 0
DWIDTH 16 0
BBX 10 10 3 12
BITMAP
1E00
3F80
7180
61C0
E0C0
E0C0
61C0
7180
3F80
1E00
ENDCHAR
STARTCHAR 00B1
ENCODING 177
SWIDTH 548 0
DWIDTH 16 0
BBX 12 16 2 3
BITMAP
0200
0600
0600
0600
0600
7FF0
FFF0
0600
0600
0600
0600
0600
0400
0000
7FF0
FFF0
ENDCHAR
STARTCHAR 00B2
ENCODING 178
SWIDTH 548 0
DWIDTH 16 0
BBX 7 10 5 12
BITMAP
78
FC
CC
C6
0C
1C
70
60
FE
FC
ENDCHAR
STARTCHAR 00B3
ENCODING 179
SWIDTH 548 0
DWIDTH 16 0
BBX 6 10 5 12
BITMAP
FC
FC
18
30
38
1C
CC
CC
FC
78
ENDCHAR
STARTCHAR 00B4
ENCODING 180
SWIDTH 548 0
DWIDTH 16 0
BBX 6 7 5 15
BITMAP
08
0C
1C
78
F0
60
40
ENDCHAR
STARTCHAR 00B5
ENCODING 181
SWIDTH 548 0
DWIDTH 16 0
BBX 10 22 3 -6
BITMAP
4040
C0C0
C0C0
C0C0
C0C0
C0C0
C0C0
C0C0
C0C0
C0C0
C0C0
C0C0
E0C0
E1C0
FF80
DE00
C000
C000
C000
C000
C000
8000
ENDCHAR
STARTCHAR 00B6
ENCODING 182
SWIDTH 548 0
DWIDTH 16 0
BBX 9 21 4 0
BITMAP
1F80
3E80
7E80
FE80
FE80
FE80
FE80
FE80
FE80
FE80
7E80
3E80
0E80
0280
0280
0280
0280
0280
0280
0280
0200
ENDCHAR
STARTCHAR 00B7
ENCODING 183
SWIDTH 548 0
DWIDTH 16 0
BBX 4 4 6 9
BITMAP
60
F0
F0
60
ENDCHAR
STARTCHAR 00B8
ENCODING 184
SWIDTH 548 0
DWIDTH 16 0
BBX 4 9 6 -7
BITMAP
20
60
60
70
30
30
70
F0
80
ENDCHAR
STARTCHAR 00B9
ENCODING 185
SWIDTH 548 0
DWIDTH 16 0
BBX 4 10 6 12
BITMAP
30
70
F0
B0
30
30
30
30
30
30
ENDCHAR
STARTCHAR 00BA
ENCODING 186
SWIDTH 548 0
DWIDTH 16 0
BBX 12 13 2 9
BITMAP
0F00
1F80
19C0
18C0
18C0
18C0
18C0
1980
1F80
0F00
0000
7FF0
FFF0
ENDCHAR
STARTCHAR 00BB
ENCODING 187
SWIDTH 548 0
DWIDTH 16 0
BBX 12 16 2 3
BITMAP
4200
E700
7380
3180
39C0
1CE0
0C60
0E70
0670
0E60
1CE0
39C0
3180
7380
E700
4200
ENDCHAR
STARTCHAR 00BC
ENCODING 188
SWIDTH 548 0
DWIDTH 16 0
BBX 15 22 1 0
BITMAP
1000
7000
F000
F000
3000
3004
301C
303C
3070
31E0
23C0
0700
1E0C
3C1C
701C
E03C
406C
006C
00FE
01FC
000C
0008
ENDCHAR
STARTCHAR 00BD
ENCODING 189
SWIDTH 548 0
DWIDTH 16 0
BBX 14 22 1 0
BITMAP
1000
7000
F000
F000
3000
3004
301C
303C
3070
31E0
03C0
0700
1E70
3CFC
718C
E18C
401C
0038
0070
00C0
01FC
01FC
ENDCHAR
STARTCHAR 00BE
ENCODING 190
SWIDTH 548 0
DWIDTH 16 0
BBX 15 22 1 0
BITMAP
FC00
FC00
1800
3000
3800
3C04
CC1C
CC3C
FC70
79E0
03C0
0700
1E0C
3C1C
701C
E03C
406C
006C
00FE
01FC
000C
0008
ENDCHAR
STARTCHAR 00BF
ENCODING 191
SWIDTH 548 0
DWIDTH 16 0
BBX 13 22 2 0
BITMAP
0380
0380
0380
0380
0000
0000
0180
0380
0300
0F00
1E00
7800
7000
E000
C000
C018
C030
C030
E070
70E0
3FC0
0F80
ENDCHAR
STARTCHAR 00C0
ENCODING 192
SWIDTH 548 0
DWIDTH 16 0
BBX 13 29 2 0
BITMAP
1000
3000
3800
1C00
0E00
0600
0400
0F80
3FC0
70E0
E070
C030
C030
C038
C038
C038
C038
FFF8
FFF8
C038
C038
C038
C038
C038
C038
C038
C038
C038
8020
ENDCHAR
STARTCHAR 00C1
ENCODING 193
SWIDTH 548 0
DWIDTH 16 0
BBX 13 29 2 0
BITMAP
0080
00C0
01C0
0380
0700
0200
0200
0F80
3FC0
70E0
E070
C030
C030
C038
C038
C038
C038
FFF8
FFF8
C038
C038
C038
C038
C038
C038
C038
C038
C038
8020
ENDCHAR
STARTCHAR 00C2
ENCODING 194
SWIDTH 548 0
DWIDTH 16 0
BBX 13 28 2 0
BITMAP
0200
0700
0F80
39C0
1080
0000
0F80
3FC0
70E0
E070
C030
C030
C038
C038
C038
C038
FFF8
FFF8
C038
C038
C038
C038
C038
C038
C038
C038
C038
8020
ENDCHAR
STARTCHAR 00C3
ENCODING 195
SWIDTH 548 0
DWIDTH 16 0
BBX 13 28 2 0
BITMAP
0840
1E60
3FE0
7380
2100
0000
0F80
3FC0
78E0
7070
E030
C030
C038
C038
C038
C038
FFF8
FFF8
C038
C038
C038
C038
C038
C038
C038
C038
C038
8020
ENDCHAR
STARTCHAR 00C4
ENCODING 196
SWIDTH 548 0
DWIDTH 16 0
BBX 13 27 2 0
BITMAP
30E0
78E0
78E0
30E0
0000
0F80
3FC0
70E0
E070
C030
C030
C038
C038
C038
C038
FFF8
FFF8
C038
C038
C038
C038
C038
C038
C038
C038
C038
8020
ENDCHAR
STARTCHAR 00C5
ENCODING 197
SWIDTH 548 0
DWIDTH 16 0
BBX 13 29 2 0
BITMAP
0F00
1F80
1980
1980
1980
1F80
0F00
0F80
3FC0
70E0
E070
C030
C030
C038
C038
C038
C038
FFF8
FFF8
C038
C038
C038
C038
C038
C038
C038
C038
C038
8020
ENDCHAR
STARTCHAR 00C6
ENCODING 198
SWIDTH 548 0
DWIDTH 16 0
BBX 14 22 2 0
BITMAP
3FF0
FFE0
CE00
C600
C600
C600
C600
C600
C600
C600
FFF0
FFE0
C600
C600
C600
C600
C600
C600
C600
C600
C7FC
87F8
ENDCHAR
STARTCHAR 00C7
ENCODING 199
SWIDTH 548 0
DWIDTH 16 0
BBX 13 29 2 -7
BITMAP
0F80
3FC0
70E0
E070
C030
C030
C038
C000
C000
C000
C000
C000
C000
C000
C008
C038
C030
C030
E070
70E0
3FC0
1F80
0600
0700
0300
0300
0700
0F00
0800
ENDCHAR
STARTCHAR 00C8
ENCODING 200
SWIDTH 548 0
DWIDTH 16 0
BBX 12 29 3 0
BITMAP
2000
6000
7000
3800
1C00
0C00
0800
0000
7FC0
FFC0
C000
C000
C000
C000
C000
C000
C000
FFC0
FFC0
C000
C000
C000
C000
C000
C000
C000
C000
FFF0
FFF0
ENDCHAR
STARTCHAR 00C9
ENCODING 201
SWIDTH 548 0
DWIDTH 16 0
BBX 12 29 3 0
BITMAP
0100
0180
0380
0700
0E00
0400
0400
0000
7FC0
FFC0
C000
C000
C000
C000
C000
C000
C000
FFC0
FFC0
C000
C000
C000
C000
C000
C000
C000
C000
FFF0
FFF0
ENDCHAR
STARTCHAR 00CA
ENCODING 202
SWIDTH 548 0
DWIDTH 16 0
BBX 12 28 3 0
BITMAP
0400
0E00
1F00
7380
2100
0000
0000
7FC0
FFC0
C000
C000
C000
C000
C000
C000
C000
FFC0
FFC0
C000
C000
C000
C000
C000
C000
C000
C000
FFF0
FFF0
ENDCHAR
STARTCHAR 00CB
ENCODING 203
SWIDTH 548 0
DWIDTH 16 0
BBX 12 27 3 0
BITMAP
61C0
F1C0
F1C0
61C0
0000
0000
7FC0
FFC0
C000
C000
C000
C000
C000
C000
C000
FFC0
FFC0
C000
C000
C000
C000
C000
C000
C000
C000
FFF0
FFF0
ENDCHAR
STARTCHAR 00CC
ENCODING 204
SWIDTH 548 0
DWIDTH 16 0
BBX 12 29 2 0
BITMAP
1000
3000
3800
1C00
0E00
0600
0400
0000
7FF0
FFF0
0600
0600
0600
0600
0600
0600
0600
0600
0600
0600
0600
0600
0600
0600
0600
0600
0600
7FF0
FFF0
ENDCHAR
STARTCHAR 00CD
ENCODING 205
SWIDTH 548 0
DWIDTH 16 0
BBX 12 29 2 0
BITMAP
0080
00C0
01C0
0380
0700
0200
0200
0000
7FF0
FFF0
0600
0600
0600
0600
0600
0600
0600
0600
0600
0600
0600
0600
0600
0600
0600
0600
0600
7FF0
FFF0
ENDCHAR
STARTCHAR 00CE
ENCODING 206
SWIDTH 548 0
DWIDTH 16 0
BBX 12 28 2 0
BITMAP
0200
0700
0F80
39C0
1080
0000
0000
7FF0
FFF0
0600
0600
0600
0600
0600
0600
0600
0600
0600
0600
0600
0600
0600
0600
0600
0600
0600
7FF0
FFF0
ENDCHAR
STARTCHAR 00CF
ENCODING 207
SWIDTH 548 0
DWIDTH 16 0
BBX 12 27 2 0
BITMAP
30E0
78E0
78E0
30E0
0000
0000
7FF0
FFF0
0600
0600
0600
0600
0600
0600
0600
0600
0600
0600
0600
0600
0600
0600
0600
0600
0600
7FF0
FFF0
ENDCHAR
STARTCHAR 00D0
ENCODING 208
SWIDTH 548 0
DWIDTH 16 0
BBX 14 21 1 0
BITMAP
3FC0
7FE0
6070
6038
6018
6018
601C
601C
601C
FF1C
FF1C
601C
601C
601C
601C
6018
6018
6038
6070
7FE0
7FC0
ENDCHAR
STARTCHAR 00D1
ENCODING 209
SWIDTH 548 0
DWIDTH 16 0
BBX 13 28 2 0
BITMAP
0800
1C60
3FE0
77C0
2380
0000
0F80
3FC0
70E0
E070
C030
C030
C038
C038
C038
C038
C038
C038
C038
C038
C038
C038
C038
C038
C038
C038
C038
8020
ENDCHAR
STARTCHAR 00D2
ENCODING 210
SWIDTH 548 0
DWIDTH 16 0
BBX 13 29 2 0
BITMAP
1000
3000
3800
1C00
0E00
0600
0400
0F80
3FC0
70E0
E070
C030
C030
C038
C038
C038
C038
C038
C038
C038
C038
C038
C038
C030
C030
E070
70E0
3FC0
0F80
ENDCHAR
STARTCHAR 00D3
ENCODING 211
SWIDTH 548 0
DWIDTH 16 0
BBX 13 29 2 0
BITMAP
0080
00C0
01C0
0380
0700
0200
0200
0F80
3FC0
70E0
E070
C030
C030
C038
C038
C038
C038
C038
C038
C038
C038
C038
C038
C030
C030
E070
70E0
3FC0
0F80
ENDCHAR
STARTCHAR 00D4
ENCODING 212
SWIDTH 548 0
DWIDTH 16 0
BBX 13 28 2 0
BITMAP
0200
0700
0F80
39C0
1080
0000
0F80
3FC0
70E0
E070
C030
C030
C038
C038
C038
C038
C038
C038
C038
C038
C038
C038
C030
C030
E070
70E0
3FC0
0F80
ENDCHAR
STARTCHAR 00D5
ENCODING 213
SWIDTH 548 0
DWIDTH 16 0
BBX 13 28 2 0
BITMAP
0800
1C60
3FE0
77C0
2380
0000
0F80
3FC0
70E0
E070
C030
C030
C038
C038
C038
C038
C038
C038
C038
C038
C038
C038
C030
C030
E070
70E0
3FC0
0F80
ENDCHAR
STARTCHAR 00D6
ENCODING 214
SWIDTH 548 0
DWIDTH 16 0
BBX 13 27 2 0
BITMAP
30E0
78E0
78E0
30E0
0000
0F80
3FC0
70E0
E070
C030
C030
C038
C038
C038
C038
C038
C038
C038
C038
C038
C038
C030
C030
E070
70E0
3FC0
0F80
ENDCHAR
STARTCHAR 00D7
ENCODING 215
SWIDTH 548 0
DWIDTH 16 0
BBX 10 9 3 6
BITMAP
6180
F3C0
3F80
1F00
1E00
1F00
3B80
71C0
E080
ENDCHAR
STARTCHAR 00D8
ENCODING 216
SWIDTH 548 0
DWIDTH 16 0
BBX 14 24 1 -1
BITMAP
000C
078C
1FFC
3878
7038
6078
6078
60FC
60DC
61DC
619C
639C
631C
671C
661C
6E1C
7C1C
7818
7818
3038
7870
7FE0
E7C0
4000
ENDCHAR
STARTCHAR 00D9
ENCODING 217
SWIDTH 548 0
DWIDTH 16 0
BBX 13 29 2 0
BITMAP
1000
3000
3800
1C00
0E00
0600
0400
4018
C038
C038
C038
C038
C038
C038
C038
C038
C038
C038
C038
C038
C038
C038
C038
C030
C030
E070
70E0
3FC0
0F80
ENDCHAR
STARTCHAR 00DA
ENCODING 218
SWIDTH 548 0
DWIDTH 16 0
BBX 13 29 2 0
BITMAP
0080
00C0
01C0
0380
0700
0200
0200
4018
C038
C038
C038
C038
C038
C038
C038
C038
C038
C038
C038
C038
C038
C038
C038
C030
C030
E070
70E0
3FC0
0F80
ENDCHAR
STARTCHAR 00DB
ENCODING 219
SWIDTH 548 0
DWIDTH 16 0
BBX 13 28 2 0
BITMAP
0200
0700
0F80
39C0
1080
0000
4018
C038
C038
C038
C038
C038
C038
C038
C038
C038
C038
C038
C038
C038
C038
C038
C030
C030
E070
70E0
3FC0
0F80
ENDCHAR
STARTCHAR 00DC
ENCODING 220
SWIDTH 548 0
DWIDTH 16 0
BBX 13 27 2 0
BITMAP
30E0
78E0
78E0
30E0
0000
4018
C038
C038
C038
C038
C038
C038
C038
C038
C038
C038
C038
C038
C038
C038
C038
C030
C030
E070
70E0
3FC0
0F80
ENDCHAR
STARTCHAR 00DD
ENCODING 221
SWIDTH 548 0
DWIDTH 16 0
BBX 13 29 2 0
BITMAP
0080
00C0
01C0
0380
0700
0200
0200
4018
C038
C038
C038
C038
C038
C038
C038
C038
C038
C030
C030
E070
70E0
3FC0
1F80
0600
0600
0600
0600
0600
0400
ENDCHAR
STARTCHAR 00DE
ENCODING 222
SWIDTH 548 0
DWIDTH 16 0
BBX 12 22 2 0
BITMAP
4000
C000
C000
C000
C000
FF00
FFC0
C0E0
C060
C070
C030
C030
C030
C070
C060
C0E0
FFC0
FF00
C000
C000
C000
8000
ENDCHAR
STARTCHAR 00DF
ENCODING 223
SWIDTH 548 0
DWIDTH 16 0
BBX 13 22 2 0
BITMAP
1F00
7F80
61C0
E0E0
C0E0
C060
C060
C0E0
C1C0
C7C0
C7C0
C0E0
C070
C030
C030
C038
C030
C030
C070
C0E0
CFC0
CF80
ENDCHAR
STARTCHAR 00E0
ENCODING 224
SWIDTH 548 0
DWIDTH 16 0
BBX 10 23 3 0
BITMAP
2000
7000
7800
3C00
1C00
0800
0000
1E00
3F80
71C0
E0C0
C0C0
C0C0
03C0
0FC0
7EC0
F8C0
E0C0
C0C0
C0C0
E0C0
7EC0
3EC0
ENDCHAR
STARTCHAR 00E1
ENCODING 225
SWIDTH 548 0
DWIDTH 16 0
BBX 10 23 3 0
BITMAP
0100
0180
0380
0F00
0600
0400
0000
1E00
3F80
71C0
E0C0
C0C0
C0C0
03C0
0FC0
7EC0
F8C0
E0C0
C0C0
C0C0
E0C0
7EC0
3EC0
ENDCHAR
STARTCHAR 00E2
ENCODING 226
SWIDTH 548 0
DWIDTH 16 0
BBX 10 22 3 0
BITMAP
0C00
1E00
3F00
3380
2100
0000
1E00
3F80
71C0
E0C0
C0C0
C0C0
03C0
0FC0
7EC0
F8C0
E0C0
C0C0
C0C0
E0C0
7EC0
3EC0
ENDCHAR
STARTCHAR 00E3
ENCODING 227
SWIDTH 548 0
DWIDTH 16 0
BBX 10 22 3 0
BITMAP
1840
3CC0
7FC0
E780
4300
0000
1E00
3F80
71C0
E0C0
C0C0
C0C0
03C0
0FC0
7EC0
F8C0
E0C0
C0C0
C0C0
E0C0
7EC0
3EC0
ENDCHAR
STARTCHAR 00E4
ENCODING 228
SWIDTH 548 0
DWIDTH 16 0
BBX 10 22 3 0
BITMAP
61C0
F1C0
F1C0
61C0
0000
0000
1E00
3F80
71C0
E0C0
C0C0
C0C0
03C0
0FC0
7EC0
F8C0
E0C0
C0C0
C0C0
E0C0
7EC0
3EC0
ENDCHAR
STARTCHAR 00E5
ENCODING 229
SWIDTH 548 0
DWIDTH 16 0
BBX 10 24 3 0
BITMAP
0E00
1F00
3300
3300
3300
1F00
1E00
0000
1E00
3F80
71C0
E0C0
C0C0
C0C0
03C0
0FC0
7EC0
F8C0
E0C0
C0C0
C0C0
E0C0
7EC0
3EC0
ENDCHAR
STARTCHAR 00E6
ENCODING 230
SWIDTH 548 0
DWIDTH 16 0
BBX 14 16 1 0
BITMAP
1EF0
3FF8
739C
638C
430C
031C
037C
0FF0
3FC0
7B00
E300
E304
E30C
739C
7BF8
1BF0
ENDCHAR
STARTCHAR 00E7
ENCODING 231
SWIDTH 548 0
DWIDTH 16 0
BBX 10 23 3 -7
BITMAP
1E00
7F80
71C0
E0C0
C0C0
C0C0
C000
C000
C000
C000
C0C0
C0C0
E0C0
F1C0
7F80
3F00
0C00
0E00
0600
0600
0E00
1E00
1000
ENDCHAR
STARTCHAR 00E8
ENCODING 232
SWIDTH 548 0
DWIDTH 16 0
BBX 10 23 3 0
BITMAP
2000
7000
7800
3C00
1C00
0800
0000
1E00
7F80
61C0
E0C0
C0C0
C0C0
C3C0
DF80
FE00
F000
C0C0
C0C0
E0C0
71C0
7F80
1E00
ENDCHAR
STARTCHAR 00E9
ENCODING 233
SWIDTH 548 0
DWIDTH 16 0
BBX 10 23 3 0
BITMAP
0100
0180
0380
0F00
0600
0400
0000
1E00
7F80
61C0
E0C0
C0C0
C0C0
C3C0
DF80
FE00
F000
C0C0
C0C0
E0C0
71C0
7F80
1E00
ENDCHAR
STARTCHAR 00EA
ENCODING 234
SWIDTH 548 0
DWIDTH 16 0
BBX 10 22 3 0
BITMAP
0C00
1E00
3F00
3380
2100
0000
1E00
7F80
61C0
E0C0
C0C0
C0C0
C3C0
DF80
FE00
F000
C0C0
C0C0
E0C0
71C0
7F80
1E00
ENDCHAR
STARTCHAR 00EB
ENCODING 235
SWIDTH 548 0
DWIDTH 16 0
BBX 10 22 3 0
BITMAP
61C0
F1C0
F1C0
61C0
0000
0000
1E00
7F80
71C0
E0C0
C0C0
C0C0
C3C0
DF80
FE00
F000
C0C0
C0C0
E0C0
71C0
7F80
1E00
ENDCHAR
STARTCHAR 00EC
ENCODING 236
SWIDTH 548 0
DWIDTH 16 0
BBX 13 23 0 0
BITMAP
8000
E000
F000
7800
3800
1000
0000
0800
1800
1800
1800
1800
1800
1800
1800
1800
1800
1808
1818
1C18
0C38
0FF0
03C0
ENDCHAR
STARTCHAR 00ED
ENCODING 237
SWIDTH 548 0
DWIDTH 16 0
BBX 10 23 3 0
BITMAP
1000
3800
7800
F000
E000
8000
0000
4000
C000
C000
C000
C000
C000
C000
C000
C000
C000
C040
C0C0
E0C0
61C0
7F80
1E00
ENDCHAR
STARTCHAR 00EE
ENCODING 238
SWIDTH 548 0
DWIDTH 16 0
BBX 13 22 0 0
BITMAP
1800
3C00
7E00
E600
4200
0000
0800
1800
1800
1800
1800
1800
1800
1800
1800
1800
1808
1818
1C18
0C38
0FF0
03C0
ENDCHAR
STARTCHAR 00EF
ENCODING 239
SWIDTH 548 0
DWIDTH 16 0
BBX 14 22 -1 0
BITMAP
61C0
F1C0
F1C0
61C0
0000
0000
0400
0C00
0C00
0C00
0C00
0C00
0C00
0C00
0C00
0C00
0C04
0C0C
0E0C
061C
07F8
01E0
ENDCHAR
STARTCHAR 00F0
ENCODING 240
SWIDTH 548 0
DWIDTH 16 0
BBX 12 22 3 0
BITMAP
0300
03F0
03F0
03E0
07C0
04C0
1FC0
7FC0
71C0
E0C0
C0C0
C0C0
C0C0
C0C0
C0C0
C0C0
C0C0
C0C0
E0C0
61C0
7F80
1E00
ENDCHAR
STARTCHAR 00F1
ENCODING 241
SWIDTH 548 0
DWIDTH 16 0
BBX 10 22 3 0
BITMAP
1840
3CC0
7FC0
E780
4300
0000
1E00
7F80
71C0
E0C0
C0C0
C0C0
C0C0
C0C0
C0C0
C0C0
C0C0
C0C0
C0C0
C0C0
C0C0
8080
ENDCHAR
STARTCHAR 00F2
ENCODING 242
SWIDTH 548 0
DWIDTH 16 0
BBX 10 23 3 0
BITMAP
2000
7000
7800
3C00
1C00
0800
0000
1E00
7F80
61C0
E0C0
C0C0
C0C0
C0C0
C0C0
C0C0
C0C0
C0C0
C0C0
E0C0
71C0
7F80
1E00
ENDCHAR
STARTCHAR 00F3
ENCODING 243
SWIDTH 548 0
DWIDTH 16 0
BBX 10 23 3 0
BITMAP
0100
0180
0380
0F00
0600
0400
0000
1E00
7F80
71C0
E0C0
C0C0
C0C0
C0C0
C0C0
C0C0
C0C0
C0C0
C0C0
E0C0
71C0
7F80
1E00
ENDCHAR
STARTCHAR 00F4
ENCODING 244
SWIDTH 548 0
DWIDTH 16 0
BBX 10 22 3 0
BITMAP
0C00
1E00
3F00
3380
2100
0000
1E00
7F80
61C0
E0C0
C0C0
C0C0
C0C0
C0C0
C0C0
C0C0
C0C0
C0C0
E0C0
71C0
7F80
1E00
ENDCHAR
STARTCHAR 00F5
ENCODING 245
SWIDTH 548 0
DWIDTH 16 0
BBX 10 22 3 0
BITMAP
1840
3CC0
7FC0
E780
4300
0000
1E00
7F80
61C0
E0C0
C0C0
C0C0
C0C0
C0C0
C0C0
C0C0
C0C0
C0C0
E0C0
71C0
7F80
1E00
ENDCHAR
STARTCHAR 00F6
ENCODING 246
SWIDTH 548 0
DWIDTH 16 0
BBX 10 22 3 0
BITMAP
61C0
F1C0
F1C0
61C0
0000
0000
1E00
7F80
71C0
E0C0
C0C0
C0C0
C0C0
C0C0
C0C0
C0C0
C0C0
C0C0
E0C0
71C0
7F80
1E00
ENDCHAR
STARTCHAR 00F7
ENCODING 247
SWIDTH 548 0
DWIDTH 16 0
BBX 12 15 2 3
BITMAP
0600
0F00
0F00
0600
0000
0000
7FF0
FFF0
0000
0000
0000
0600
0F00
0F00
0600
ENDCHAR
STARTCHAR 00F8
ENCODING 248
SWIDTH 548 0
DWIDTH 16 0
BBX 14 18 1 -1
BITMAP
0008
079C
1FF8
18F8
3870
30F0
30F0
31F0
33B0
3730
3630
3E30
3C30
3830
3C70
7FE0
E780
4000
ENDCHAR
STARTCHAR 00F9
ENCODING 249
SWIDTH 548 0
DWIDTH 16 0
BBX 10 23 3 0
BITMAP
2000
7000
7800
3C00
1C00
0800
0000
4040
C0C0
C0C0
C0C0
C0C0
C0C0
C0C0
C0C0
C0C0
C0C0
C0C0
C0C0
E0C0
61C0
7F80
1E00
ENDCHAR
STARTCHAR 00FA
ENCODING 250
SWIDTH 548 0
DWIDTH 16 0
BBX 10 23 3 0
BITMAP
0100
0180
0380
0F00
0600
0400
0000
4040
C0C0
C0C0
C0C0
C0C0
C0C0
C0C0
C0C0
C0C0
C0C0
C0C0
C0C0
E0C0
61C0
7F80
1E00
ENDCHAR
STARTCHAR 00FB
ENCODING 251
SWIDTH 548 0
DWIDTH 16 0
BBX 10 22 3 0
BITMAP
0C00
1E00
3F00
3380
2100
0000
4040
C0C0
C0C0
C0C0
C0C0
C0C0
C0C0
C0C0
C0C0
C0C0
C0C0
C0C0
E0C0
61C0
7F80
1E00
ENDCHAR
STARTCHAR 00FC
ENCODING 252
SWIDTH 548 0
DWIDTH 16 0
BBX 10 22 3 0
BITMAP
61C0
F1C0
F1C0
61C0
0000
0000
4040
C0C0
C0C0
C0C0
C0C0
C0C0
C0C0
C0C0
C0C0
C0C0
C0C0
C0C0
E0C0
61C0
7F80
1E00
ENDCHAR
STARTCHAR 00FD
ENCODING 253
SWIDTH 548 0
DWIDTH 16 0
BBX 10 29 3 -6
BITMAP
0100
0180
0380
0F00
0600
0400
0000
4040
C0C0
C0C0
C0C0
C0C0
C0C0
C0C0
C0C0
C0C0
C0C0
C0C0
C0C0
E0C0
61C0
7FC0
1FC0
00C0
00C0
E0C0
71C0
7F80
1E00
ENDCHAR
STARTCHAR 00FE
ENCODING 254
SWIDTH 548 0
DWIDTH 16 0
BBX 10 28 3 -6
BITMAP
4000
C000
C000
C000
C000
C000
DE00
FF80
E1C0
E0C0
C0C0
C0C0
C0C0
C0C0
C0C0
C0C0
C0C0
C0C0
E0C0
F1C0
FF80
DE00
C000
C000
C000
C000
C000
8000
ENDCHAR
STARTCHAR 00FF
ENCODING 255
SWIDTH 548 0
DWIDTH 16 0
BBX 10 28 3 -6
BITMAP
61C0
F1C0
F1C0
61C0
0000
0000
4040
C0C0
C0C0
C0C0
C0C0
C0C0
C0C0
C0C0
C0C0
C0C0
C0C0
C0C0
E0C0
61C0
7FC0
1FC0
00C0
00C0
E0C0
71C0
7F80
1E00
ENDCHAR
STARTCHAR 0100
ENCODING 256
SWIDTH 548 0
DWIDTH 16 0
BBX 13 25 2 0
BITMAP
3FE0
7FC0
0000
0F80
3FC0
70E0
E070
C030
C030
C038
C038
C038
C038
FFF8
FFF8
C038
C038
C038
C038
C038
C038
C038
C038
C038
8020
ENDCHAR
STARTCHAR 0101
ENCODING 257
SWIDTH 548 0
DWIDTH 16 0
BBX 10 20 3 0
BITMAP
7FC0
FF80
0000
0000
1E00
3F80
71C0
E0C0
C0C0
C0C0
03C0
0FC0
7EC0
F8C0
E0C0
C0C0
C0C0
E0C0
7EC0
3EC0
ENDCHAR
STARTCHAR 0102
ENCODING 258
SWIDTH 548 0
DWIDTH 16 0
BBX 13 26 2 0
BITMAP
18C0
3FC0
0F00
0000
0F80
3FC0
70E0
E070
C030
C030
C038
C038
C038
C038
FFF8
FFF8
C038
C038
C038
C038
C038
C038
C038
C038
C038
8020
ENDCHAR
STARTCHAR 0103
ENCODING 259
SWIDTH 548 0
DWIDTH 16 0
BBX 10 21 3 0
BITMAP
3180
3F80
1F00
0000
0000
1E00
3F80
71C0
E0C0
C0C0
C0C0
03C0
0FC0
7EC0
F8C0
E0C0
C0C0
C0C0
E0C0
7EC0
3EC0
ENDCHAR
STARTCHAR 0104
ENCODING 260
SWIDTH 548 0
DWIDTH 16 0
BBX 14 28 2 -6
BITMAP
0F80
3FC0
70E0
E070
C030
C030
C038
C038
C038
C038
FFF8
FFF8
C038
C038
C038
C038
C038
C038
C038
C038
C038
8038
0030
0070
0070
0078
003C
000C
ENDCHAR
STARTCHAR 0105
ENCODING 261
SWIDTH 548 0
DWIDTH 16 0
BBX 12 22 3 -6
BITMAP
1E00
3F80
71C0
E0C0
C0C0
C0C0
03C0
0FC0
7EC0
F8C0
E0C0
C0C0
C0C0
E0C0
7EE0
3EE0
00C0
01C0
0180
01E0
01F0
0030
ENDCHAR
STARTCHAR 0106
ENCODING 262
SWIDTH 548 0
DWIDTH 16 0
BBX 13 29 2 0
BITMAP
0080
00C0
01C0
0380
0700
0200
0200
0F80
3FC0
70E0
E070
C030
C030
C038
C000
C000
C000
C000
C000
C000
C000
C008
C038
C030
C030
E070
70E0
3FC0
0F80
ENDCHAR
STARTCHAR 0107
ENCODING 263
SWIDTH 548 0
DWIDTH 16 0
BBX 10 23 3 0
BITMAP
0100
0180
0380
0F00
0600
0400
0000
1E00
7F80
71C0
E0C0
C0C0
C0C0
C000
C000
C000
C000
C0C0
C0C0
E0C0
71C0
7F80
1E00
ENDCHAR
STARTCHAR 0108
ENCODING 264
SWIDTH 548 0
DWIDTH 16 0
BBX 13 28 2 0
BITMAP
0200
0700
0F80
39C0
1080
0000
0F80
3FC0
70E0
E070
C030
C030
C038
C000
C000
C000
C000
C000
C000
C000
C008
C038
C030
C030
E070
70E0
3FC0
0F80
ENDCHAR
STARTCHAR 0109
ENCODING 265
SWIDTH 548 0
DWIDTH 16 0
BBX 10 22 3 0
BITMAP
0C00
1E00
3F00
3380
2100
0000
1E00
7F80
71C0
E0C0
C0C0
C0C0
C000
C000
C000
C000
C0C0
C0C0
E0C0
71C0
7F80
1E00
ENDCHAR
STARTCHAR 010A
ENCODING 266
SWIDTH 548 0
DWIDTH 16 0
BBX 13 27 2 0
BITMAP
0600
0F00
0F00
0600
0000
0F80
3FC0
70E0
E070
C030
C030
C038
C000
C000
C000
C000
C000
C000
C000
C008
C038
C030
C030
E070
70E0
3FC0
0F80
ENDCHAR
STARTCHAR 010B
ENCODING 267
SWIDTH 548 0
DWIDTH 16 0
BBX 10 22 3 0
BITMAP
0C00
1E00
1E00
0C00
0000
0000
1E00
7F80
71C0
E0C0
C0C0
C0C0
C000
C000
C000
C000
C0C0
C0C0
E0C0
71C0
7F80
1E00
ENDCHAR
STARTCHAR 010C
ENCODING 268
SWIDTH 548 0
DWIDTH 16 0
BBX 13 28 2 0
BITMAP
1080
19C0
1F80
0F00
0600
0000
0F80
3FC0
70E0
E070
C030
C030
C038
C000
C000
C000
C000
C000
C000
C000
C008
C038
C030
C030
E070
70E0
3FC0
0F80
ENDCHAR
STARTCHAR 010D
ENCODING 269
SWIDTH 548 0
DWIDTH 16 0
BBX 10 22 3 0
BITMAP
2100
3380
3F00
1E00
0C00
0000
1E00
7F80
71C0
E0C0
C0C0
C0C0
C000
C000
C000
C000
C0C0
C0C0
E0C0
71C0
7F80
1E00
ENDCHAR
STARTCHAR 010E
ENCODING 270
SWIDTH 548 0
DWIDTH 16 0
BBX 13 28 2 0
BITMAP
1080
19C0
1F80
0F00
0600
0000
0000
7F80
FFC0
C0E0
C070
C030
C030
C038
C038
C038
C038
C038
C038
C038
C038
C038
C030
C030
C070
C0E0
FFC0
FF80
ENDCHAR
STARTCHAR 010F
ENCODING 271
SWIDTH 548 0
DWIDTH 16 0
BBX 16 23 0 0
BITMAP
0002
0023
0067
007E
006C
0068
0060
1F60
3FE0
71E0
E0E0
C0E0
C060
C060
C060
C060
C060
C060
C0E0
E0C0
71C0
3F80
1F00
ENDCHAR
STARTCHAR 0110
ENCODING 272
SWIDTH 548 0
DWIDTH 16 0
BBX 14 21 1 0
BITMAP
3FC0
7FE0
6070
6038
6018
6018
601C
601C
601C
FF1C
FF1C
601C
601C
601C
601C
6018
6018
6038
6070
7FE0
7FC0
ENDCHAR
STARTCHAR 0111
ENCODING 273
SWIDTH 548 0
DWIDTH 16 0
BBX 13 22 3 0
BITMAP
0040
00C0
0FF8
1FF0
00C0
00C0
1FC0
7FC0
61C0
E0C0
C0C0
C0C0
C0C0
C0C0
C0C0
C0C0
C0C0
C0C0
E0C0
71C0
7F80
1E00
ENDCHAR
STARTCHAR 0112
ENCODING 274
SWIDTH 548 0
DWIDTH 16 0
BBX 12 25 3 0
BITMAP
7FC0
FF80
0000
0000
7FC0
FFC0
C000
C000
C000
C000
C000
C000
C000
FFC0
FFC0
C000
C000
C000
C000
C000
C000
C000
C000
FFF0
FFF0
ENDCHAR
STARTCHAR 0113
ENCODING 275
SWIDTH 548 0
DWIDTH 16 0
BBX 10 20 3 0
BITMAP
7FC0
FF80
0000
0000
1E00
7F80
61C0
E0C0
C0C0
C0C0
C3C0
DF80
FE00
F000
C0C0
C0C0
E0C0
71C0
7F80
1E00
ENDCHAR
STARTCHAR 0114
ENCODING 276
SWIDTH 548 0
DWIDTH 16 0
BBX 12 26 3 0
BITMAP
3180
7F80
1E00
0000
0000
7FC0
FFC0
C000
C000
C000
C000
C000
C000
C000
FFC0
FFC0
C000
C000
C000
C000
C000
C000
C000
C000
FFF0
FFF0
ENDCHAR
STARTCHAR 0115
ENCODING 277
SWIDTH 548 0
DWIDTH 16 0
BBX 10 21 3 0
BITMAP
3180
3F80
1F00
0000
0000
1E00
7F80
61C0
E0C0
C0C0
C0C0
C3C0
DF80
FE00
F000
C0C0
C0C0
E0C0
71C0
7F80
1E00
ENDCHAR
STARTCHAR 0116
ENCODING 278
SWIDTH 548 0
DWIDTH 16 0
BBX 12 27 3 0
BITMAP
0C00
1E00
1E00
0C00
0000
0000
7FC0
FFC0
C000
C000
C000
C000
C000
C000
C000
FFC0
FFC0
C000
C000
C000
C000
C000
C000
C000
C000
FFF0
FFF0
ENDCHAR
STARTCHAR 0117
ENCODING 279
SWIDTH 548 0
DWIDTH 16 0
BBX 10 22 3 0
BITMAP
0C00
1E00
1E00
0C00
0000
0000
1E00
7F80
71C0
E0C0
C0C0
C0C0
C3C0
DF80
FE00
F000
C0C0
C0C0
E0C0
71C0
7F80
1E00
ENDCHAR
STARTCHAR 0118
ENCODING 280
SWIDTH 548 0
DWIDTH 16 0
BBX 13 27 3 -6
BITMAP
7FC0
FFC0
C000
C000
C000
C000
C000
C000
C000
FFC0
FFC0
C000
C000
C000
C000
C000
C000
C000
C000
FFF0
FFF0
0060
00E0
00C0
00F0
00F8
0018
ENDCHAR
STARTCHAR 0119
ENCODING 281
SWIDTH 548 0
DWIDTH 16 0
BBX 11 22 3 -6
BITMAP
1E00
7F80
61C0
E0C0
C0C0
C0C0
C3C0
DF80
FE00
F000
C0C0
C0C0
E0C0
71C0
7FC0
1FC0
0180
0380
0300
03C0
03E0
0060
ENDCHAR
STARTCHAR 011A
ENCODING 282
SWIDTH 548 0
DWIDTH 16 0
BBX 12 28 3 0
BITMAP
2100
3380
3F00
1E00
0C00
0000
0000
7FC0
FFC0
C000
C000
C000
C000
C000
C000
C000
FFC0
FFC0
C000
C000
C000
C000
C000
C000
C000
C000
FFF0
FFF0
ENDCHAR
STARTCHAR 011B
ENCODING 283
SWIDTH 548 0
DWIDTH 16 0
BBX 10 22 3 0
BITMAP
2100
3380
3F00
1E00
0C00
0000
1E00
7F80
61C0
E0C0
C0C0
C0C0
C3C0
DF80
FE00
F000
C0C0
C0C0
E0C0
71C0
7F80
1E00
ENDCHAR
STARTCHAR 011C
ENCODING 284
SWIDTH 548 0
DWIDTH 16 0
BBX 13 28 2 0
BITMAP
0200
0700
0F80
39C0
1080
0000
0F80
3FC0
70E0
E070
C030
C030
C038
C020
C000
C000
C1F8
C3F8
C038
C038
C038
C038
C030
C030
E070
70E0
3FC0
0F80
ENDCHAR
STARTCHAR 011D
ENCODING 285
SWIDTH 548 0
DWIDTH 16 0
BBX 10 28 3 -6
BITMAP
0C00
1E00
3F00
3380
2100
0000
1E00
7F80
61C0
E0C0
C0C0
C0C0
C0C0
C0C0
C0C0
C0C0
C0C0
C0C0
E0C0
71C0
7FC0
1FC0
00C0
00C0
E0C0
71C0
7F80
1E00
ENDCHAR
STARTCHAR 011E
ENCODING 286
SWIDTH 548 0
DWIDTH 16 0
BBX 13 26 2 0
BITMAP
18C0
3FC0
0F00
0000
0F80
3FC0
70E0
E070
C030
C030
C038
C020
C000
C000
C1F8
C3F8
C038
C038
C038
C038
C030
C030
E070
70E0
3FC0
0F80
ENDCHAR
STARTCHAR 011F
ENCODING 287
SWIDTH 548 0
DWIDTH 16 0
BBX 10 27 3 -6
BITMAP
3180
3F80
1F00
0000
0000
1E00
7F80
61C0
E0C0
C0C0
C0C0
C0C0
C0C0
C0C0
C0C0
C0C0
C0C0
E0C0
71C0
7FC0
1FC0
00C0
00C0
E0C0
71C0
7F80
1E00
ENDCHAR
STARTCHAR 0120
ENCODING 288
SWIDTH 548 0
DWIDTH 16 0
BBX 13 27 2 0
BITMAP
0600
0F00
0F00
0600
0000
0F80
3FC0
70E0
E070
C030
C030
C038
C020
C000
C000
C1F8
C3F8
C038
C038
C038
C038
C030
C030
E070
70E0
3FC0
0F80
ENDCHAR
STARTCHAR 0121
ENCODING 289
SWIDTH 548 0
DWIDTH 16 0
BBX 10 28 3 -6
BITMAP
0C00
1E00
1E00
0C00
0000
0000
1E00
7F80
71C0
E0C0
C0C0
C0C0
C0C0
C0C0
C0C0
C0C0
C0C0
C0C0
E0C0
71C0
7FC0
1FC0
00C0
00C0
E0C0
71C0
7F80
1E00
ENDCHAR
STARTCHAR 0122
ENCODING 290
SWIDTH 548 0
DWIDTH 16 0
BBX 13 29 2 -7
BITMAP
0F80
3FC0
70E0
E070
C030
C030
C038
C020
C000
C000
C1F8
C3F8
C038
C038
C038
C038
C030
C030
E070
70E0
3FC0
0F80
0000
0400
0E00
1E00
3C00
3800
1000
ENDCHAR
STARTCHAR 0123
ENCODING 291
SWIDTH 548 0
DWIDTH 16 0
BBX 10 29 3 -6
BITMAP
0100
0180
0380
0F00
0600
0400
0000
1E00
7F80
61C0
E0C0
C0C0
C0C0
C0C0
C0C0
C0C0
C0C0
C0C0
C0C0
E0C0
71C0
7FC0
1FC0
00C0
00C0
E0C0
71C0
7F80
1E00
ENDCHAR
STARTCHAR 0124
ENCODING 292
SWIDTH 548 0
DWIDTH 16 0
BBX 13 28 2 0
BITMAP
0200
0700
0F80
39C0
1080
0000
4018
C038
C038
C038
C038
C038
C038
C038
C038
C038
FFF8
FFF8
C038
C038
C038
C038
C038
C038
C038
C038
C038
8020
ENDCHAR
STARTCHAR 0125
ENCODING 293
SWIDTH 548 0
DWIDTH 16 0
BBX 10 23 3 0
BITMAP
0200
4700
CF80
DDC0
D8C0
C080
C000
DE00
FF80
E1C0
E0C0
C0C0
C0C0
C0C0
C0C0
C0C0
C0C0
C0C0
C0C0
C0C0
C0C0
C0C0
8080
ENDCHAR
STARTCHAR 0126
ENCODING 294
SWIDTH 548 0
DWIDTH 16 0
BBX 16 22 0 0
BITMAP
1002
300E
7FFF
FFFF
300E
300E
300E
300E
300E
300E
3FFE
3FFE
300E
300E
300E
300E
300E
300E
300E
300E
300E
2008
ENDCHAR
STARTCHAR 0127
ENCODING 295
SWIDTH 548 0
DWIDTH 16 0
BBX 13 22 0 0
BITMAP
0800
1800
7FC0
FF80
1800
1800
1BC0
1FF0
1C38
1C18
1818
1818
1818
1818
1818
1818
1818
1818
1818
1818
1818
1010
ENDCHAR
STARTCHAR 0128
ENCODING 296
SWIDTH 548 0
DWIDTH 16 0
BBX 12 28 2 0
BITMAP
0800
1C60
3FE0
77C0
2380
0000
0000
7FF0
FFF0
0600
0600
0600
0600
0600
0600
0600
0600
0600
0600
0600
0600
0600
0600
0600
0600
0600
7FF0
FFF0
ENDCHAR
STARTCHAR 0129
ENCODING 297
SWIDTH 548 0
DWIDTH 16 0
BBX 14 22 -1 0
BITMAP
0840
3CC0
7FC0
E780
4300
0000
0400
0C00
0C00
0C00
0C00
0C00
0C00
0C00
0C00
0C00
0C04
0C0C
0E0C
061C
07F8
01E0
ENDCHAR
STARTCHAR 012A
ENCODING 298
SWIDTH 548 0
DWIDTH 16 0
BBX 12 25 2 0
BITMAP
3FE0
7FC0
0000
0000
7FF0
FFF0
0600
0600
0600
0600
0600
0600
0600
0600
0600
0600
0600
0600
0600
0600
0600
0600
0600
7FF0
FFF0
ENDCHAR
STARTCHAR 012B
ENCODING 299
SWIDTH 548 0
DWIDTH 16 0
BBX 14 20 -1 0
BITMAP
7FC0
FF80
0000
0000
0400
0C00
0C00
0C00
0C00
0C00
0C00
0C00
0C00
0C00
0C04
0C0C
0E0C
061C
07F8
01E0
ENDCHAR
STARTCHAR 012C
ENCODING 300
SWIDTH 548 0
DWIDTH 16 0
BBX 12 26 2 0
BITMAP
18C0
3FC0
0F00
0000
0000
7FF0
FFF0
0600
0600
0600
0600
0600
0600
0600
0600
0600
0600
0600
0600
0600
0600
0600
0600
0600
7FF0
FFF0
ENDCHAR
STARTCHAR 012D
ENCODING 301
SWIDTH 548 0
DWIDTH 16 0
BBX 13 22 0 0
BITMAP
4200
E700
7F00
3C00
0000
0000
0800
1800
1800
1800
1800
1800
1800
1800
1800
1800
1808
1818
1C18
0C38
0FF0
03C0
ENDCHAR
STARTCHAR 012E
ENCODING 302
SWIDTH 548 0
DWIDTH 16 0
BBX 12 28 2 -7
BITMAP
7FF0
FFF0
0600
0600
0600
0600
0600
0600
0600
0600
0600
0600
0600
0600
0600
0600
0600
0600
0600
7FF0
FFF0
0700
0600
0E00
0C00
0F00
0780
0180
ENDCHAR
STARTCHAR 012F
ENCODING 303
SWIDTH 548 0
DWIDTH 16 0
BBX 11 29 2 -7
BITMAP
6000
F000
F000
6000
0000
0000
2000
6000
6000
6000
6000
6000
6000
6000
6000
6000
6020
6060
7060
78E0
3FC0
1F80
0700
0700
0600
0E00
0F00
0780
0180
ENDCHAR
STARTCHAR 0130
ENCODING 304
SWIDTH 548 0
DWIDTH 16 0
BBX 12 27 2 0
BITMAP
0600
0F00
0F00
0600
0000
0000
7FF0
FFF0
0600
0600
0600
0600
0600
0600
0600
0600
0600
0600
0600
0600
0600
0600
0600
0600
0600
7FF0
FFF0
ENDCHAR
STARTCHAR 0131
ENCODING 305
SWIDTH 548 0
DWIDTH 16 0
BBX 10 16 3 0
BITMAP
4000
C000
C000
C000
C000
C000
C000
C000
C000
C000
C040
C0C0
E0C0
61C0
7F80
1E00
ENDCHAR
STARTCHAR 0132
ENCODING 306
SWIDTH 548 0
DWIDTH 16 0
BBX 16 21 0 0
BITMAP
7F7F
FEFF
1807
1807
1807
1807
1807
1807
1807
1807
1807
1807
1807
1807
1807
1807
1807
18C7
18E6
7F7E
FE3C
ENDCHAR
STARTCHAR 0133
ENCODING 307
SWIDTH 548 0
DWIDTH 16 0
BBX 12 28 2 -6
BITMAP
6070
F070
F070
6070
0000
0000
2030
6070
6070
6070
6070
6070
6070
6070
6070
6070
6070
61F0
63F0
7370
3F70
1E70
0070
0060
1060
38E0
3FC0
0F80
ENDCHAR
STARTCHAR 0134
ENCODING 308
SWIDTH 548 0
DWIDTH 16 0
BBX 13 28 2 0
BITMAP
0200
0700
0F80
39C0
1080
0000
0000
1FF8
3FF8
0038
0038
0038
0038
0038
0038
0038
0038
0038
0038
0038
0038
C038
C030
C030
E070
70E0
3FC0
0F80
ENDCHAR
STARTCHAR 0135
ENCODING 309
SWIDTH 548 0
DWIDTH 16 0
BBX 13 28 3 -6
BITMAP
0040
01E0
03F0
0338
0210
0000
0040
00C0
00C0
00C0
00C0
00C0
00C0
00C0
00C0
00C0
C0C0
C0C0
C0C0
C0C0
C0C0
C0C0
C0C0
C0C0
E0C0
61C0
7F80
1E00
ENDCHAR
STARTCHAR 0136
ENCODING 310
SWIDTH 548 0
DWIDTH 16 0
BBX 13 29 2 -7
BITMAP
4060
C070
C0E0
C1C0
C1C0
C380
C700
CF00
CE00
DC00
FF80
FFC0
F0E0
E070
C030
C030
C038
C038
C038
C038
C038
8020
0000
0400
0E00
1E00
3C00
3800
1000
ENDCHAR
STARTCHAR 0137
ENCODING 311
SWIDTH 548 0
DWIDTH 16 0
BBX 10 29 3 -7
BITMAP
4000
C000
C000
C000
C000
C000
C080
C1C0
C380
C700
CE00
DE00
FF80
FFC0
E1C0
C0C0
C0C0
C0C0
C0C0
C0C0
C0C0
8080
0000
0800
1C00
3C00
7800
7000
2000
ENDCHAR
STARTCHAR 0138
ENCODING 312
SWIDTH 548 0
DWIDTH 16 0
BBX 10 16 3 0
BITMAP
4080
C1C0
C380
C700
CE00
DE00
FF80
FFC0
E1C0
C0C0
C0C0
C0C0
C0C0
C0C0
C0C0
8080
ENDCHAR
STARTCHAR 0139
ENCODING 313
SWIDTH 548 0
DWIDTH 16 0
BBX 12 29 2 0
BITMAP
0800
1800
3800
7000
6000
6000
4000
4000
C000
C000
C000
C000
C000
C000
C000
C000
C000
C000
C000
C000
C000
C000
C000
C000
C000
C000
C000
FFF0
FFF0
ENDCHAR
STARTCHAR 013A
ENCODING 314
SWIDTH 548 0
DWIDTH 16 0
BBX 10 29 3 0
BITMAP
1000
1800
3800
7000
E000
C000
8000
4000
C000
C000
C000
C000
C000
C000
C000
C000
C000
C000
C000
C000
C000
C000
C000
C040
C0C0
E0C0
61C0
7F80
1E00
ENDCHAR
STARTCHAR 013B
ENCODING 315
SWIDTH 548 0
DWIDTH 16 0
BBX 12 29 2 -7
BITMAP
4000
C000
C000
C000
C000
C000
C000
C000
C000
C000
C000
C000
C000
C000
C000
C000
C000
C000
C000
C000
FFF0
FFF0
0000
0400
0E00
1E00
3C00
3800
1000
ENDCHAR
STARTCHAR 013C
ENCODING 316
SWIDTH 548 0
DWIDTH 16 0
BBX 10 29 3 -7
BITMAP
4000
C000
C000
C000
C000
C000
C000
C000
C000
C000
C000
C000
C000
C000
C000
C000
C040
C0C0
E0C0
61C0
7F80
1E00
0000
0800
1C00
3C00
7800
7000
2000
ENDCHAR
STARTCHAR 013D
ENCODING 317
SWIDTH 548 0
DWIDTH 16 0
BBX 12 23 2 0
BITMAP
0080
40C0
C1C0
C780
C300
C200
C000
C000
C000
C000
C000
C000
C000
C000
C000
C000
C000
C000
C000
C000
C000
FFF0
FFF0
ENDCHAR
STARTCHAR 013E
ENCODING 318
SWIDTH 548 0
DWIDTH 16 0
BBX 10 23 3 0
BITMAP
0100
4180
C380
CF00
C600
C400
C000
C000
C000
C000
C000
C000
C000
C000
C000
C000
C000
C040
C0C0
E0C0
61C0
7F80
1E00
ENDCHAR
STARTCHAR 013F
ENCODING 319
SWIDTH 548 0
DWIDTH 16 0
BBX 12 22 2 0
BITMAP
4600
CF00
CF00
C600
C000
C000
C000
C000
C000
C000
C000
C000
C000
C000
C000
C000
C000
C000
C000
C000
FFF0
FFF0
ENDCHAR
STARTCHAR 0140
ENCODING 320
SWIDTH 548 0
DWIDTH 16 0
BBX 10 22 3 0
BITMAP
4C00
DE00
DE00
CC00
C000
C000
C000
C000
C000
C000
C000
C000
C000
C000
C000
C000
C040
C0C0
E0C0
61C0
7F80
1E00
ENDCHAR
STARTCHAR 0141
ENCODING 321
SWIDTH 548 0
DWIDTH 16 0
BBX 14 22 0 0
BITMAP
1000
3000
3000
3000
3000
3000
3180
33C0
3780
3F00
3E00
3C00
7800
F000
F000
3000
3000
3000
3000
3000
3FFC
3FFC
ENDCHAR
STARTCHAR 0142
ENCODING 322
SWIDTH 548 0
DWIDTH 16 0
BBX 12 22 1 0
BITMAP
1000
3000
3000
3000
3000
3000
3180
3380
3700
3E00
3C00
3800
7000
F000
F000
3000
3010
3030
3830
1C70
1FE0
0780
ENDCHAR
STARTCHAR 0143
ENCODING 323
SWIDTH 548 0
DWIDTH 16 0
BBX 13 29 2 0
BITMAP
0080
00C0
01C0
0380
0700
0200
0200
0F80
3FC0
70E0
E070
C030
C030
C038
C038
C038
C038
C038
C038
C038
C038
C038
C038
C038
C038
C038
C038
C038
8020
ENDCHAR
STARTCHAR 0144
ENCODING 324
SWIDTH 548 0
DWIDTH 16 0
BBX 10 23 3 0
BITMAP
0100
0180
0380
0F00
0600
0400
0000
1E00
7F80
71C0
E0C0
C0C0
C0C0
C0C0
C0C0
C0C0
C0C0
C0C0
C0C0
C0C0
C0C0
C0C0
8080
ENDCHAR
STARTCHAR 0145
ENCODING 325
SWIDTH 548 0
DWIDTH 16 0
BBX 13 29 2 -7
BITMAP
0F80
3FC0
70E0
E070
C030
C030
C038
C038
C038
C038
C038
C038
C038
C038
C038
C038
C038
C038
C038
C038
C038
8020
0000
0400
0E00
1E00
3C00
3800
1000
ENDCHAR
STARTCHAR 0146
ENCODING 326
SWIDTH 548 0
DWIDTH 16 0
BBX 10 23 3 -7
BITMAP
1E00
7F80
71C0
E0C0
C0C0
C0C0
C0C0
C0C0
C0C0
C0C0
C0C0
C0C0
C0C0
C0C0
C0C0
8080
0000
0800
1C00
3C00
7800
7000
2000
ENDCHAR
STARTCHAR 0147
ENCODING 327
SWIDTH 548 0
DWIDTH 16 0
BBX 13 28 2 0
BITMAP
1080
19C0
1F80
0F00
0600
0000
0F80
3FC0
70E0
E070
C030
C030
C038
C038
C038
C038
C038
C038
C038
C038
C038
C038
C038
C038
C038
C038
C038
8020
ENDCHAR
STARTCHAR 0148
ENCODING 328
SWIDTH 548 0
DWIDTH 16 0
BBX 10 22 3 0
BITMAP
2100
3380
3F00
1E00
0C00
0000
1E00
7F80
71C0
E0C0
C0C0
C0C0
C0C0
C0C0
C0C0
C0C0
C0C0
C0C0
C0C0
C0C0
C0C0
8080
ENDCHAR
STARTCHAR 0149
ENCODING 329
SWIDTH 548 0
DWIDTH 16 0
BBX 13 18 0 0
BITMAP
1000
3800
7BC0
FFF0
EE38
5C18
1818
1818
1818
1818
1818
1818
1818
1818
1818
1818
1818
1010
ENDCHAR
STARTCHAR 014A
ENCODING 330
SWIDTH 548 0
DWIDTH 16 0
BBX 13 28 2 -6
BITMAP
0F80
3FC0
70E0
E070
C030
C030
C038
C038
C038
C038
C038
C038
C038
C038
C038
C038
C038
C038
C038
C038
C038
8038
0038
0030
0030
0470
1FE0
0780
ENDCHAR
STARTCHAR 014B
ENCODING 331
SWIDTH 548 0
DWIDTH 16 0
BBX 10 22 3 -6
BITMAP
1E00
7F80
71C0
E0C0
C0C0
C0C0
C0C0
C0C0
C0C0
C0C0
C0C0
C0C0
C0C0
C0C0
C0C0
80C0
00C0
00C0
00C0
00C0
0FC0
0780
ENDCHAR
STARTCHAR 014C
ENCODING 332
SWIDTH 548 0
DWIDTH 16 0
BBX 13 25 2 0
BITMAP
3FE0
7FC0
0000
0F80
3FC0
70E0
E070
C030
C030
C038
C038
C038
C038
C038
C038
C038
C038
C038
C038
C030
C030
E070
70E0
3FC0
0F80
ENDCHAR
STARTCHAR 014D
ENCODING 333
SWIDTH 548 0
DWIDTH 16 0
BBX 10 20 3 0
BITMAP
7FC0
FF80
0000
0000
1E00
7F80
61C0
E0C0
C0C0
C0C0
C0C0
C0C0
C0C0
C0C0
C0C0
C0C0
E0C0
71C0
7F80
1E00
ENDCHAR
STARTCHAR 014E
ENCODING 334
SWIDTH 548 0
DWIDTH 16 0
BBX 13 26 2 0
BITMAP
18C0
3FC0
0F00
0000
0F80
3FC0
70E0
E070
C030
C030
C038
C038
C038
C038
C038
C038
C038
C038
C038
C038
C030
C030
E070
70E0
3FC0
0F80
ENDCHAR
STARTCHAR 014F
ENCODING 335
SWIDTH 548 0
DWIDTH 16 0
BBX 10 21 3 0
BITMAP
3180
3F80
1F00
0000
0000
1E00
7F80
61C0
E0C0
C0C0
C0C0
C0C0
C0C0
C0C0
C0C0
C0C0
C0C0
E0C0
71C0
7F80
1E00
ENDCHAR
STARTCHAR 0150
ENCODING 336
SWIDTH 548 0
DWIDTH 16 0
BBX 13 29 2 0
BITMAP
0210
0218
0738
0E70
1CE0
1840
1040
0F80
3FC0
70E0
E070
C030
C030
C038
C038
C038
C038
C038
C038
C038
C038
C038
C038
C030
C030
E070
70E0
3FC0
0F80
ENDCHAR
STARTCHAR 0151
ENCODING 337
SWIDTH 548 0
DWIDTH 16 0
BBX 12 23 3 0
BITMAP
0420
0C70
1CF0
39E0
3180
2100
0000
1E00
7F80
61C0
E0C0
C0C0
C0C0
C0C0
C0C0
C0C0
C0C0
C0C0
C0C0
E0C0
71C0
7F80
1E00
ENDCHAR
STARTCHAR 0152
ENCODING 338
SWIDTH 548 0
DWIDTH 16 0
BBX 14 22 2 0
BITMAP
3FF0
FFE0
C600
C600
C600
C600
C600
C600
C600
C600
C7F0
C7E0
C600
C600
C600
C600
C600
C600
C600
CE00
FFFC
7FF8
ENDCHAR
STARTCHAR 0153
ENCODING 339
SWIDTH 548 0
DWIDTH 16 0
BBX 13 16 2 0
BITMAP
79E0
FFF0
CF30
C638
C638
C638
C6F8
C7E0
C780
C600
C600
C618
C638
CF30
FFF0
79E0
ENDCHAR
STARTCHAR 0154
ENCODING 340
SWIDTH 548 0
DWIDTH 16 0
BBX 12 29 2 0
BITMAP
0080
00C0
01C0
0380
0700
0200
0200
0000
FF80
FFC0
C0E0
C070
C030
C030
C030
C030
C030
C070
C0E0
FFC0
FF80
C180
C1C0
C0C0
C0E0
C060
C070
C030
8020
ENDCHAR
STARTCHAR 0155
ENCODING 341
SWIDTH 548 0
DWIDTH 16 0
BBX 10 23 3 0
BITMAP
0100
0180
0380
0F00
0600
0400
0000
1E00
7F80
71C0
E0C0
C0C0
C0C0
C000
C000
C000
C000
C000
C000
C000
C000
C000
8000
ENDCHAR
STARTCHAR 0156
ENCODING 342
SWIDTH 548 0
DWIDTH 16 0
BBX 12 28 2 -7
BITMAP
FF80
FFC0
C0E0
C070
C030
C030
C030
C030
C030
C070
C0E0
FFC0
FF80
C180
C1C0
C0C0
C0E0
C060
C070
C030
8020
0000
0400
0E00
1E00
3C00
3800
1000
ENDCHAR
STARTCHAR 0157
ENCODING 343
SWIDTH 548 0
DWIDTH 16 0
BBX 10 23 3 -7
BITMAP
1E00
7F80
71C0
E0C0
C0C0
C0C0
C000
C000
C000
C000
C000
C000
C000
C000
C000
8000
0000
0800
1C00
3C00
7800
7000
2000
ENDCHAR
STARTCHAR 0158
ENCODING 344
SWIDTH 548 0
DWIDTH 16 0
BBX 12 28 2 0
BITMAP
1080
19C0
1F80
0F00
0600
0000
0000
FF80
FFC0
C0E0
C070
C030
C030
C030
C030
C030
C070
C0E0
FFC0
FF80
C180
C1C0
C0C0
C0E0
C060
C070
C030
8020
ENDCHAR
STARTCHAR 0159
ENCODING 345
SWIDTH 548 0
DWIDTH 16 0
BBX 10 22 3 0
BITMAP
2100
3380
3F00
1E00
0C00
0000
1E00
7F80
71C0
E0C0
C0C0
C0C0
C000
C000
C000
C000
C000
C000
C000
C000
C000
8000
ENDCHAR
STARTCHAR 015A
ENCODING 346
SWIDTH 548 0
DWIDTH 16 0
BBX 13 29 2 0
BITMAP
0080
00C0
01C0
0380
0700
0200
0200
1F00
3F80
71C0
60E0
E060
E060
6000
7000
7C00
3F80
0FC0
00E0
0070
0030
0030
C038
C030
C030
E070
70E0
3FC0
0F80
ENDCHAR
STARTCHAR 015B
ENCODING 347
SWIDTH 548 0
DWIDTH 16 0
BBX 10 23 3 0
BITMAP
0100
0180
0380
0F00
0600
0400
0000
1E00
3F00
7380
6180
6000
7000
3F00
1F80
01C0
00C0
C0C0
C0C0
E0C0
71C0
3F80
1F00
ENDCHAR
STARTCHAR 015C
ENCODING 348
SWIDTH 548 0
DWIDTH 16 0
BBX 13 28 2 0
BITMAP
0200
0700
0F80
39C0
1080
0000
1F00
3F80
71C0
60E0
E060
E060
6000
7000
7C00
3F80
0FC0
00E0
0070
0030
0030
C038
C030
C030
E070
70E0
3FC0
0F80
ENDCHAR
STARTCHAR 015D
ENCODING 349
SWIDTH 548 0
DWIDTH 16 0
BBX 10 22 3 0
BITMAP
0C00
1E00
3F00
3380
2100
0000
1E00
3F00
7380
6180
6000
7000
3F00
1F80
01C0
00C0
C0C0
C0C0
E0C0
71C0
3F80
1F00
ENDCHAR
STARTCHAR 015E
ENCODING 350
SWIDTH 548 0
DWIDTH 16 0
BBX 13 29 2 -7
BITMAP
1F00
3F80
71C0
60E0
E060
E060
6000
7000
7800
3F80
0FC0
01E0
0070
0030
0030
C038
C030
C030
E070
70E0
3FE0
1F80
0600
0700
0300
0300
0700
0F00
0800
ENDCHAR
STARTCHAR 015F
ENCODING 351
SWIDTH 548 0
DWIDTH 16 0
BBX 10 23 3 -7
BITMAP
1E00
3F00
7380
6180
6000
7000
3F00
1F80
03C0
00C0
C0C0
C0C0
E0C0
71C0
7F80
3F00
0C00
0E00
0600
0600
0E00
1E00
1000
ENDCHAR
STARTCHAR 0160
ENCODING 352
SWIDTH 548 0
DWIDTH 16 0
BBX 13 28 2 0
BITMAP
1080
19C0
1F80
0F00
0600
0000
1F00
3F80
71C0
60E0
E060
E060
6000
7000
7C00
3F80
0FC0
00E0
0070
0030
0030
C038
C030
C030
E070
70E0
3FC0
0F80
ENDCHAR
STARTCHAR 0161
ENCODING 353
SWIDTH 548 0
DWIDTH 16 0
BBX 10 22 3 0
BITMAP
2100
3380
3F00
1E00
0C00
0000
1E00
3F00
7380
6180
6000
7000
3F00
1F80
01C0
00C0
C0C0
C0C0
E0C0
71C0
3F80
1F00
ENDCHAR
STARTCHAR 0162
ENCODING 354
SWIDTH 548 0
DWIDTH 16 0
BBX 14 28 1 -7
BITMAP
FFFC
FFFC
0300
0300
0300
0300
0300
0300
0300
0300
0300
0300
0300
0300
0300
0300
0300
0300
0300
0300
0300
0300
0380
0180
0180
0380
0780
0400
ENDCHAR
STARTCHAR 0163
ENCODING 355
SWIDTH 548 0
DWIDTH 16 0
BBX 12 29 1 -7
BITMAP
1000
3000
3000
3000
3000
3000
3000
7FE0
FFE0
3000
3000
3000
3000
3000
3000
3000
3010
3030
3030
3870
1FE0
0FC0
0300
0380
0180
0180
0380
0780
0400
ENDCHAR
STARTCHAR 0164
ENCODING 356
SWIDTH 548 0
DWIDTH 16 0
BBX 14 28 1 0
BITMAP
0840
0CE0
0FC0
0780
0300
0000
0000
FFFC
FFFC
0300
0300
0300
0300
0300
0300
0300
0300
0300
0300
0300
0300
0300
0300
0300
0300
0300
0300
0200
ENDCHAR
STARTCHAR 0165
ENCODING 357
SWIDTH 548 0
DWIDTH 16 0
BBX 12 23 1 0
BITMAP
0040
1060
30E0
33C0
3180
3100
3000
7FE0
FFE0
3000
3000
3000
3000
3000
3000
3000
3000
3030
3030
3830
1C70
0FE0
0780
ENDCHAR
STARTCHAR 0166
ENCODING 358
SWIDTH 548 0
DWIDTH 16 0
BBX 14 21 1 0
BITMAP
FFFC
FFFC
0300
0300
0300
0300
1FF0
3FE0
0300
0300
0300
0300
0300
0300
0300
0300
0300
0300
0300
0300
0200
ENDCHAR
STARTCHAR 0167
ENCODING 359
SWIDTH 548 0
DWIDTH 16 0
BBX 12 22 1 0
BITMAP
1000
3000
3000
3000
3000
3000
7FE0
FFE0
3000
3000
3000
7F80
FF80
3000
3000
3000
3030
3030
3830
1C70
1FE0
0780
ENDCHAR
STARTCHAR 0168
ENCODING 360
SWIDTH 548 0
DWIDTH 16 0
BBX 13 28 2 0
BITMAP
0800
1C60
3FE0
77C0
2380
0000
4018
C038
C038
C038
C038
C038
C038
C038
C038
C038
C038
C038
C038
C038
C038
C038
C030
C030
E070
70E0
3FC0
0F80
ENDCHAR
STARTCHAR 0169
ENCODING 361
SWIDTH 548 0
DWIDTH 16 0
BBX 10 22 3 0
BITMAP
1840
3CC0
7FC0
E780
4300
0000
4040
C0C0
C0C0
C0C0
C0C0
C0C0
C0C0
C0C0
C0C0
C0C0
C0C0
C0C0
E0C0
61C0
7F80
1E00
ENDCHAR
STARTCHAR 016A
ENCODING 362
SWIDTH 548 0
DWIDTH 16 0
BBX 13 25 2 0
BITMAP
3FE0
7FC0
0000
4018
C038
C038
C038
C038
C038
C038
C038
C038
C038
C038
C038
C038
C038
C038
C038
C030
C030
E070
70E0
3FC0
0F80
ENDCHAR
STARTCHAR 016B
ENCODING 363
SWIDTH 548 0
DWIDTH 16 0
BBX 10 20 3 0
BITMAP
7FC0
FF80
0000
0000
4040
C0C0
C0C0
C0C0
C0C0
C0C0
C0C0
C0C0
C0C0
C0C0
C0C0
C0C0
E0C0
61C0
7F80
1E00
ENDCHAR
STARTCHAR 016C
ENCODING 364
SWIDTH 548 0
DWIDTH 16 0
BBX 13 26 2 0
BITMAP
18C0
3FC0
0F00
0000
4018
C038
C038
C038
C038
C038
C038
C038
C038
C038
C038
C038
C038
C038
C038
C038
C030
C030
E070
70E0
3FC0
0F80
ENDCHAR
STARTCHAR 016D
ENCODING 365
SWIDTH 548 0
DWIDTH 16 0
BBX 10 21 3 0
BITMAP
3180
3F80
1F00
0000
0000
4040
C0C0
C0C0
C0C0
C0C0
C0C0
C0C0
C0C0
C0C0
C0C0
C0C0
C0C0
E0C0
61C0
7F80
1E00
ENDCHAR
STARTCHAR 016E
ENCODING 366
SWIDTH 548 0
DWIDTH 16 0
BBX 13 29 2 0
BITMAP
0F00
1F80
1980
1980
1980
1F80
0F00
4018
C038
C038
C038
C038
C038
C038
C038
C038
C038
C038
C038
C038
C038
C038
C038
C030
C030
E070
70E0
3FC0
0F80
ENDCHAR
STARTCHAR 016F
ENCODING 367
SWIDTH 548 0
DWIDTH 16 0
BBX 10 24 3 0
BITMAP
1E00
3F00
3300
3300
3300
3F00
1E00
0000
4040
C0C0
C0C0
C0C0
C0C0
C0C0
C0C0
C0C0
C0C0
C0C0
C0C0
C0C0
E0C0
61C0
7F80
1E00
ENDCHAR
STARTCHAR 0170
ENCODING 368
SWIDTH 548 0
DWIDTH 16 0
BBX 13 29 2 0
BITMAP
0210
0218
0738
0E70
1CE0
1840
1040
4018
C038
C038
C038
C038
C038
C038
C038
C038
C038
C038
C038
C038
C038
C038
C038
C030
C030
E070
70E0
3FC0
0F80
ENDCHAR
STARTCHAR 0171
ENCODING 369
SWIDTH 548 0
DWIDTH 16 0
BBX 12 23 3 0
BITMAP
0420
0C70
1CF0
39E0
3180
2100
0000
4040
C0C0
C0C0
C0C0
C0C0
C0C0
C0C0
C0C0
C0C0
C0C0
C0C0
C0C0
E0C0
61C0
7F80
1E00
ENDCHAR
STARTCHAR 0172
ENCODING 370
SWIDTH 548 0
DWIDTH 16 0
BBX 13 29 2 -7
BITMAP
4018
C038
C038
C038
C038
C038
C038
C038
C038
C038
C038
C038
C038
C038
C038
C038
C030
C030
E070
70E0
3FC0
0FC0
0180
0180
0380
0300
03C0
03E0
0060
ENDCHAR
STARTCHAR 0173
ENCODING 371
SWIDTH 548 0
DWIDTH 16 0
BBX 10 23 3 -7
BITMAP
4040
C0C0
C0C0
C0C0
C0C0
C0C0
C0C0
C0C0
C0C0
C0C0
C0C0
C0C0
E0C0
61C0
7F80
1F80
0300
0700
0600
0600
0700
0780
0080
ENDCHAR
STARTCHAR 0174
ENCODING 372
SWIDTH 548 0
DWIDTH 16 0
BBX 13 28 2 0
BITMAP
0200
0700
0F80
39C0
1080
0000
4208
C638
C638
C638
C638
C638
C638
C638
C638
C638
C638
C638
C638
C638
C638
C638
C638
C638
C638
CF30
FFF0
79E0
ENDCHAR
STARTCHAR 0175
ENCODING 373
SWIDTH 548 0
DWIDTH 16 0
BBX 13 22 2 0
BITMAP
0600
0F00
1F80
19C0
1080
0000
4208
C638
C638
C638
C638
C638
C638
C638
C638
C638
C638
C638
C638
CF30
FFF0
79E0
ENDCHAR
STARTCHAR 0176
ENCODING 374
SWIDTH 548 0
DWIDTH 16 0
BBX 13 28 2 0
BITMAP
0200
0700
0F80
39C0
1080
0000
4018
C038
C038
C038
C038
C038
C038
C038
C038
C038
C030
C030
E070
70E0
3FC0
1F80
0600
0600
0600
0600
0600
0400
ENDCHAR
STARTCHAR 0177
ENCODING 375
SWIDTH 548 0
DWIDTH 16 0
BBX 10 28 3 -6
BITMAP
0C00
1E00
3F00
3380
2100
0000
4040
C0C0
C0C0
C0C0
C0C0
C0C0
C0C0
C0C0
C0C0
C0C0
C0C0
C0C0
E0C0
61C0
7FC0
1FC0
00C0
00C0
E0C0
71C0
7F80
1E00
ENDCHAR
STARTCHAR 0178
ENCODING 376
SWIDTH 548 0
DWIDTH 16 0
BBX 13 27 2 0
BITMAP
30E0
78E0
78E0
30E0
0000
4018
C038
C038
C038
C038
C038
C038
C038
C038
C038
C030
C030
E070
70E0
3FC0
1F80
0600
0600
0600
0600
0600
0400
ENDCHAR
STARTCHAR 0179
ENCODING 377
SWIDTH 548 0
DWIDTH 16 0
BBX 13 29 2 0
BITMAP
0080
00C0
01C0
0380
0700
0200
0200
0000
7FF0
FFF0
00E0
00E0
00C0
01C0
0180
0380
0300
0700
0600
0E00
0C00
1C00
1800
3800
3000
7000
6000
FFF8
FFF0
ENDCHAR
STARTCHAR 017A
ENCODING 378
SWIDTH 548 0
DWIDTH 16 0
BBX 11 23 3 0
BITMAP
0100
0180
0380
0F00
0600
0400
0000
0000
7FE0
FFC0
0180
0380
0300
0700
0E00
0E00
1C00
1800
3800
7000
7000
FFE0
FFC0
ENDCHAR
STARTCHAR 017B
ENCODING 379
SWIDTH 548 0
DWIDTH 16 0
BBX 13 27 2 0
BITMAP
0600
0F00
0F00
0600
0000
0000
7FF0
FFF0
00E0
00E0
00C0
01C0
0180
0380
0300
0700
0600
0E00
0C00
1C00
1800
3800
3000
7000
6000
FFF8
FFF0
ENDCHAR
STARTCHAR 017C
ENCODING 380
SWIDTH 548 0
DWIDTH 16 0
BBX 11 22 3 0
BITMAP
0C00
1E00
1E00
0C00
0000
0000
0000
7FE0
FFC0
0180
0380
0300
0700
0E00
0E00
1C00
1800
3800
7000
7000
FFE0
FFC0
ENDCHAR
STARTCHAR 017D
ENCODING 381
SWIDTH 548 0
DWIDTH 16 0
BBX 13 28 2 0
BITMAP
1080
19C0
1F80
0F00
0600
0000
0000
7FF0
FFF0
00E0
00E0
00C0
01C0
0180
0380
0300
0700
0600
0E00
0C00
1C00
1800
3800
3000
7000
6000
FFF8
FFF0
ENDCHAR
STARTCHAR 017E
ENCODING 382
SWIDTH 548 0
DWIDTH 16 0
BBX 11 22 3 0
BITMAP
2100
3380
3F00
1E00
0C00
0000
0000
7FE0
FFC0
0180
0380
0300
0700
0E00
0E00
1C00
1800
3800
7000
7000
FFE0
FFC0
ENDCHAR
STARTCHAR 017F
ENCODING 383
SWIDTH 548 0
DWIDTH 16 0
BBX 13 22 0 0
BITMAP
03C0
0FF0
0E38
1C18
1818
1818
1800
1800
1800
1800
7800
F800
1800
1800
1800
1800
1800
1800
1800
1800
1800
1000
ENDCHAR
STARTCHAR 0192
ENCODING 402
SWIDTH 548 0
DWIDTH 16 0
BBX 13 28 0 -6
BITMAP
03C0
0FF0
0E38
1C18
1818
1818
1800
1800
1800
1800
3FF0
7FE0
1800
1800
1800
1800
1800
1800
1800
1800
1800
1800
1800
1800
3800
7000
E000
C000
ENDCHAR
STARTCHAR 01C4
ENCODING 452
SWIDTH 548 0
DWIDTH 16 0
BBX 15 28 1 0
BITMAP
0080
00C6
00EE
007C
0030
0000
0000
FCFC
FEFC
E71C
E71C
E318
E318
E338
E338
E338
E330
E330
E370
E370
E370
E360
E360
E3E0
E7E0
E7E0
FEFC
FCFC
ENDCHAR
STARTCHAR 01C5
ENCODING 453
SWIDTH 548 0
DWIDTH 16 0
BBX 15 22 1 0
BITMAP
0084
FCCE
FEFC
E778
E730
E300
E300
E37C
E3FC
E31C
E318
E318
E338
E338
E330
E330
E370
E360
E760
E7E0
FEFC
FCFC
ENDCHAR
STARTCHAR 01C6
ENCODING 454
SWIDTH 548 0
DWIDTH 16 0
BBX 15 23 1 0
BITMAP
0080
01C4
07EE
077C
0738
0710
0700
3F7E
7FFC
E70C
C71C
C718
C718
C738
C738
C730
C730
C770
C760
C760
E6E0
7EFE
3CFC
ENDCHAR
STARTCHAR 01C7
ENCODING 455
SWIDTH 548 0
DWIDTH 16 0
BBX 14 22 1 0
BITMAP
C0FC
C1FC
C00C
C00C
C00C
C00C
C00C
C00C
C00C
C00C
C00C
C00C
C00C
C00C
C00C
C00C
C00C
C00C
C18C
C18C
FDF8
FCF0
ENDCHAR
STARTCHAR 01C8
ENCODING 456
SWIDTH 548 0
DWIDTH 16 0
BBX 12 28 2 -6
BITMAP
4070
C070
C070
C070
C000
C000
C030
C070
C070
C070
C070
C070
C070
C070
C070
C070
C070
C070
C070
C070
FF70
FE70
0070
0060
1060
38E0
3FC0
0F80
ENDCHAR
STARTCHAR 01C9
ENCODING 457
SWIDTH 548 0
DWIDTH 16 0
BBX 11 28 3 -6
BITMAP
40E0
C0E0
C0E0
C0E0
C000
C000
C060
C0E0
C0E0
C0E0
C0E0
C0E0
C0E0
C0E0
C0E0
C0E0
C0E0
C3E0
C7E0
E6E0
7EE0
3CE0
00E0
00C0
20C0
71C0
7F80
1F00
ENDCHAR
STARTCHAR 01CA
ENCODING 458
SWIDTH 548 0
DWIDTH 16 0
BBX 15 22 1 0
BITMAP
78FE
FDFE
CE0E
C60E
C60E
C60E
C60E
C60E
C60E
C60E
C60E
C60E
C60E
C60E
C60E
C60E
C60E
C68E
C6CE
C6CC
C6FC
8478
ENDCHAR
STARTCHAR 01CB
ENCODING 459
SWIDTH 548 0
DWIDTH 16 0
BBX 13 28 2 -6
BITMAP
3C30
7E78
E778
C330
C300
C300
C310
C330
C330
C330
C330
C330
C330
C330
C330
C330
C330
C330
C330
C330
C330
8230
0030
0030
1070
38E0
1FC0
0F80
ENDCHAR
STARTCHAR 01CC
ENCODING 460
SWIDTH 548 0
DWIDTH 16 0
BBX 13 28 2 -6
BITMAP
0030
0078
0078
0030
0000
0000
3C10
7E30
E730
E330
C330
C330
C330
C330
C330
C330
C330
C330
C330
C330
C330
8230
0030
0030
1070
38E0
1FC0
0F80
ENDCHAR
STARTCHAR 01E4
ENCODING 484
SWIDTH 548 0
DWIDTH 16 0
BBX 14 22 2 0
BITMAP
0F80
3FC0
70E0
E070
C030
C030
C038
C020
C000
C000
C1F8
C3F8
C038
C0FC
C1FC
C038
C030
C030
E070
70E0
3FC0
0F80
ENDCHAR
STARTCHAR 01E5
ENCODING 485
SWIDTH 548 0
DWIDTH 16 0
BBX 13 22 3 -6
BITMAP
1E00
7F80
61C0
E0C0
C0C0
C0C0
C0C0
C0C0
C0C0
C0C0
C0C0
C0C0
E0C0
71C0
7FC0
1FC0
00C0
07F8
E7F0
73C0
7F80
1E00
ENDCHAR
STARTCHAR 01F1
ENCODING 497
SWIDTH 548 0
DWIDTH 16 0
BBX 14 21 1 0
BITMAP
FCFC
FEFC
E71C
E71C
E318
E318
E338
E338
E338
E330
E330
E370
E370
E370
E360
E360
E3E0
E7E0
E7E0
FEFC
FCFC
ENDCHAR
STARTCHAR 01F2
ENCODING 498
SWIDTH 548 0
DWIDTH 16 0
BBX 14 21 1 0
BITMAP
FC00
FE00
E700
E700
E300
E300
E37C
E3FC
E31C
E318
E318
E338
E338
E330
E330
E370
E360
E760
E7E0
FEFC
FCFC
ENDCHAR
STARTCHAR 01F3
ENCODING 499
SWIDTH 548 0
DWIDTH 16 0
BBX 15 22 1 0
BITMAP
0100
0700
0700
0700
0700
0700
3F7E
7FFC
E70C
C71C
C718
C718
C738
C738
C730
C730
C770
C760
C760
E6E0
7EFE
3CFC
ENDCHAR
STARTCHAR 01FA
ENCODING 506
SWIDTH 548 0
DWIDTH 16 0
BBX 13 31 2 0
BITMAP
0040
00C0
01C0
0780
0300
0200
0F00
1F80
1980
1980
1980
1F80
0F00
0F80
3FC0
70E0
E070
C030
C030
C038
C038
C038
C038
FFF8
FFF8
C038
C038
C038
C038
C038
8020
ENDCHAR
STARTCHAR 01FB
ENCODING 507
SWIDTH 548 0
DWIDTH 16 0
BBX 10 29 3 0
BITMAP
0080
0180
0380
0F00
0600
0400
1E00
3F00
3300
3300
3300
3F00
1E00
1E00
3F80
71C0
E0C0
C0C0
C0C0
03C0
0FC0
7EC0
F8C0
E0C0
C0C0
C0C0
E0C0
7EC0
3EC0
ENDCHAR
STARTCHAR 01FC
ENCODING 508
SWIDTH 548 0
DWIDTH 16 0
BBX 14 29 2 0
BITMAP
0080
00C0
01C0
0380
0700
0200
0000
3FF0
FFE0
CE00
C600
C600
C600
C600
C600
C600
C600
FFF0
FFE0
C600
C600
C600
C600
C600
C600
C600
C600
C7FC
87F8
ENDCHAR
STARTCHAR 01FD
ENCODING 509
SWIDTH 548 0
DWIDTH 16 0
BBX 14 23 1 0
BITMAP
0040
0060
00E0
01C0
0380
0100
0000
1EF0
3FF8
739C
638C
430C
031C
037C
0FF0
3FC0
7B00
E300
E304
E30C
739C
7BF8
1BF0
ENDCHAR
STARTCHAR 01FE
ENCODING 510
SWIDTH 548 0
DWIDTH 16 0
BBX 14 30 1 -1
BITMAP
0040
0060
00E0
01C0
0380
0100
0100
078C
1FDC
3878
7038
6038
6078
607C
60FC
61DC
619C
639C
631C
671C
661C
6E1C
6C1C
7C18
7818
3038
7870
7FE0
E7C0
4000
ENDCHAR
STARTCHAR 01FF
ENCODING 511
SWIDTH 548 0
DWIDTH 16 0
BBX 14 24 1 -1
BITMAP
0040
0060
00E0
03C0
0180
0100
0008
079C
1FF8
18F8
3870
30F0
30F0
31F0
33B0
3730
3630
3E30
3C30
3830
3C70
7FE0
E780
4000
ENDCHAR
STARTCHAR 0200
ENCODING 512
SWIDTH 548 0
DWIDTH 16 0
BBX 14 29 1 0
BITMAP
4200
4300
E380
71C0
38C0
18C0
0840
07C0
1FE0
3870
7038
6018
6018
601C
601C
601C
601C
7FFC
7FFC
601C
601C
601C
601C
601C
601C
601C
601C
601C
4010
ENDCHAR
STARTCHAR 0201
ENCODING 513
SWIDTH 548 0
DWIDTH 16 0
BBX 11 23 2 0
BITMAP
8000
C600
E700
73C0
31C0
1080
0000
0F00
1FC0
38E0
7060
6060
6060
01E0
07E0
3F60
7C60
7060
6060
6060
7060
3F60
1F60
ENDCHAR
STARTCHAR 0202
ENCODING 514
SWIDTH 548 0
DWIDTH 16 0
BBX 13 26 2 0
BITMAP
0F00
1FC0
3080
0000
0F80
3FC0
70E0
E070
C030
C030
C038
C038
C038
C038
FFF8
FFF8
C038
C038
C038
C038
C038
C038
C038
C038
C038
8020
ENDCHAR
STARTCHAR 0203
ENCODING 515
SWIDTH 548 0
DWIDTH 16 0
BBX 10 21 3 0
BITMAP
1E00
3F80
3180
0000
0000
1E00
3F80
71C0
E0C0
C0C0
C0C0
03C0
0FC0
7EC0
F8C0
E0C0
C0C0
C0C0
E0C0
7EC0
3EC0
ENDCHAR
STARTCHAR 0204
ENCODING 516
SWIDTH 548 0
DWIDTH 16 0
BBX 14 29 1 0
BITMAP
4200
4300
E380
71C0
38C0
18C0
0840
0000
1FF0
3FF0
3000
3000
3000
3000
3000
3000
3000
3FF0
3FF0
3000
3000
3000
3000
3000
3000
3000
3000
3FFC
3FFC
ENDCHAR
STARTCHAR 0205
ENCODING 517
SWIDTH 548 0
DWIDTH 16 0
BBX 11 23 2 0
BITMAP
8000
C600
E700
73C0
31C0
1080
0000
0F00
3FC0
30E0
7060
6060
6060
61E0
6FC0
7F00
7800
6060
6060
7060
38E0
3FC0
0F00
ENDCHAR
STARTCHAR 0206
ENCODING 518
SWIDTH 548 0
DWIDTH 16 0
BBX 12 26 3 0
BITMAP
1E00
3F80
7180
0000
0000
7FC0
FFC0
C000
C000
C000
C000
C000
C000
C000
FFC0
FFC0
C000
C000
C000
C000
C000
C000
C000
C000
FFF0
FFF0
ENDCHAR
STARTCHAR 0207
ENCODING 519
SWIDTH 548 0
DWIDTH 16 0
BBX 10 21 3 0
BITMAP
1E00
3F80
3180
0000
0000
1E00
7F80
61C0
E0C0
C0C0
C0C0
C3C0
DF80
FE00
F000
C0C0
C0C0
E0C0
71C0
7F80
1E00
ENDCHAR
STARTCHAR 0208
ENCODING 520
SWIDTH 548 0
DWIDTH 16 0
BBX 13 29 1 0
BITMAP
4200
4300
E380
71C0
38C0
18C0
0840
0000
3FF8
7FF8
0300
0300
0300
0300
0300
0300
0300
0300
0300
0300
0300
0300
0300
0300
0300
0300
0300
3FF8
7FF8
ENDCHAR
STARTCHAR 0209
ENCODING 521
SWIDTH 548 0
DWIDTH 16 0
BBX 14 23 -1 0
BITMAP
8000
C700
E780
73C0
31C0
1080
0000
0400
0C00
0C00
0C00
0C00
0C00
0C00
0C00
0C00
0C00
0C04
0C0C
0E0C
061C
07F8
01E0
ENDCHAR
STARTCHAR 020A
ENCODING 522
SWIDTH 548 0
DWIDTH 16 0
BBX 12 26 2 0
BITMAP
0F00
1FC0
38C0
0000
0000
7FF0
FFF0
0600
0600
0600
0600
0600
0600
0600
0600
0600
0600
0600
0600
0600
0600
0600
0600
0600
7FF0
FFF0
ENDCHAR
STARTCHAR 020B
ENCODING 523
SWIDTH 548 0
DWIDTH 16 0
BBX 13 22 0 0
BITMAP
3C00
FE00
E700
0000
0000
0000
0800
1800
1800
1800
1800
1800
1800
1800
1800
1800
1808
1818
1C18
0C38
0FF0
03C0
ENDCHAR
STARTCHAR 020C
ENCODING 524
SWIDTH 548 0
DWIDTH 16 0
BBX 14 29 1 0
BITMAP
4200
4300
E380
71C0
38C0
18C0
0840
07C0
1FE0
3870
7038
6018
6018
601C
601C
601C
601C
601C
601C
601C
601C
601C
601C
6018
6018
7038
3870
1FE0
07C0
ENDCHAR
STARTCHAR 020D
ENCODING 525
SWIDTH 548 0
DWIDTH 16 0
BBX 11 23 2 0
BITMAP
8000
C600
E700
73C0
31C0
1080
0000
0F00
3FC0
30E0
7060
6060
6060
6060
6060
6060
6060
6060
6060
7060
38E0
3FC0
0F00
ENDCHAR
STARTCHAR 020E
ENCODING 526
SWIDTH 548 0
DWIDTH 16 0
BBX 13 26 2 0
BITMAP
0F00
1FC0
3080
0000
0F80
3FC0
70E0
E070
C030
C030
C038
C038
C038
C038
C038
C038
C038
C038
C038
C038
C030
C030
E070
70E0
3FC0
0F80
ENDCHAR
STARTCHAR 020F
ENCODING 527
SWIDTH 548 0
DWIDTH 16 0
BBX 10 21 3 0
BITMAP
1E00
3F80
3180
0000
0000
1E00
7F80
61C0
E0C0
C0C0
C0C0
C0C0
C0C0
C0C0
C0C0
C0C0
C0C0
E0C0
71C0
7F80
1E00
ENDCHAR
STARTCHAR 0210
ENCODING 528
SWIDTH 548 0
DWIDTH 16 0
BBX 13 29 1 0
BITMAP
4200
4300
E380
71C0
38C0
18C0
0840
0000
7FC0
7FE0
6070
6038
6018
6018
6018
6018
6018
6038
6070
7FE0
7FC0
60C0
60E0
6060
6070
6030
6038
6018
4010
ENDCHAR
STARTCHAR 0211
ENCODING 529
SWIDTH 548 0
DWIDTH 16 0
BBX 11 23 2 0
BITMAP
8000
C600
E700
73C0
31C0
1080
0000
0F00
3FC0
38E0
7060
6060
6060
6000
6000
6000
6000
6000
6000
6000
6000
6000
4000
ENDCHAR
STARTCHAR 0212
ENCODING 530
SWIDTH 548 0
DWIDTH 16 0
BBX 12 26 2 0
BITMAP
0F00
1FC0
38C0
0000
0000
FF80
FFC0
C0E0
C070
C030
C030
C030
C030
C030
C070
C0E0
FFC0
FF80
C180
C1C0
C0C0
C0E0
C060
C070
C030
8020
ENDCHAR
STARTCHAR 0213
ENCODING 531
SWIDTH 548 0
DWIDTH 16 0
BBX 10 21 3 0
BITMAP
1E00
3F80
3180
0000
0000
1E00
7F80
71C0
E0C0
C0C0
C0C0
C000
C000
C000
C000
C000
C000
C000
C000
C000
8000
ENDCHAR
STARTCHAR 0214
ENCODING 532
SWIDTH 548 0
DWIDTH 16 0
BBX 14 29 1 0
BITMAP
4200
4300
E380
71C0
38C0
18C0
0840
200C
601C
601C
601C
601C
601C
601C
601C
601C
601C
601C
601C
601C
601C
601C
601C
6018
6018
7038
3870
1FE0
07C0
ENDCHAR
STARTCHAR 0215
ENCODING 533
SWIDTH 548 0
DWIDTH 16 0
BBX 11 23 2 0
BITMAP
8000
C600
E700
73C0
31C0
1080
0000
2020
6060
6060
6060
6060
6060
6060
6060
6060
6060
6060
6060
7060
30E0
3FC0
0F00
ENDCHAR
STARTCHAR 0216
ENCODING 534
SWIDTH 548 0
DWIDTH 16 0
BBX 13 26 2 0
BITMAP
0F00
1FC0
3080
0000
4018
C038
C038
C038
C038
C038
C038
C038
C038
C038
C038
C038
C038
C038
C038
C038
C030
C030
E070
70E0
3FC0
0F80
ENDCHAR
STARTCHAR 0217
ENCODING 535
SWIDTH 548 0
DWIDTH 16 0
BBX 10 21 3 0
BITMAP
1E00
3F80
3180
0000
0000
4040
C0C0
C0C0
C0C0
C0C0
C0C0
C0C0
C0C0
C0C0
C0C0
C0C0
C0C0
E0C0
61C0
7F80
1E00
ENDCHAR
STARTCHAR 0218
ENCODING 536
SWIDTH 548 0
DWIDTH 16 0
BBX 13 29 2 -7
BITMAP
1F00
3F80
71C0
60E0
E060
E060
6000
7000
7C00
3F80
0FC0
00E0
0070
0030
0030
C038
C030
C030
E070
70E0
3FC0
0F80
0000
0400
0E00
1E00
3C00
3800
1000
ENDCHAR
STARTCHAR 0219
ENCODING 537
SWIDTH 548 0
DWIDTH 16 0
BBX 10 23 3 -7
BITMAP
1E00
3F00
7380
6180
6000
7000
3F00
1F80
01C0
00C0
C0C0
C0C0
E0C0
71C0
3F80
1F00
0000
0800
1C00
3C00
7800
7000
2000
ENDCHAR
STARTCHAR 021A
ENCODING 538
SWIDTH 548 0
DWIDTH 16 0
BBX 14 28 1 -7
BITMAP
FFFC
FFFC
0300
0300
0300
0300
0300
0300
0300
0300
0300
0300
0300
0300
0300
0300
0300
0300
0300
0300
0200
0000
0200
0700
0F00
1E00
1C00
0800
ENDCHAR
STARTCHAR 021B
ENCODING 539
SWIDTH 548 0
DWIDTH 16 0
BBX 12 29 1 -7
BITMAP
1000
3000
3000
3000
3000
3000
7FE0
FFE0
3000
3000
3000
3000
3000
3000
3000
3000
3030
3030
3830
1C70
0FE0
0780
0000
0200
0700
0F00
1E00
1C00
0800
ENDCHAR
STARTCHAR 0237
ENCODING 567
SWIDTH 548 0
DWIDTH 16 0
BBX 10 22 3 -6
BITMAP
0040
00C0
00C0
00C0
00C0
00C0
00C0
00C0
00C0
00C0
C0C0
C0C0
C0C0
C0C0
C0C0
C0C0
C0C0
C0C0
E0C0
61C0
7F80
1E00
ENDCHAR
STARTCHAR 02C6
ENCODING 710
SWIDTH 548 0
DWIDTH 16 0
BBX 7 5 5 17
BITMAP
10
78
FC
CE
84
ENDCHAR
STARTCHAR 02C7
ENCODING 711
SWIDTH 548 0
DWIDTH 16 0
BBX 7 5 5 17
BITMAP
84
CE
FC
78
10
ENDCHAR
STARTCHAR 02C9
ENCODING 713
SWIDTH 548 0
DWIDTH 16 0
BBX 10 2 3 18
BITMAP
7FC0
FF80
ENDCHAR
STARTCHAR 02D8
ENCODING 728
SWIDTH 548 0
DWIDTH 16 0
BBX 7 3 5 18
BITMAP
C6
FE
78
ENDCHAR
STARTCHAR 02D9
ENCODING 729
SWIDTH 548 0
DWIDTH 16 0
BBX 4 4 6 18
BITMAP
60
F0
F0
60
ENDCHAR
STARTCHAR 02DA
ENCODING 730
SWIDTH 548 0
DWIDTH 16 0
BBX 6 7 5 17
BITMAP
78
FC
CC
CC
CC
FC
78
ENDCHAR
STARTCHAR 02DB
ENCODING 731
SWIDTH 548 0
DWIDTH 16 0
BBX 4 9 6 -7
BITMAP
40
60
60
E0
C0
C0
F0
F0
10
ENDCHAR
STARTCHAR 02DC
ENCODING 732
SWIDTH 548 0
DWIDTH 16 0
BBX 10 5 3 17
BITMAP
1080
3CC0
7F80
E700
4200
ENDCHAR
STARTCHAR 02DD
ENCODING 733
SWIDTH 548 0
DWIDTH 16 0
BBX 10 6 5 17
BITMAP
1080
31C0
73C0
E780
C600
8400
ENDCHAR
STARTCHAR 0308
ENCODING 776
SWIDTH 548 0
DWIDTH 16 0
BBX 10 4 3 18
BITMAP
61C0
F1C0
F1C0
61C0
ENDCHAR
STARTCHAR 0370
ENCODING 880
SWIDTH 548 0
DWIDTH 16 0
BBX 12 22 2 0
BITMAP
2000
E000
E000
E000
E000
E000
E000
E000
E000
E000
FFF0
FFE0
E000
E000
E000
E000
E000
E000
E000
E000
E000
C000
ENDCHAR
STARTCHAR 0371
ENCODING 881
SWIDTH 548 0
DWIDTH 16 0
BBX 10 16 3 0
BITMAP
2000
E000
E000
E000
E000
E000
E000
FFC0
FF80
E000
E000
E000
E000
E000
E000
C000
ENDCHAR
STARTCHAR 0372
ENCODING 882
SWIDTH 548 0
DWIDTH 16 0
BBX 15 21 1 0
BITMAP
FFFE
FFFE
C30E
C30E
C30E
C30E
830E
0308
0300
0300
0300
0300
0300
0300
0300
0300
0300
0300
0300
0300
0200
ENDCHAR
STARTCHAR 0373
ENCODING 883
SWIDTH 548 0
DWIDTH 16 0
BBX 11 21 3 0
BITMAP
FFE0
FFE0
CCE0
CCE0
CCE0
CCE0
8CE0
0C80
0C00
0C00
0C00
0C00
0C00
0C00
0C00
0C00
0C00
0C00
0C00
0C00
0800
ENDCHAR
STARTCHAR 0374
ENCODING 884
SWIDTH 548 0
DWIDTH 16 0
BBX 4 6 6 16
BITMAP
20
70
70
60
E0
60
ENDCHAR
STARTCHAR 0375
ENCODING 885
SWIDTH 548 0
DWIDTH 16 0
BBX 4 6 6 -5
BITMAP
20
70
70
60
E0
60
ENDCHAR
STARTCHAR 0376
ENCODING 886
SWIDTH 548 0
DWIDTH 16 0
BBX 13 22 2 0
BITMAP
4008
C038
C038
C078
C078
C0F8
C0F8
C1F8
C3B8
C338
C738
C638
CE38
CC38
DC38
D838
F838
F038
E038
E038
C038
8020
ENDCHAR
STARTCHAR 0377
ENCODING 887
SWIDTH 548 0
DWIDTH 16 0
BBX 10 16 3 0
BITMAP
4040
C0C0
C1C0
C1C0
C3C0
C7C0
C6C0
CEC0
CCC0
DCC0
F8C0
F0C0
F0C0
E0C0
C0C0
8080
ENDCHAR
STARTCHAR 037A
ENCODING 890
SWIDTH 548 0
DWIDTH 16 0
BBX 4 9 6 -7
BITMAP
40
60
60
E0
C0
C0
F0
F0
10
ENDCHAR
STARTCHAR 037B
ENCODING 891
SWIDTH 548 0
DWIDTH 16 0
BBX 11 16 3 0
BITMAP
3E00
FF80
4380
01C0
00E0
00E0
00E0
00E0
00E0
00E0
00E0
00E0
01C0
C380
FF00
3E00
ENDCHAR
STARTCHAR 037C
ENCODING 892
SWIDTH 548 0
DWIDTH 16 0
BBX 10 16 3 0
BITMAP
1F80
3FC0
7080
E000
C000
C000
C600
CF00
CF00
C600
C000
C000
E000
70C0
3FC0
1F80
ENDCHAR
STARTCHAR 037D
ENCODING 893
SWIDTH 548 0
DWIDTH 16 0
BBX 11 16 3 0
BITMAP
3E00
FF80
4380
01C0
00E0
00E0
1CE0
1CE0
1CE0
1CE0
00E0
00E0
01C0
C380
FF00
3E00
ENDCHAR
STARTCHAR 037E
ENCODING 894
SWIDTH 548 0
DWIDTH 16 0
BBX 4 16 6 -4
BITMAP
60
F0
F0
60
00
00
00
00
00
60
F0
F0
70
70
60
C0
ENDCHAR
STARTCHAR 0384
ENCODING 900
SWIDTH 548 0
DWIDTH 16 0
BBX 5 6 7 22
BITMAP
10
18
38
F0
60
40
ENDCHAR
STARTCHAR 0385
ENCODING 901
SWIDTH 548 0
DWIDTH 16 0
BBX 10 11 3 18
BITMAP
0100
0180
0380
0700
0E00
0400
0400
61C0
F1C0
F1C0
61C0
ENDCHAR
STARTCHAR 0386
ENCODING 902
SWIDTH 548 0
DWIDTH 16 0
BBX 14 24 1 0
BITMAP
1000
3800
7100
E380
C780
8780
07C0
07C0
0EC0
0CE0
0CE0
1C60
1860
1870
3830
3FF0
3FF8
7018
6018
601C
E00C
C00C
C00C
400C
ENDCHAR
STARTCHAR 0387
ENCODING 903
SWIDTH 548 0
DWIDTH 16 0
BBX 4 4 6 9
BITMAP
60
F0
F0
60
ENDCHAR
STARTCHAR 0388
ENCODING 904
SWIDTH 548 0
DWIDTH 16 0
BBX 14 24 0 0
BITMAP
1000
3800
7800
F7F8
EFF0
8C00
0C00
0C00
0C00
0C00
0C00
0C00
0FF8
0FF0
0C00
0C00
0C00
0C00
0C00
0C00
0C00
0C00
0FFC
0FFC
ENDCHAR
STARTCHAR 0389
ENCODING 905
SWIDTH 548 0
DWIDTH 16 0
BBX 15 24 0 0
BITMAP
1000
3800
7402
EC06
CC06
8C06
0C06
0C06
0C06
0C06
0C06
0C06
0FFE
0FFE
0C06
0C06
0C06
0C06
0C06
0C06
0C06
0C06
0C06
0804
ENDCHAR
STARTCHAR 038A
ENCODING 906
SWIDTH 548 0
DWIDTH 16 0
BBX 13 24 0 0
BITMAP
1000
3800
7800
F7F8
EFF0
81C0
01C0
01C0
01C0
01C0
01C0
01C0
01C0
01C0
01C0
01C0
01C0
01C0
01C0
01C0
01C0
01C0
07F8
0FF0
ENDCHAR
STARTCHAR 038C
ENCODING 908
SWIDTH 548 0
DWIDTH 16 0
BBX 15 24 0 0
BITMAP
1000
3800
73E0
E7F8
CE1C
9C0E
1806
3806
3806
3806
3806
3806
3806
3806
3806
3806
3806
3806
3806
1806
1C0E
0E1C
07F8
03E0
ENDCHAR
STARTCHAR 038E
ENCODING 910
SWIDTH 548 0
DWIDTH 16 0
BBX 16 24 0 0
BITMAP
1000
3800
7602
EE03
C607
8706
070E
030C
030C
0398
0198
01B8
00F0
00F0
00E0
0060
0060
0060
0060
0060
0060
0060
0060
0040
ENDCHAR
STARTCHAR 038F
ENCODING 911
SWIDTH 548 0
DWIDTH 16 0
BBX 16 24 0 0
BITMAP
1000
1800
3BE0
77F8
EE3C
DC0C
980E
3806
3806
3806
3806
3806
3806
3806
3806
180E
1C1C
0E3C
0638
0630
0630
0630
3E3F
3E3E
ENDCHAR
STARTCHAR 0390
ENCODING 912
SWIDTH 548 0
DWIDTH 16 0
BBX 11 29 2 0
BITMAP
0100
0100
0380
0700
0E00
0C00
0800
E180
E3C0
E3C0
E180
0000
0000
3E00
7E00
0600
0600
0600
0600
0600
0600
0600
0600
0600
0600
0600
0700
03E0
01E0
ENDCHAR
STARTCHAR 0391
ENCODING 913
SWIDTH 548 0
DWIDTH 16 0
BBX 14 22 1 0
BITMAP
0100
0380
0780
0780
07C0
07C0
0EC0
0CE0
0CE0
1C60
1860
1870
3830
3FF0
3FF8
7018
6018
601C
E00C
C00C
C00C
400C
ENDCHAR
STARTCHAR 0392
ENCODING 914
SWIDTH 548 0
DWIDTH 16 0
BBX 13 21 2 0
BITMAP
7F00
FF80
C1C0
C0E0
C060
C060
C0E0
C1C0
FFC0
FFC0
C0E0
C070
C030
C030
C038
C030
C030
C070
C0E0
FFC0
FF80
ENDCHAR
STARTCHAR 0393
ENCODING 915
SWIDTH 548 0
DWIDTH 16 0
BBX 12 21 2 0
BITMAP
FFF0
FFF0
C000
C000
C000
C000
C000
C000
C000
C000
C000
C000
C000
C000
C000
C000
C000
C000
C000
C000
8000
ENDCHAR
STARTCHAR 0394
ENCODING 916
SWIDTH 548 0
DWIDTH 16 0
BBX 15 22 1 0
BITMAP
0100
0380
0780
0780
07C0
06C0
0CC0
0CE0
0CE0
1C60
1860
1870
3830
3030
3038
7018
6018
601C
E01C
E00C
FFFC
FFFE
ENDCHAR
STARTCHAR 0395
ENCODING 917
SWIDTH 548 0
DWIDTH 16 0
BBX 12 21 3 0
BITMAP
7FC0
FFC0
C000
C000
C000
C000
C000
C000
C000
FFC0
FFC0
C000
C000
C000
C000
C000
C000
C000
C000
FFF0
FFF0
ENDCHAR
STARTCHAR 0396
ENCODING 918
SWIDTH 548 0
DWIDTH 16 0
BBX 13 21 2 0
BITMAP
7FF0
FFF0
00E0
00E0
00C0
01C0
0180
0380
0300
0700
0600
0E00
0C00
1C00
1800
3800
3000
7000
6000
FFF8
FFF0
ENDCHAR
STARTCHAR 0397
ENCODING 919
SWIDTH 548 0
DWIDTH 16 0
BBX 13 22 2 0
BITMAP
4018
C038
C038
C038
C038
C038
C038
C038
C038
C038
FFF8
FFF8
C038
C038
C038
C038
C038
C038
C038
C038
C038
8020
ENDCHAR
STARTCHAR 0398
ENCODING 920
SWIDTH 548 0
DWIDTH 16 0
BBX 13 22 2 0
BITMAP
0F80
3FC0
70E0
E070
C030
C030
C038
C038
C038
C038
DFB8
DFB8
C038
C038
C038
C038
C030
C030
E070
70E0
3FC0
0F80
ENDCHAR
STARTCHAR 0399
ENCODING 921
SWIDTH 548 0
DWIDTH 16 0
BBX 12 21 2 0
BITMAP
7FF0
FFF0
0600
0600
0600
0600
0600
0600
0600
0600
0600
0600
0600
0600
0600
0600
0600
0600
0600
7FF0
FFF0
ENDCHAR
STARTCHAR 039A
ENCODING 922
SWIDTH 548 0
DWIDTH 16 0
BBX 12 22 2 0
BITMAP
4020
C070
C0E0
C1C0
C380
C300
C700
CE00
DC00
FC00
FE00
EE00
C700
C700
C380
C380
C1C0
C0C0
C0E0
C060
C070
8020
ENDCHAR
STARTCHAR 039B
ENCODING 923
SWIDTH 548 0
DWIDTH 16 0
BBX 14 22 1 0
BITMAP
0100
0380
0780
0780
07C0
07C0
0EC0
0CE0
0CE0
1C60
1860
1870
3830
3030
3038
7018
6018
601C
E01C
C00C
C00C
400C
ENDCHAR
STARTCHAR 039C
ENCODING 924
SWIDTH 548 0
DWIDTH 16 0
BBX 14 22 1 0
BITMAP
6004
E00C
E01C
F01C
F01C
F03C
F03C
F83C
F87C
F87C
F86C
FCEC
ECEC
ECCC
EECC
E7CC
E78C
E78C
E78C
E30C
E00C
8008
ENDCHAR
STARTCHAR 039D
ENCODING 925
SWIDTH 548 0
DWIDTH 16 0
BBX 13 22 2 0
BITMAP
4018
E038
E038
F038
F038
F838
D838
DC38
CC38
CE38
C638
C738
C338
C3B8
C1B8
C1F8
C0F8
C0F8
C078
C078
C038
8020
ENDCHAR
STARTCHAR 039E
ENCODING 926
SWIDTH 548 0
DWIDTH 16 0
BBX 14 21 1 0
BITMAP
7FFC
FFF8
0000
0000
0000
0000
0000
0000
0000
1FF0
1FE0
0000
0000
0000
0000
0000
0000
0000
0000
7FFC
FFF8
ENDCHAR
STARTCHAR 039F
ENCODING 927
SWIDTH 548 0
DWIDTH 16 0
BBX 13 22 2 0
BITMAP
0F80
3FC0
70E0
E070
C030
C030
C038
C038
C038
C038
C038
C038
C038
C038
C038
C038
C030
C030
E070
70E0
3FC0
0F80
ENDCHAR
STARTCHAR 03A0
ENCODING 928
SWIDTH 548 0
DWIDTH 16 0
BBX 12 21 2 0
BITMAP
FFF0
FFF0
C030
C030
C030
C030
C030
C030
C030
C030
C030
C030
C030
C030
C030
C030
C030
C030
C030
C030
8020
ENDCHAR
STARTCHAR 03A1
ENCODING 929
SWIDTH 548 0
DWIDTH 16 0
BBX 13 21 2 0
BITMAP
FF80
FFC0
C0E0
C070
C030
C030
C038
C030
C030
C070
C0E0
FFC0
FF80
C000
C000
C000
C000
C000
C000
C000
8000
ENDCHAR
STARTCHAR 03A3
ENCODING 931
SWIDTH 548 0
DWIDTH 16 0
BBX 12 21 2 0
BITMAP
7FE0
FFE0
7000
3000
3800
1C00
0C00
0E00
0700
0300
0300
0700
0600
0E00
1C00
1C00
3800
3800
7000
7FF0
FFF0
ENDCHAR
STARTCHAR 03A4
ENCODING 932
SWIDTH 548 0
DWIDTH 16 0
BBX 14 21 1 0
BITMAP
FFFC
FFFC
0300
0300
0300
0300
0300
0300
0300
0300
0300
0300
0300
0300
0300
0300
0300
0300
0300
0300
0200
ENDCHAR
STARTCHAR 03A5
ENCODING 933
SWIDTH 548 0
DWIDTH 16 0
BBX 14 22 1 0
BITMAP
4008
E01C
6018
7018
3038
3830
1870
1860
1CE0
0CC0
0FC0
0780
0780
0300
0300
0300
0300
0300
0300
0300
0300
0200
ENDCHAR
STARTCHAR 03A6
ENCODING 934
SWIDTH 548 0
DWIDTH 16 0
BBX 13 22 2 0
BITMAP
0200
0600
0600
0600
0F80
3FC0
7FE0
E670
C630
C638
C618
C618
C638
E670
76F0
3FE0
1F80
0600
0600
0600
0600
0400
ENDCHAR
STARTCHAR 03A7
ENCODING 935
SWIDTH 548 0
DWIDTH 16 0
BBX 14 22 1 0
BITMAP
4008
E01C
7018
3038
3830
1870
1CE0
0CC0
0FC0
0780
0780
0380
0780
0FC0
0EC0
1CE0
1870
3870
3038
7018
E01C
6008
ENDCHAR
STARTCHAR 03A8
ENCODING 936
SWIDTH 548 0
DWIDTH 16 0
BBX 13 22 2 0
BITMAP
4208
C638
C638
C638
C638
C638
C638
C638
C638
C638
C638
C630
E630
76E0
3FC0
1F80
0600
0600
0600
0600
0600
0400
ENDCHAR
STARTCHAR 03A9
ENCODING 937
SWIDTH 548 0
DWIDTH 16 0
BBX 14 22 1 0
BITMAP
07C0
1FE0
3870
7038
6018
6018
601C
601C
601C
601C
601C
601C
6018
7038
3878
3C70
1C60
1C60
1C60
1C60
7C7C
FC7C
ENDCHAR
STARTCHAR 03AA
ENCODING 938
SWIDTH 548 0
DWIDTH 16 0
BBX 12 27 2 0
BITMAP
30E0
78E0
78E0
30E0
0000
0000
7FF0
FFF0
0600
0600
0600
0600
0600
0600
0600
0600
0600
0600
0600
0600
0600
0600
0600
0600
0600
7FF0
FFF0
ENDCHAR
STARTCHAR 03AB
ENCODING 939
SWIDTH 548 0
DWIDTH 16 0
BBX 14 27 1 0
BITMAP
1870
3C70
3C70
1870
0000
4008
E01C
6018
7018
3038
3830
1870
1860
1CE0
0CC0
0FC0
0780
0780
0300
0300
0300
0300
0300
0300
0300
0300
0200
ENDCHAR
STARTCHAR 03AC
ENCODING 940
SWIDTH 548 0
DWIDTH 16 0
BBX 13 23 2 0
BITMAP
0080
00C0
01C0
0780
0300
0200
0000
1E10
7F38
63B0
E1B0
C1F0
C0E0
C0E0
C0E0
C0E0
C0E0
C0F0
E1F0
E1B0
63B8
7F18
1E10
ENDCHAR
STARTCHAR 03AD
ENCODING 941
SWIDTH 548 0
DWIDTH 16 0
BBX 12 23 2 0
BITMAP
0080
00C0
01C0
0780
0300
0200
0000
0000
1FE0
7FE0
6000
E000
E000
6000
7E00
7E00
6000
E000
E000
6000
7000
3FF0
1FE0
ENDCHAR
STARTCHAR 03AE
ENCODING 942
SWIDTH 548 0
DWIDTH 16 0
BBX 10 29 3 -6
BITMAP
0100
0180
0380
0F00
0600
0400
0000
1E00
7F80
71C0
E0C0
C0C0
C0C0
C0C0
C0C0
C0C0
C0C0
C0C0
C0C0
C0C0
C0C0
C0C0
80C0
00C0
00C0
00C0
00C0
00C0
0080
ENDCHAR
STARTCHAR 03AF
ENCODING 943
SWIDTH 548 0
DWIDTH 16 0
BBX 10 23 3 0
BITMAP
0100
0180
0380
0F00
0600
0400
0000
0000
7C00
FC00
0C00
0C00
0C00
0C00
0C00
0C00
0C00
0C00
0C00
0C00
0E00
07C0
03C0
ENDCHAR
STARTCHAR 03B0
ENCODING 944
SWIDTH 548 0
DWIDTH 16 0
BBX 16 29 0 0
BITMAP
0020
0030
0070
00E0
01C0
0080
0080
0C38
1E38
1E38
0C38
0000
0000
7C06
FC06
0C07
0C07
0C03
0C07
0C07
0C06
0C06
0C0E
0C0C
0C1C
0C38
0E70
07E0
0380
ENDCHAR
STARTCHAR 03B1
ENCODING 945
SWIDTH 548 0
DWIDTH 16 0
BBX 13 16 2 0
BITMAP
1E10
7F38
63B0
E1B0
C1F0
C0E0
C0E0
C0E0
C0E0
C0E0
C0F0
E1F0
E1B0
63B8
7F18
1E10
ENDCHAR
STARTCHAR 03B2
ENCODING 946
SWIDTH 548 0
DWIDTH 16 0
BBX 11 28 3 -6
BITMAP
1E00
7F80
61C0
E0C0
C0C0
C0C0
C0C0
C0C0
C1C0
C780
C7C0
C1E0
C060
C060
C060
C060
C060
C060
E060
F0E0
FFC0
DF00
C000
C000
C000
C000
C000
8000
ENDCHAR
STARTCHAR 03B3
ENCODING 947
SWIDTH 548 0
DWIDTH 16 0
BBX 16 22 0 -6
BITMAP
7002
F803
3807
1C06
1C0E
0C0C
0E1C
0618
0618
0738
0330
03F0
01E0
01E0
01C0
00C0
00C0
00C0
00C0
00C0
00C0
0080
ENDCHAR
STARTCHAR 03B4
ENCODING 948
SWIDTH 548 0
DWIDTH 16 0
BBX 10 22 3 0
BITMAP
1FC0
7FC0
6000
6000
6000
6000
7E00
7F80
71C0
E0C0
C0C0
C0C0
C0C0
C0C0
C0C0
C0C0
C0C0
C0C0
E0C0
71C0
7F80
1E00
ENDCHAR
STARTCHAR 03B5
ENCODING 949
SWIDTH 548 0
DWIDTH 16 0
BBX 12 15 2 0
BITMAP
1FE0
7FE0
6000
E000
E000
6000
7E00
7E00
6000
E000
E000
6000
7000
3FF0
1FE0
ENDCHAR
STARTCHAR 03B6
ENCODING 950
SWIDTH 548 0
DWIDTH 16 0
BBX 13 27 2 -6
BITMAP
7FF0
FFF0
00E0
01C0
0380
0700
0600
0E00
1C00
1800
3800
3000
7000
6000
6000
6000
6000
7000
3000
3FE0
0FF0
0038
0018
0018
0038
0070
00E0
ENDCHAR
STARTCHAR 03B7
ENCODING 951
SWIDTH 548 0
DWIDTH 16 0
BBX 10 22 3 -6
BITMAP
1E00
7F80
71C0
E0C0
C0C0
C0C0
C0C0
C0C0
C0C0
C0C0
C0C0
C0C0
C0C0
C0C0
C0C0
80C0
00C0
00C0
00C0
00C0
00C0
0080
ENDCHAR
STARTCHAR 03B8
ENCODING 952
SWIDTH 548 0
DWIDTH 16 0
BBX 10 22 3 0
BITMAP
1E00
7F80
71C0
E0C0
C0C0
C0C0
C0C0
C0C0
C0C0
C0C0
FFC0
FFC0
C0C0
C0C0
C0C0
C0C0
C0C0
C0C0
E0C0
71C0
7F80
1E00
ENDCHAR
STARTCHAR 03B9
ENCODING 953
SWIDTH 548 0
DWIDTH 16 0
BBX 10 15 3 0
BITMAP
7C00
FC00
0C00
0C00
0C00
0C00
0C00
0C00
0C00
0C00
0C00
0C00
0E00
07C0
03C0
ENDCHAR
STARTCHAR 03BA
ENCODING 954
SWIDTH 548 0
DWIDTH 16 0
BBX 10 16 3 0
BITMAP
40C0
C1C0
C380
C700
CE00
DC00
F800
FC00
FE00
EE00
C700
C380
C380
C1C0
C0C0
80C0
ENDCHAR
STARTCHAR 03BB
ENCODING 955
SWIDTH 548 0
DWIDTH 16 0
BBX 12 22 2 0
BITMAP
7800
7C00
0C00
0E00
0600
0600
0700
0300
0700
0780
0F80
0D80
1DC0
1CC0
18C0
38E0
3060
7060
6070
E030
E030
4030
ENDCHAR
STARTCHAR 03BC
ENCODING 956
SWIDTH 548 0
DWIDTH 16 0
BBX 10 22 3 -6
BITMAP
4040
C0C0
C0C0
C0C0
C0C0
C0C0
C0C0
C0C0
C0C0
C0C0
C0C0
C0C0
E0C0
E1C0
FF80
DE00
C000
C000
C000
C000
C000
8000
ENDCHAR
STARTCHAR 03BD
ENCODING 957
SWIDTH 548 0
DWIDTH 16 0
BBX 12 16 2 0
BITMAP
4040
C030
E030
6030
6030
7030
3030
3030
3870
3860
18E0
1DC0
1FC0
0F80
0F00
0C00
ENDCHAR
STARTCHAR 03BE
ENCODING 958
SWIDTH 548 0
DWIDTH 16 0
BBX 13 27 2 -6
BITMAP
7FF0
FFF0
3800
3800
3000
3000
3000
3000
3800
1FF0
3FE0
7800
7000
6000
6000
6000
6000
6000
7000
3FE0
0FF0
0038
0018
0018
0038
0070
00E0
ENDCHAR
STARTCHAR 03BF
ENCODING 959
SWIDTH 548 0
DWIDTH 16 0
BBX 10 16 3 0
BITMAP
1E00
7F80
61C0
E0C0
C0C0
C0C0
C0C0
C0C0
C0C0
C0C0
C0C0
C0C0
E0C0
71C0
7F80
1E00
ENDCHAR
STARTCHAR 03C0
ENCODING 960
SWIDTH 548 0
DWIDTH 16 0
BBX 10 15 3 0
BITMAP
FFC0
FFC0
C0C0
C0C0
C0C0
C0C0
C0C0
C0C0
C0C0
C0C0
C0C0
C0C0
C0C0
C0C0
8080
ENDCHAR
STARTCHAR 03C1
ENCODING 961
SWIDTH 548 0
DWIDTH 16 0
BBX 10 22 3 -6
BITMAP
1E00
7F80
61C0
E0C0
C0C0
C0C0
C0C0
C0C0
C0C0
C0C0
C0C0
C0C0
E0C0
F1C0
FF80
DE00
C000
C000
C000
C000
C000
8000
ENDCHAR
STARTCHAR 03C2
ENCODING 962
SWIDTH 548 0
DWIDTH 16 0
BBX 11 22 3 -6
BITMAP
0F80
3FE0
70C0
E000
C000
C000
C000
C000
C000
C000
C000
C000
E000
7000
3F80
0FC0
00C0
00E0
00E0
00C0
03C0
0380
ENDCHAR
STARTCHAR 03C3
ENCODING 963
SWIDTH 548 0
DWIDTH 16 0
BBX 12 16 3 0
BITMAP
1FF0
7FF0
71C0
E0C0
C0C0
C0C0
C0C0
C0C0
C0C0
C0C0
C0C0
C0C0
E0C0
71C0
7F80
1E00
ENDCHAR
STARTCHAR 03C4
ENCODING 964
SWIDTH 548 0
DWIDTH 16 0
BBX 12 15 2 0
BITMAP
7FF0
FFF0
0600
0600
0600
0600
0600
0600
0600
0600
0600
0600
0700
03E0
01E0
ENDCHAR
STARTCHAR 03C5
ENCODING 965
SWIDTH 548 0
DWIDTH 16 0
BBX 16 16 0 0
BITMAP
7C06
FC06
0C07
0C07
0C03
0C07
0C07
0C06
0C06
0C0E
0C0C
0C1C
0C38
0E70
07E0
0380
ENDCHAR
STARTCHAR 03C6
ENCODING 966
SWIDTH 548 0
DWIDTH 16 0
BBX 10 22 3 -6
BITMAP
4700
CF80
CDC0
CCC0
CCC0
CCC0
CCC0
CCC0
CCC0
CCC0
CCC0
CCC0
ECC0
FDC0
7F80
3F00
0C00
0C00
0C00
0C00
0C00
0800
ENDCHAR
STARTCHAR 03C7
ENCODING 967
SWIDTH 548 0
DWIDTH 16 0
BBX 16 22 0 -6
BITMAP
600C
F80C
181C
1C18
0C38
0E30
0670
0760
03E0
03C0
01C0
03C0
03C0
07E0
0760
0E70
0E30
1C38
1C18
381C
380F
1007
ENDCHAR
STARTCHAR 03C8
ENCODING 968
SWIDTH 548 0
DWIDTH 16 0
BBX 10 22 3 -6
BITMAP
4440
CCC0
CCC0
CCC0
CCC0
CCC0
CCC0
CCC0
CCC0
CCC0
CCC0
CCC0
ECC0
FDC0
7F80
3F00
0C00
0C00
0C00
0C00
0C00
0800
ENDCHAR
STARTCHAR 03C9
ENCODING 969
SWIDTH 548 0
DWIDTH 16 0
BBX 13 16 2 0
BITMAP
4008
C038
C038
C038
C038
C038
C038
C638
C638
C638
C638
C638
C638
CF30
FFF0
79E0
ENDCHAR
STARTCHAR 03CA
ENCODING 970
SWIDTH 548 0
DWIDTH 16 0
BBX 11 22 2 0
BITMAP
E180
E3C0
E3C0
E180
0000
0000
3E00
7E00
0600
0600
0600
0600
0600
0600
0600
0600
0600
0600
0600
0700
03E0
01E0
ENDCHAR
STARTCHAR 03CB
ENCODING 971
SWIDTH 548 0
DWIDTH 16 0
BBX 16 22 0 0
BITMAP
0C38
1E38
1E38
0C38
0000
0000
7C06
FC06
0C07
0C07
0C03
0C07
0C07
0C06
0C06
0C0E
0C0C
0C1C
0C38
0E70
07E0
0380
ENDCHAR
STARTCHAR 03CC
ENCODING 972
SWIDTH 548 0
DWIDTH 16 0
BBX 10 23 3 0
BITMAP
0100
0180
0380
0F00
0600
0400
0000
1E00
7F80
61C0
E0C0
C0C0
C0C0
C0C0
C0C0
C0C0
C0C0
C0C0
C0C0
E0C0
71C0
7F80
1E00
ENDCHAR
STARTCHAR 03CD
ENCODING 973
SWIDTH 548 0
DWIDTH 16 0
BBX 16 23 0 0
BITMAP
0020
0030
0070
01E0
00C0
0080
0000
7C06
FC06
0C07
0C07
0C03
0C07
0C07
0C06
0C06
0C0E
0C0C
0C1C
0C38
0E70
07E0
0380
ENDCHAR
STARTCHAR 03CE
ENCODING 974
SWIDTH 548 0
DWIDTH 16 0
BBX 13 23 2 0
BITMAP
0080
00C0
01C0
0780
0300
0200
0000
4008
C038
C038
C038
C038
C038
C038
C638
C638
C638
C638
C638
C638
CF30
FFF0
79E0
ENDCHAR
STARTCHAR 03CF
ENCODING 975
SWIDTH 548 0
DWIDTH 16 0
BBX 13 27 2 -5
BITMAP
4020
C070
C0E0
C1C0
C380
C300
C700
CE00
DC00
FC00
FE00
EE00
C700
C700
C380
C380
C1C0
C0C0
C0E0
C070
C070
8038
0078
00F0
01E0
01C0
0080
ENDCHAR
STARTCHAR 03D0
ENCODING 976
SWIDTH 548 0
DWIDTH 16 0
BBX 12 22 2 0
BITMAP
1F00
3F80
71C0
60E0
E060
E060
E060
E0E0
E1C0
FF80
FFC0
E0E0
E060
E070
E030
E030
E030
E030
6070
70E0
3FC0
0F80
ENDCHAR
STARTCHAR 03D1
ENCODING 977
SWIDTH 548 0
DWIDTH 16 0
BBX 10 22 3 0
BITMAP
0780
0FC0
0CC0
0CC0
1CC0
1CC0
4CC0
CCC0
CFC0
C7C0
C0C0
C0C0
C0C0
C0C0
C0C0
C0C0
C0C0
C0C0
E0C0
61C0
7F80
1E00
ENDCHAR
STARTCHAR 03D2
ENCODING 978
SWIDTH 548 0
DWIDTH 16 0
BBX 14 22 1 0
BITMAP
E01C
783C
1870
1860
1CE0
0CC0
0CC0
0FC0
0780
0780
0780
0300
0300
0300
0300
0300
0300
0300
0300
0300
0300
0200
ENDCHAR
STARTCHAR 03D3
ENCODING 979
SWIDTH 548 0
DWIDTH 16 0
BBX 16 24 0 0
BITMAP
1000
3800
7601
E703
C387
8186
01CE
00CC
00DC
00F8
0078
0078
0070
0070
0030
0030
0030
0030
0030
0030
0030
0030
0030
0020
ENDCHAR
STARTCHAR 03D4
ENCODING 980
SWIDTH 548 0
DWIDTH 16 0
BBX 14 27 1 0
BITMAP
1870
3C70
3C70
1870
0000
E01C
783C
1870
1860
1CE0
0CC0
0CC0
0FC0
0780
0780
0780
0300
0300
0300
0300
0300
0300
0300
0300
0300
0300
0200
ENDCHAR
STARTCHAR 03D5
ENCODING 981
SWIDTH 548 0
DWIDTH 16 0
BBX 10 28 3 -6
BITMAP
0400
0C00
0C00
0C00
0C00
0C00
3F00
7F80
FDC0
ECC0
CCC0
CCC0
CCC0
CCC0
CCC0
CCC0
CCC0
CCC0
ECC0
FDC0
7F80
3F00
0C00
0C00
0C00
0C00
0C00
0800
ENDCHAR
STARTCHAR 03D6
ENCODING 982
SWIDTH 548 0
DWIDTH 16 0
BBX 13 15 2 0
BITMAP
FFF8
FFF8
C038
C038
C038
C038
C638
C638
C638
C638
C638
C638
C738
FFF0
79E0
ENDCHAR
STARTCHAR 03D7
ENCODING 983
SWIDTH 548 0
DWIDTH 16 0
BBX 14 22 1 -6
BITMAP
7808
FC30
0C30
0E70
0660
0660
0FE0
0FE0
0FC0
0EC0
1CC0
18C0
18C0
18E0
307C
203C
000C
001C
0018
0038
01F0
01E0
ENDCHAR
STARTCHAR 03D8
ENCODING 984
SWIDTH 548 0
DWIDTH 16 0
BBX 13 27 2 -6
BITMAP
0F80
3FC0
70E0
E070
C030
C030
C038
C038
C038
C038
C038
C038
C038
C038
C038
C038
C030
C030
E070
70E0
3FC0
1F80
0600
0600
0600
0600
0600
ENDCHAR
STARTCHAR 03D9
ENCODING 985
SWIDTH 548 0
DWIDTH 16 0
BBX 10 21 3 -5
BITMAP
1E00
7F80
61C0
C0C0
C0C0
C0C0
C0C0
C0C0
C0C0
C0C0
C0C0
C0C0
E1C0
7FC0
3F80
1E00
0C00
0C00
0C00
0C00
0C00
ENDCHAR
STARTCHAR 03DA
ENCODING 986
SWIDTH 548 0
DWIDTH 16 0
BBX 12 27 2 -6
BITMAP
0FF0
3FF0
7000
E000
C000
C000
C000
C000
C000
C000
C000
C000
C000
C000
C000
C000
C000
E000
7000
3FC0
1FE0
0060
0060
0060
0060
01E0
0180
ENDCHAR
STARTCHAR 03DB
ENCODING 987
SWIDTH 548 0
DWIDTH 16 0
BBX 11 21 3 -6
BITMAP
0FE0
3FE0
7000
E000
C000
C000
C000
C000
C000
C000
C000
E000
7000
3F80
1FC0
00C0
00E0
00E0
00C0
03C0
0380
ENDCHAR
STARTCHAR 03DC
ENCODING 988
SWIDTH 548 0
DWIDTH 16 0
BBX 10 21 3 0
BITMAP
7FC0
FFC0
C000
C000
C000
C000
C000
C000
C000
FFC0
FFC0
C000
C000
C000
C000
C000
C000
C000
C000
C000
8000
ENDCHAR
STARTCHAR 03DD
ENCODING 989
SWIDTH 548 0
DWIDTH 16 0
BBX 10 28 3 -6
BITMAP
03C0
0F80
1C00
1800
1800
1800
1800
1800
1800
1800
1F80
1F80
1800
1800
1800
1800
1800
1800
1800
1800
1800
1800
1800
3800
3000
7000
E000
C000
ENDCHAR
STARTCHAR 03DE
ENCODING 990
SWIDTH 548 0
DWIDTH 16 0
BBX 14 22 1 0
BITMAP
7000
FC00
1C00
0C00
0C00
0C00
1C04
1C18
1878
18F8
3BF0
3FB0
3E70
3870
2060
4060
00E0
00C0
00C0
00E0
00FC
0038
ENDCHAR
STARTCHAR 03DF
ENCODING 991
SWIDTH 548 0
DWIDTH 16 0
BBX 10 22 3 0
BITMAP
0800
1800
1800
3800
3000
3000
3000
7000
6000
6000
E000
FFC0
FFC0
01C0
0180
0180
0380
0300
0300
0700
0600
0400
ENDCHAR
STARTCHAR 03E0
ENCODING 992
SWIDTH 548 0
DWIDTH 16 0
BBX 16 28 0 -6
BITMAP
6000
F800
7C00
1E00
0F00
0780
0380
03C0
07E0
06E0
0E70
0E78
0C78
1C78
187C
38FC
30CE
31CE
718E
6186
E387
4107
0007
0003
0003
0003
0003
0002
ENDCHAR
STARTCHAR 03E1
ENCODING 993
SWIDTH 548 0
DWIDTH 16 0
BBX 13 22 2 -6
BITMAP
6000
F800
3C00
0E00
0700
0700
0780
0780
0FC0
1CC0
19E0
39E0
73E0
6770
EE70
4430
0030
0030
0038
0038
0038
0020
ENDCHAR
STARTCHAR 03E2
ENCODING 994
SWIDTH 548 0
DWIDTH 16 0
BBX 13 28 2 -6
BITMAP
4008
C038
C038
C038
C038
C038
C038
C038
C038
C038
C238
C638
C638
C638
C638
C638
C638
C638
C638
CF38
FFF0
79E0
03C0
0780
0F00
1C00
1800
1000
ENDCHAR
STARTCHAR 03E3
ENCODING 995
SWIDTH 548 0
DWIDTH 16 0
BBX 13 22 2 -6
BITMAP
4008
C038
C038
C038
C038
C038
C038
C638
C638
C638
C638
C638
C638
CF38
FFF0
79E0
03C0
0780
0F00
1C00
1800
1000
ENDCHAR
STARTCHAR 03E4
ENCODING 996
SWIDTH 548 0
DWIDTH 16 0
BBX 13 28 2 -6
BITMAP
1018
3838
7038
6038
E038
C038
C038
C038
C038
C038
C038
C038
C038
C038
C038
C038
C038
E038
6078
70F8
3FF8
0FB8
0038
0038
0038
0038
0038
0020
ENDCHAR
STARTCHAR 03E5
ENCODING 997
SWIDTH 548 0
DWIDTH 16 0
BBX 12 22 2 -6
BITMAP
0810
3C30
3830
7030
6030
6030
E030
E030
E030
E030
6030
6070
7070
38F0
3FF0
0F30
0030
0030
0030
0030
0030
0020
ENDCHAR
STARTCHAR 03E6
ENCODING 998
SWIDTH 548 0
DWIDTH 16 0
BBX 13 28 2 -6
BITMAP
4000
C000
C000
C000
C000
C000
CF80
FFC0
F0E0
E070
C030
C030
C038
C038
C038
C038
C038
C038
C030
C030
C030
8030
0070
0060
00E0
01C0
3F80
3F00
ENDCHAR
STARTCHAR 03E7
ENCODING 999
SWIDTH 548 0
DWIDTH 16 0
BBX 15 16 1 0
BITMAP
0F80
3FC0
30E0
7070
6030
7038
7038
3FFE
1FFC
0030
0030
0070
00E0
79C0
FF80
4F00
ENDCHAR
STARTCHAR 03E8
ENCODING 1000
SWIDTH 548 0
DWIDTH 16 0
BBX 13 28 1 -6
BITMAP
0FC0
3FE0
7870
6038
4018
0018
0018
0018
0018
0018
0038
0038
0030
0070
00E0
00E0
01C0
0380
0700
1E00
3C00
7800
F000
C000
6018
7878
3FF0
0FC0
ENDCHAR
STARTCHAR 03E9
ENCODING 1001
SWIDTH 548 0
DWIDTH 16 0
BBX 12 21 2 -5
BITMAP
1F80
3FC0
70E0
6070
0030
0030
0030
0030
0070
0060
01E0
03C0
0780
1F00
3C00
F000
E000
E020
78F0
3FE0
0F80
ENDCHAR
STARTCHAR 03EA
ENCODING 1002
SWIDTH 548 0
DWIDTH 16 0
BBX 16 21 0 0
BITMAP
7007
F80E
181C
1C38
0C30
0E70
0760
03E0
03C0
01C0
03C0
03C0
07E0
0660
0E70
0C30
1C38
1818
381C
7FFF
FFFF
ENDCHAR
STARTCHAR 03EB
ENCODING 1003
SWIDTH 548 0
DWIDTH 16 0
BBX 15 16 1 0
BITMAP
601C
F038
3870
1C60
0CE0
0FC0
0780
0380
0780
07C0
0EC0
1CE0
1870
3870
FFFE
FFFC
ENDCHAR
STARTCHAR 03EC
ENCODING 1004
SWIDTH 548 0
DWIDTH 16 0
BBX 13 21 2 0
BITMAP
1FF0
3FE0
7000
E000
C000
CF80
FFC0
F0E0
E070
C030
C030
C038
C038
C038
C038
C030
C030
E070
70E0
3FC0
0F80
ENDCHAR
STARTCHAR 03ED
ENCODING 1005
SWIDTH 548 0
DWIDTH 16 0
BBX 10 21 3 0
BITMAP
1F80
3F80
7000
E000
C000
DE00
FF80
F1C0
E0C0
C0C0
C0C0
C0C0
C0C0
C0C0
C0C0
C0C0
C0C0
E0C0
71C0
7F80
1E00
ENDCHAR
STARTCHAR 03EE
ENCODING 1006
SWIDTH 548 0
DWIDTH 16 0
BBX 15 28 1 -6
BITMAP
0100
0300
0300
0300
0300
0300
FFFE
FFFE
C30E
C30E
C30E
C30E
830E
0308
0300
0300
0300
0300
0300
0300
0300
0300
0300
0300
0300
0300
0300
0200
ENDCHAR
STARTCHAR 03EF
ENCODING 1007
SWIDTH 548 0
DWIDTH 16 0
BBX 11 28 3 -6
BITMAP
0400
0C00
0C00
0C00
0C00
0C00
FFE0
FFE0
CCE0
CCE0
8C80
0C00
0C00
0C00
0C00
0C00
0C00
0C00
0C00
0C00
0C00
0C00
0C00
0C00
0C00
0C00
0C00
0800
ENDCHAR
STARTCHAR 03F0
ENCODING 1008
SWIDTH 548 0
DWIDTH 16 0
BBX 14 16 1 0
BITMAP
7808
FC30
0C30
0E70
0660
0660
0EE0
0FE0
0FC0
0EC0
1CC0
18C0
18C0
18E0
307C
2038
ENDCHAR
STARTCHAR 03F1
ENCODING 1009
SWIDTH 548 0
DWIDTH 16 0
BBX 10 22 3 -6
BITMAP
1E00
7F80
61C0
E0C0
C0C0
C0C0
C0C0
C0C0
C0C0
C0C0
C0C0
C0C0
E0C0
F1C0
FF80
DF00
C000
C000
E000
7000
3F80
1F80
ENDCHAR
STARTCHAR 03F2
ENCODING 1010
SWIDTH 548 0
DWIDTH 16 0
BBX 10 16 3 0
BITMAP
1F80
3FC0
7080
E000
C000
C000
C000
C000
C000
C000
C000
C000
E000
70C0
3FC0
1F80
ENDCHAR
STARTCHAR 03F3
ENCODING 1011
SWIDTH 548 0
DWIDTH 16 0
BBX 7 28 3 -6
BITMAP
0E
0E
0E
0E
00
00
7C
7C
0C
0C
0C
0C
0C
0C
0C
0C
0C
0C
0C
0C
0C
0C
0C
0C
0C
0C
7C
F8
ENDCHAR
STARTCHAR 03F4
ENCODING 1012
SWIDTH 548 0
DWIDTH 16 0
BBX 13 22 2 0
BITMAP
0F80
3FC0
70E0
E070
C030
C030
C038
C038
C038
C038
FFF8
FFF8
C038
C038
C038
C038
C030
C030
E070
70E0
3FC0
0F80
ENDCHAR
STARTCHAR 03F5
ENCODING 1013
SWIDTH 548 0
DWIDTH 16 0
BBX 10 16 3 0
BITMAP
1F80
3FC0
7080
E000
C000
C000
C000
FFC0
FF80
C000
C000
C000
E000
70C0
3FC0
1F80
ENDCHAR
STARTCHAR 03F6
ENCODING 1014
SWIDTH 548 0
DWIDTH 16 0
BBX 11 16 3 0
BITMAP
3E00
FF80
4380
01C0
00E0
00E0
00E0
7FE0
FFE0
00E0
00E0
00E0
01C0
C380
FF00
3E00
ENDCHAR
STARTCHAR 03F7
ENCODING 1015
SWIDTH 548 0
DWIDTH 16 0
BBX 12 22 2 0
BITMAP
4000
C000
C000
C000
C000
FF00
FFC0
C0E0
C060
C070
C030
C030
C030
C070
C060
C0E0
FFC0
FF00
C000
C000
C000
8000
ENDCHAR
STARTCHAR 03F8
ENCODING 1016
SWIDTH 548 0
DWIDTH 16 0
BBX 10 28 3 -6
BITMAP
4000
C000
C000
C000
C000
C000
DE00
FF80
E1C0
E0C0
C0C0
C0C0
C0C0
C0C0
C0C0
C0C0
C0C0
C0C0
E0C0
F1C0
FF80
DE00
C000
C000
C000
C000
C000
8000
ENDCHAR
STARTCHAR 03F9
ENCODING 1017
SWIDTH 548 0
DWIDTH 16 0
BBX 12 22 2 0
BITMAP
0FC0
3FE0
7870
6020
E000
C000
C000
C000
C000
C000
C000
C000
C000
C000
C000
C000
C000
C000
E030
7870
3FE0
0F80
ENDCHAR
STARTCHAR 03FA
ENCODING 1018
SWIDTH 548 0
DWIDTH 16 0
BBX 14 22 1 0
BITMAP
6004
F00C
F01C
F83C
FC7C
ECEC
EECC
E78C
E38C
E00C
E00C
E00C
E00C
E00C
E00C
E00C
E00C
E00C
E00C
E00C
E00C
8008
ENDCHAR
STARTCHAR 03FB
ENCODING 1019
SWIDTH 548 0
DWIDTH 16 0
BBX 10 22 3 -6
BITMAP
4040
E0C0
E1C0
F1C0
F3C0
FBC0
DEC0
DEC0
C8C0
C0C0
C0C0
C0C0
C0C0
C0C0
C0C0
C080
C000
C000
C000
C000
C000
8000
ENDCHAR
STARTCHAR 03FC
ENCODING 1020
SWIDTH 548 0
DWIDTH 16 0
BBX 13 22 0 -6
BITMAP
03C0
07F0
0C38
1C18
1818
1818
1818
1818
1818
1818
1818
1818
1C18
1E38
1FF0
1BC0
1800
1800
7FE0
FFC0
1800
1000
ENDCHAR
STARTCHAR 03FD
ENCODING 1021
SWIDTH 548 0
DWIDTH 16 0
BBX 13 22 2 0
BITMAP
1F00
7FC0
E0E0
4070
0030
0030
0038
0038
0038
0038
0038
0038
0038
0038
0038
0038
0030
0030
C070
E0E0
7FC0
1F80
ENDCHAR
STARTCHAR 03FE
ENCODING 1022
SWIDTH 548 0
DWIDTH 16 0
BBX 12 22 2 0
BITMAP
0FC0
3FE0
7870
6020
E000
C000
C000
C000
C000
C300
C780
C780
C300
C000
C000
C000
C000
C000
E030
7870
3FE0
0F80
ENDCHAR
STARTCHAR 03FF
ENCODING 1023
SWIDTH 548 0
DWIDTH 16 0
BBX 13 22 2 0
BITMAP
1F00
7FC0
E0E0
4070
0030
0030
0038
0038
0038
0C38
1E38
1E38
0E38
0038
0038
0038
0030
0030
C070
E0E0
7FC0
1F80
ENDCHAR
STARTCHAR 1E0C
ENCODING 7692
SWIDTH 548 0
DWIDTH 16 0
BBX 13 27 2 -6
BITMAP
7F80
FFC0
C0E0
C070
C030
C030
C038
C038
C038
C038
C038
C038
C038
C038
C038
C030
C030
C070
C0E0
FFC0
FF80
0000
0000
0600
0F00
0F00
0600
ENDCHAR
STARTCHAR 1E0D
ENCODING 7693
SWIDTH 548 0
DWIDTH 16 0
BBX 10 28 3 -6
BITMAP
0040
00C0
00C0
00C0
00C0
00C0
1FC0
7FC0
71C0
E0C0
C0C0
C0C0
C0C0
C0C0
C0C0
C0C0
C0C0
C0C0
E0C0
71C0
7F80
1E00
0000
0000
0C00
1E00
1E00
0C00
ENDCHAR
STARTCHAR 1E0E
ENCODING 7694
SWIDTH 548 0
DWIDTH 16 0
BBX 13 26 2 -5
BITMAP
7F80
FFC0
C0E0
C070
C030
C030
C038
C038
C038
C038
C038
C038
C038
C038
C038
C030
C030
C070
C0E0
FFC0
FF80
0000
0000
0000
3FE0
7FC0
ENDCHAR
STARTCHAR 1E0F
ENCODING 7695
SWIDTH 548 0
DWIDTH 16 0
BBX 10 27 3 -5
BITMAP
0040
00C0
00C0
00C0
00C0
00C0
1FC0
7FC0
61C0
E0C0
C0C0
C0C0
C0C0
C0C0
C0C0
C0C0
C0C0
C0C0
E0C0
71C0
7F80
1E00
0000
0000
0000
7FC0
FF80
ENDCHAR
STARTCHAR 1E24
ENCODING 7716
SWIDTH 548 0
DWIDTH 16 0
BBX 13 28 2 -6
BITMAP
4018
C038
C038
C038
C038
C038
C038
C038
C038
C038
FFF8
FFF8
C038
C038
C038
C038
C038
C038
C038
C038
C038
8020
0000
0000
0600
0F00
0F00
0600
ENDCHAR
STARTCHAR 1E25
ENCODING 7717
SWIDTH 548 0
DWIDTH 16 0
BBX 10 28 3 -6
BITMAP
4000
C000
C000
C000
C000
C000
DE00
FF80
E1C0
E0C0
C0C0
C0C0
C0C0
C0C0
C0C0
C0C0
C0C0
C0C0
C0C0
C0C0
C0C0
8080
0000
0000
0C00
1E00
1E00
0C00
ENDCHAR
STARTCHAR 1E36
ENCODING 7734
SWIDTH 548 0
DWIDTH 16 0
BBX 12 28 2 -6
BITMAP
4000
C000
C000
C000
C000
C000
C000
C000
C000
C000
C000
C000
C000
C000
C000
C000
C000
C000
C000
C000
FFF0
FFF0
0000
0000
0600
0F00
0F00
0600
ENDCHAR
STARTCHAR 1E37
ENCODING 7735
SWIDTH 548 0
DWIDTH 16 0
BBX 10 28 3 -6
BITMAP
4000
C000
C000
C000
C000
C000
C000
C000
C000
C000
C000
C000
C000
C000
C000
C000
C040
C0C0
E0C0
61C0
7F80
1E00
0000
0000
0C00
1E00
1E00
0C00
ENDCHAR
STARTCHAR 1E80
ENCODING 7808
SWIDTH 548 0
DWIDTH 16 0
BBX 13 29 2 0
BITMAP
1000
3000
3800
1C00
0E00
0600
0400
4208
C638
C638
C638
C638
C638
C638
C638
C638
C638
C638
C638
C638
C638
C638
C638
C638
C638
C638
CF30
FFF0
79E0
ENDCHAR
STARTCHAR 1E81
ENCODING 7809
SWIDTH 548 0
DWIDTH 16 0
BBX 13 23 2 0
BITMAP
1000
3800
3C00
1E00
0E00
0400
0000
4208
C638
C638
C638
C638
C638
C638
C638
C638
C638
C638
C638
C638
CF30
FFF0
79E0
ENDCHAR
STARTCHAR 1E82
ENCODING 7810
SWIDTH 548 0
DWIDTH 16 0
BBX 13 29 2 0
BITMAP
0080
00C0
01C0
0380
0700
0200
0200
4208
C638
C638
C638
C638
C638
C638
C638
C638
C638
C638
C638
C638
C638
C638
C638
C638
C638
C638
CF30
FFF0
79E0
ENDCHAR
STARTCHAR 1E83
ENCODING 7811
SWIDTH 548 0
DWIDTH 16 0
BBX 13 23 2 0
BITMAP
0080
00C0
01C0
0780
0300
0200
0000
4208
C638
C638
C638
C638
C638
C638
C638
C638
C638
C638
C638
C638
CF30
FFF0
79E0
ENDCHAR
STARTCHAR 1E84
ENCODING 7812
SWIDTH 548 0
DWIDTH 16 0
BBX 13 27 2 0
BITMAP
30E0
78E0
78E0
30E0
0000
4208
C638
C638
C638
C638
C638
C638
C638
C638
C638
C638
C638
C638
C638
C638
C638
C638
C638
C638
CF30
FFF0
79E0
ENDCHAR
STARTCHAR 1E85
ENCODING 7813
SWIDTH 548 0
DWIDTH 16 0
BBX 13 22 2 0
BITMAP
30E0
78E0
78E0
30E0
0000
0000
4208
C638
C638
C638
C638
C638
C638
C638
C638
C638
C638
C638
C638
CF30
FFF0
79E0
ENDCHAR
STARTCHAR 1E86
ENCODING 7814
SWIDTH 548 0
DWIDTH 16 0
BBX 13 27 2 0
BITMAP
0600
0F00
0F00
0600
0000
4208
C638
C638
C638
C638
C638
C638
C638
C638
C638
C638
C638
C638
C638
C638
C638
C638
C638
C638
CF30
FFF0
79E0
ENDCHAR
STARTCHAR 1E87
ENCODING 7815
SWIDTH 548 0
DWIDTH 16 0
BBX 13 22 2 0
BITMAP
0600
0F00
0F00
0600
0000
0000
4208
C638
C638
C638
C638
C638
C638
C638
C638
C638
C638
C638
C638
CF30
FFF0
79E0
ENDCHAR
STARTCHAR 1E88
ENCODING 7816
SWIDTH 548 0
DWIDTH 16 0
BBX 13 28 2 -6
BITMAP
4208
C638
C638
C638
C638
C638
C638
C638
C638
C638
C638
C638
C638
C638
C638
C638
C638
C638
C638
CF30
FFF0
79E0
0000
0000
0600
0F00
0F00
0600
ENDCHAR
STARTCHAR 1E89
ENCODING 7817
SWIDTH 548 0
DWIDTH 16 0
BBX 13 22 2 -6
BITMAP
4208
C638
C638
C638
C638
C638
C638
C638
C638
C638
C638
C638
C638
CF30
FFF0
79E0
0000
0000
0600
0F00
0F00
0600
ENDCHAR
STARTCHAR 1E9E
ENCODING 7838
SWIDTH 548 0
DWIDTH 16 0
BBX 13 22 2 0
BITMAP
1F00
7F80
61C0
E0E0
C0E0
C060
C060
C0E0
C1C0
C7C0
C7C0
C0E0
C070
C030
C030
C038
C030
C030
C070
C0E0
CFC0
CF80
ENDCHAR
STARTCHAR 1EF2
ENCODING 7922
SWIDTH 548 0
DWIDTH 16 0
BBX 13 29 2 0
BITMAP
1000
3000
3800
1C00
0E00
0600
0400
4018
C038
C038
C038
C038
C038
C038
C038
C038
C038
C030
C030
E070
70E0
3FC0
1F80
0600
0600
0600
0600
0600
0400
ENDCHAR
STARTCHAR 1EF3
ENCODING 7923
SWIDTH 548 0
DWIDTH 16 0
BBX 10 29 3 -6
BITMAP
2000
7000
7800
3C00
1C00
0800
0000
4040
C0C0
C0C0
C0C0
C0C0
C0C0
C0C0
C0C0
C0C0
C0C0
C0C0
C0C0
E0C0
61C0
7FC0
1FC0
00C0
00C0
E0C0
71C0
7F80
1E00
ENDCHAR
STARTCHAR 1EF4
ENCODING 7924
SWIDTH 548 0
DWIDTH 16 0
BBX 13 28 2 -6
BITMAP
4018
C038
C038
C038
C038
C038
C038
C038
C038
C038
C030
C030
E070
70E0
3FC0
1F80
0600
0600
0600
0600
0600
0400
0000
0000
0600
0F00
0F00
0600
ENDCHAR
STARTCHAR 1EF5
ENCODING 7925
SWIDTH 548 0
DWIDTH 16 0
BBX 14 22 3 -6
BITMAP
4040
C0C0
C0C0
C0C0
C0C0
C0C0
C0C0
C0C0
C0C0
C0C0
C0C0
C0C0
E0C0
61C0
7FC0
1FC0
00C0
00C0
E0D8
71FC
3FBC
1E18
ENDCHAR
STARTCHAR 1EF8
ENCODING 7928
SWIDTH 548 0
DWIDTH 16 0
BBX 13 28 2 0
BITMAP
0800
1C60
3FE0
77C0
2380
0000
4018
C038
C038
C038
C038
C038
C038
C038
C038
C038
C030
C030
E070
70E0
3FC0
1F80
0600
0600
0600
0600
0600
0400
ENDCHAR
STARTCHAR 1EF9
ENCODING 7929
SWIDTH 548 0
DWIDTH 16 0
BBX 10 28 3 -6
BITMAP
1840
3CC0
7FC0
E780
4300
0000
4040
C0C0
C0C0
C0C0
C0C0
C0C0
C0C0
C0C0
C0C0
C0C0
C0C0
C0C0
E0C0
61C0
7FC0
1FC0
00C0
00C0
E0C0
71C0
7F80
1E00
ENDCHAR
STARTCHAR 2010
ENCODING 8208
SWIDTH 548 0
DWIDTH 16 0
BBX 9 2 4 10
BITMAP
FF80
FF00
ENDCHAR
STARTCHAR 2011
ENCODING 8209
SWIDTH 548 0
DWIDTH 16 0
BBX 9 2 4 10
BITMAP
FF80
FF00
ENDCHAR
STARTCHAR 2012
ENCODING 8210
SWIDTH 548 0
DWIDTH 16 0
BBX 12 2 2 10
BITMAP
7FF0
FFF0
ENDCHAR
STARTCHAR 2013
ENCODING 8211
SWIDTH 548 0
DWIDTH 16 0
BBX 12 2 2 10
BITMAP
7FF0
FFF0
ENDCHAR
STARTCHAR 2014
ENCODING 8212
SWIDTH 548 0
DWIDTH 16 0
BBX 16 2 0 10
BITMAP
7FFF
FFFF
ENDCHAR
STARTCHAR 2015
ENCODING 8213
SWIDTH 548 0
DWIDTH 16 0
BBX 16 2 0 10
BITMAP
7FFF
FFFF
ENDCHAR
STARTCHAR 2016
ENCODING 8214
SWIDTH 548 0
DWIDTH 16 0
BBX 7 31 5 -5
BITMAP
C6
CE
CE
CE
CE
CE
CE
CE
CE
CE
CE
CE
CE
CE
CE
CE
CE
CE
CE
CE
CE
CE
CE
CE
CE
CE
CE
CE
CE
CE
88
ENDCHAR
STARTCHAR 2017
ENCODING 8215
SWIDTH 548 0
DWIDTH 16 0
BBX 12 6 2 -4
BITMAP
7FF0
FFF0
0000
0000
7FF0
FFF0
ENDCHAR
STARTCHAR 2018
ENCODING 8216
SWIDTH 548 0
DWIDTH 16 0
BBX 4 7 6 15
BITMAP
30
70
E0
C0
F0
F0
60
ENDCHAR
STARTCHAR 2019
ENCODING 8217
SWIDTH 548 0
DWIDTH 16 0
BBX 4 7 6 15
BITMAP
60
F0
F0
70
70
E0
C0
ENDCHAR
STARTCHAR 201A
ENCODING 8218
SWIDTH 548 0
DWIDTH 16 0
BBX 4 7 6 -4
BITMAP
60
F0
F0
70
60
E0
C0
ENDCHAR
STARTCHAR 201B
ENCODING 8219
SWIDTH 548 0
DWIDTH 16 0
BBX 4 7 6 15
BITMAP
60
F0
F0
C0
E0
70
30
ENDCHAR
STARTCHAR 201C
ENCODING 8220
SWIDTH 548 0
DWIDTH 16 0
BBX 10 7 3 15
BITMAP
30C0
71C0
6300
E300
F380
F3C0
7380
ENDCHAR
STARTCHAR 201D
ENCODING 8221
SWIDTH 548 0
DWIDTH 16 0
BBX 10 7 3 15
BITMAP
7180
7BC0
7BC0
39C0
31C0
7380
E300
ENDCHAR
STARTCHAR 201E
ENCODING 8222
SWIDTH 548 0
DWIDTH 16 0
BBX 10 7 3 -4
BITMAP
7180
7BC0
7BC0
39C0
31C0
7380
E300
ENDCHAR
STARTCHAR 201F
ENCODING 8223
SWIDTH 548 0
DWIDTH 16 0
BBX 10 7 3 15
BITMAP
7380
F3C0
F380
E300
6300
7180
30C0
ENDCHAR
STARTCHAR 2020
ENCODING 8224
SWIDTH 548 0
DWIDTH 16 0
BBX 12 22 2 0
BITMAP
0200
0600
0600
0600
0600
0600
7FF0
FFF0
0600
0600
0600
0600
0600
0600
0600
0600
0600
0600
0600
0600
0600
0400
ENDCHAR
STARTCHAR 2021
ENCODING 8225
SWIDTH 548 0
DWIDTH 16 0
BBX 12 22 2 0
BITMAP
0200
0600
0600
0600
0600
0600
7FF0
FFF0
0600
0600
0600
0600
0600
0600
0600
7FF0
FFF0
0600
0600
0600
0600
0400
ENDCHAR
STARTCHAR 2022
ENCODING 8226
SWIDTH 548 0
DWIDTH 16 0
BBX 8 8 4 7
BITMAP
3C
7E
FF
FF
FF
FF
7E
3C
ENDCHAR
STARTCHAR 2023
ENCODING 8227
SWIDTH 548 0
DWIDTH 16 0
BBX 9 11 4 5
BITMAP
8000
E000
F800
FC00
FF00
FF80
FF00
FC00
F000
C000
8000
ENDCHAR
STARTCHAR 2024
ENCODING 8228
SWIDTH 548 0
DWIDTH 16 0
BBX 4 4 6 0
BITMAP
60
F0
F0
60
ENDCHAR
STARTCHAR 2025
ENCODING 8229
SWIDTH 548 0
DWIDTH 16 0
BBX 10 4 3 0
BITMAP
61C0
F1C0
F1C0
61C0
ENDCHAR
STARTCHAR 2026
ENCODING 8230
SWIDTH 548 0
DWIDTH 16 0
BBX 14 4 1 0
BITMAP
E31C
E79C
E79C
E31C
ENDCHAR
STARTCHAR 2027
ENCODING 8231
SWIDTH 548 0
DWIDTH 16 0
BBX 4 4 6 9
BITMAP
60
F0
F0
60
ENDCHAR
STARTCHAR 2030
ENCODING 8240
SWIDTH 548 0
DWIDTH 16 0
BBX 16 22 0 0
BITMAP
3C00
7E00
E702
C30E
C31E
E73C
7E70
3CE0
03C0
0780
0F00
1C00
3800
7000
2000
3C3C
7E7E
E763
C3C3
E763
7E7E
3C3C
ENDCHAR
STARTCHAR 2031
ENCODING 8241
SWIDTH 548 0
DWIDTH 16 0
BBX 16 22 0 0
BITMAP
3C00
7E00
E702
C30E
C31E
E73C
7E70
3CE0
03C0
0780
0F00
1C00
3800
7000
2000
18C6
3DEF
2529
2529
2529
3DEF
18C6
ENDCHAR
STARTCHAR 2032
ENCODING 8242
SWIDTH 548 0
DWIDTH 16 0
BBX 4 6 6 16
BITMAP
20
70
70
60
E0
60
ENDCHAR
STARTCHAR 2033
ENCODING 8243
SWIDTH 548 0
DWIDTH 16 0
BBX 8 6 4 16
BITMAP
62
63
67
E7
C6
42
ENDCHAR
STARTCHAR 2034
ENCODING 8244
SWIDTH 548 0
DWIDTH 16 0
BBX 13 6 2 16
BITMAP
4210
6738
E630
C630
CE70
C620
ENDCHAR
STARTCHAR 2035
ENCODING 8245
SWIDTH 548 0
DWIDTH 16 0
BBX 4 6 6 16
BITMAP
60
E0
60
70
70
20
ENDCHAR
STARTCHAR 2036
ENCODING 8246
SWIDTH 548 0
DWIDTH 16 0
BBX 8 6 4 16
BITMAP
42
C6
E7
67
63
62
ENDCHAR
STARTCHAR 2037
ENCODING 8247
SWIDTH 548 0
DWIDTH 16 0
BBX 13 6 2 16
BITMAP
C620
CE70
C630
E730
6738
4210
ENDCHAR
STARTCHAR 2038
ENCODING 8248
SWIDTH 548 0
DWIDTH 16 0
BBX 11 6 3 0
BITMAP
0C00
1E00
3F80
F3C0
E0E0
8040
ENDCHAR
STARTCHAR 2039
ENCODING 8249
SWIDTH 548 0
DWIDTH 16 0
BBX 7 16 5 3
BITMAP
04
0E
1C
38
38
70
E0
C0
C0
E0
70
30
38
1C
0E
04
ENDCHAR
STARTCHAR 203A
ENCODING 8250
SWIDTH 548 0
DWIDTH 16 0
BBX 7 16 5 3
BITMAP
C0
C0
E0
70
30
38
1C
0E
0E
1C
18
38
70
E0
C0
C0
ENDCHAR
STARTCHAR 203B
ENCODING 8251
SWIDTH 548 0
DWIDTH 16 0
BBX 14 15 1 3
BITMAP
0380
2798
77B8
3B70
1CE0
6FDC
F79C
F79C
6FDC
1CE0
3870
7338
6798
0780
0300
ENDCHAR
STARTCHAR 203C
ENCODING 8252
SWIDTH 548 0
DWIDTH 16 0
BBX 8 22 4 0
BITMAP
21
67
67
67
67
67
67
67
67
67
67
67
67
67
67
67
04
00
67
F7
F7
67
ENDCHAR
STARTCHAR 203D
ENCODING 8253
SWIDTH 548 0
DWIDTH 16 0
BBX 13 22 2 0
BITMAP
0F80
3FC0
7EE0
E670
C630
C630
C638
0630
0630
0670
07E0
07C0
0700
0600
0600
0600
0400
0000
0600
0F00
0F00
0600
ENDCHAR
STARTCHAR 203E
ENCODING 8254
SWIDTH 548 0
DWIDTH 16 0
BBX 12 2 2 20
BITMAP
7FF0
FFF0
ENDCHAR
STARTCHAR 203F
ENCODING 8255
SWIDTH 548 0
DWIDTH 16 0
BBX 14 4 1 -4
BITMAP
6018
F83C
3FF8
0FE0
ENDCHAR
STARTCHAR 2040
ENCODING 8256
SWIDTH 548 0
DWIDTH 16 0
BBX 14 4 1 21
BITMAP
0FE0
3FF8
F83C
6018
ENDCHAR
STARTCHAR 2041
ENCODING 8257
SWIDTH 548 0
DWIDTH 16 0
BBX 10 17 3 0
BITMAP
0100
0380
0300
0700
0600
0E00
0E00
0E00
1E00
1F00
3B00
3380
7380
6180
E1C0
E0C0
4080
ENDCHAR
STARTCHAR 2042
ENCODING 8258
SWIDTH 548 0
DWIDTH 16 0
BBX 14 15 1 3
BITMAP
0300
0FC0
0FC0
0FC0
0FC0
0300
0000
0000
3030
74FC
FDFC
7878
FEFC
74FC
3030
ENDCHAR
STARTCHAR 2043
ENCODING 8259
SWIDTH 548 0
DWIDTH 16 0
BBX 8 5 4 8
BITMAP
FF
FF
FF
FF
FF
ENDCHAR
STARTCHAR 2044
ENCODING 8260
SWIDTH 548 0
DWIDTH 16 0
BBX 14 31 1 -5
BITMAP
000C
000C
001C
001C
0018
0038
0030
0070
0060
00E0
00E0
00C0
01C0
0180
0380
0300
0700
0700
0600
0E00
0C00
1C00
1800
3800
3800
3000
7000
6000
E000
C000
4000
ENDCHAR
STARTCHAR 2045
ENCODING 8261
SWIDTH 548 0
DWIDTH 16 0
BBX 8 31 6 -5
BITMAP
7F
FE
E0
E0
E0
E0
E0
E0
E0
E0
E0
E0
E0
E0
FC
F8
E0
E0
E0
E0
E0
E0
E0
E0
E0
E0
E0
E0
E0
FF
FE
ENDCHAR
STARTCHAR 2046
ENCODING 8262
SWIDTH 548 0
DWIDTH 16 0
BBX 8 31 6 -5
BITMAP
7F
FF
03
03
03
03
03
03
03
03
03
03
03
03
1F
3F
03
03
03
03
03
03
03
03
03
03
03
03
03
7F
FE
ENDCHAR
STARTCHAR 2047
ENCODING 8263
SWIDTH 548 0
DWIDTH 16 0
BBX 15 22 1 0
BITMAP
3830
7C78
ECCC
CECC
C6CE
C786
C786
060E
0E0C
0C0C
1C1C
1838
3830
3030
3030
2020
0000
0000
3030
7878
7878
3030
ENDCHAR
STARTCHAR 2048
ENCODING 8264
SWIDTH 548 0
DWIDTH 16 0
BBX 12 22 2 0
BITMAP
3820
7C60
6660
6660
C660
C660
C760
0660
0660
0660
0E60
1C60
1860
1860
3060
3060
0040
0000
3860
38F0
38F0
3860
ENDCHAR
STARTCHAR 2049
ENCODING 8265
SWIDTH 548 0
DWIDTH 16 0
BBX 12 22 2 0
BITMAP
21C0
63E0
6760
6670
6630
6630
6630
6030
6030
6060
60E0
60C0
61C0
6180
6180
6100
4000
0000
6180
F3C0
F3C0
6180
ENDCHAR
STARTCHAR 204A
ENCODING 8266
SWIDTH 548 0
DWIDTH 16 0
BBX 12 12 2 0
BITMAP
7FF0
FFF0
0060
00E0
00E0
01C0
01C0
0180
0380
0380
0300
0600
ENDCHAR
STARTCHAR 204B
ENCODING 8267
SWIDTH 548 0
DWIDTH 16 0
BBX 9 21 4 0
BITMAP
F800
FC00
FE00
FF00
FF00
FF80
FF80
FF80
FF00
FF00
FE00
FC00
F000
C000
C000
C000
C000
C000
C000
C000
8000
ENDCHAR
STARTCHAR 204C
ENCODING 8268
SWIDTH 548 0
DWIDTH 16 0
BBX 9 13 4 4
BITMAP
1F80
3E80
7E80
FE80
FE80
FE80
FE80
FE80
FE80
FE80
7E80
3E80
1F80
ENDCHAR
STARTCHAR 204D
ENCODING 8269
SWIDTH 548 0
DWIDTH 16 0
BBX 9 13 4 4
BITMAP
F800
FC00
FE00
FF00
FF00
FF80
FF80
FF80
FF00
FF00
FE00
FC00
F800
ENDCHAR
STARTCHAR 204E
ENCODING 8270
SWIDTH 548 0
DWIDTH 16 0
BBX 12 12 2 1
BITMAP
0600
0600
2660
FFF0
3FC0
0F80
3FC0
FFF0
2660
0600
0600
0400
ENDCHAR
STARTCHAR 204F
ENCODING 8271
SWIDTH 548 0
DWIDTH 16 0
BBX 4 17 6 -4
BITMAP
E0
E0
E0
E0
00
00
00
00
00
40
E0
E0
E0
C0
E0
70
10
ENDCHAR
STARTCHAR 2050
ENCODING 8272
SWIDTH 548 0
DWIDTH 16 0
BBX 10 16 3 3
BITMAP
3F00
7F80
E1C0
C0C0
0000
0000
0000
0000
0000
0000
0000
0000
C0C0
E1C0
7F80
3F00
ENDCHAR
STARTCHAR 2051
ENCODING 8273
SWIDTH 548 0
DWIDTH 16 0
BBX 12 22 2 0
BITMAP
0200
0600
0600
2660
FFF0
3FC0
0F00
3FC0
FFF0
2660
0600
0600
2660
FFF0
3FC0
0F80
3FC0
FFF0
2660
0600
0600
0400
ENDCHAR
STARTCHAR 2052
ENCODING 8274
SWIDTH 548 0
DWIDTH 16 0
BBX 14 22 1 0
BITMAP
1808
3C1C
3C18
1838
0030
0070
00E0
00E0
01C0
0180
0380
0300
0700
0E00
0C00
1C00
1800
3800
7070
7070
E070
4070
ENDCHAR
STARTCHAR 2053
ENCODING 8275
SWIDTH 548 0
DWIDTH 16 0
BBX 12 4 2 9
BITMAP
3C10
7F30
E7F0
C1E0
ENDCHAR
STARTCHAR 2054
ENCODING 8276
SWIDTH 548 0
DWIDTH 16 0
BBX 14 4 1 -4
BITMAP
0FE0
3FF8
F83C
6018
ENDCHAR
STARTCHAR 2055
ENCODING 8277
SWIDTH 548 0
DWIDTH 16 0
BBX 12 11 2 5
BITMAP
0600
0600
2660
FFF0
3FC0
0F00
3FC0
FFF0
2660
0600
0600
ENDCHAR
STARTCHAR 2056
ENCODING 8278
SWIDTH 548 0
DWIDTH 16 0
BBX 9 15 4 3
BITMAP
0300
0780
0780
0300
0000
E000
E000
E000
E000
0000
0000
0300
0780
0780
0300
ENDCHAR
STARTCHAR 2057
ENCODING 8279
SWIDTH 548 0
DWIDTH 16 0
BBX 13 6 2 16
BITMAP
4990
6DB8
FDB0
DFB0
DB70
C920
ENDCHAR
STARTCHAR 2058
ENCODING 8280
SWIDTH 548 0
DWIDTH 16 0
BBX 14 15 1 3
BITMAP
0300
0780
0780
0300
0000
601C
F01C
F01C
601C
0000
0000
0300
0780
0780
0300
ENDCHAR
STARTCHAR 2059
ENCODING 8281
SWIDTH 548 0
DWIDTH 16 0
BBX 13 14 2 4
BITMAP
C030
E078
E078
E030
0000
0600
0F00
0F00
0600
0000
E030
E078
E078
E030
ENDCHAR
STARTCHAR 205A
ENCODING 8282
SWIDTH 548 0
DWIDTH 16 0
BBX 4 22 6 0
BITMAP
60
F0
F0
60
00
00
00
00
00
00
00
00
00
00
00
00
00
00
60
F0
F0
60
ENDCHAR
STARTCHAR 205B
ENCODING 8283
SWIDTH 548 0
DWIDTH 16 0
BBX 14 22 1 0
BITMAP
0300
0780
0780
0300
0000
0000
0000
0000
0000
601C
F01C
F01C
601C
0000
0000
0000
0000
0000
0300
0780
0780
0300
ENDCHAR
STARTCHAR 205C
ENCODING 8284
SWIDTH 548 0
DWIDTH 16 0
BBX 14 14 1 4
BITMAP
7318
733C
733C
7318
0300
0300
7FFC
FFFC
0300
0300
7318
733C
733C
7318
ENDCHAR
STARTCHAR 205D
ENCODING 8285
SWIDTH 548 0
DWIDTH 16 0
BBX 4 22 6 0
BITMAP
60
F0
F0
60
00
00
00
00
00
60
F0
F0
60
00
00
00
00
00
60
F0
F0
60
ENDCHAR
STARTCHAR 205E
ENCODING 8286
SWIDTH 548 0
DWIDTH 16 0
BBX 4 22 6 0
BITMAP
60
F0
F0
60
00
00
60
F0
F0
60
00
00
60
F0
F0
60
00
00
60
F0
F0
60
ENDCHAR
STARTCHAR 2070
ENCODING 8304
SWIDTH 548 0
DWIDTH 16 0
BBX 7 11 5 11
BITMAP
78
FC
CE
9E
9E
B6
F6
E6
CE
FC
78
ENDCHAR
STARTCHAR 2071
ENCODING 8305
SWIDTH 548 0
DWIDTH 16 0
BBX 7 12 5 10
BITMAP
C0
C0
C0
00
40
C0
C0
C0
C6
CE
FC
78
ENDCHAR
STARTCHAR 2074
ENCODING 8308
SWIDTH 548 0
DWIDTH 16 0
BBX 7 10 5 12
BITMAP
0C
1C
1C
3C
7C
6C
FE
FC
0C
0C
ENDCHAR
STARTCHAR 2075
ENCODING 8309
SWIDTH 548 0
DWIDTH 16 0
BBX 6 10 5 12
BITMAP
7C
7C
60
60
78
7C
4C
CC
FC
78
ENDCHAR
STARTCHAR 2076
ENCODING 8310
SWIDTH 548 0
DWIDTH 16 0
BBX 7 11 5 11
BITMAP
78
FC
CC
C6
F8
FC
CC
C6
CC
FC
78
ENDCHAR
STARTCHAR 2077
ENCODING 8311
SWIDTH 548 0
DWIDTH 16 0
BBX 8 10 4 11
BITMAP
7F
FE
06
0C
0C
18
38
30
70
60
ENDCHAR
STARTCHAR 2078
ENCODING 8312
SWIDTH 548 0
DWIDTH 16 0
BBX 7 11 5 11
BITMAP
78
FC
CC
CC
FC
FC
CE
86
CE
FC
78
ENDCHAR
STARTCHAR 2079
ENCODING 8313
SWIDTH 548 0
DWIDTH 16 0
BBX 7 11 5 11
BITMAP
78
FC
CC
C6
CE
FE
7E
C6
CC
FC
78
ENDCHAR
STARTCHAR 207A
ENCODING 8314
SWIDTH 548 0
DWIDTH 16 0
BBX 8 8 4 12
BITMAP
08
18
18
7F
FF
18
18
10
ENDCHAR
STARTCHAR 207B
ENCODING 8315
SWIDTH 548 0
DWIDTH 16 0
BBX 8 2 4 15
BITMAP
7F
FF
ENDCHAR
STARTCHAR 207C
ENCODING 8316
SWIDTH 548 0
DWIDTH 16 0
BBX 8 6 4 13
BITMAP
7F
FF
00
00
7F
FF
ENDCHAR
STARTCHAR 207D
ENCODING 8317
SWIDTH 548 0
DWIDTH 16 0
BBX 6 13 5 10
BITMAP
08
3C
30
70
60
E0
E0
E0
E0
60
70
38
1C
ENDCHAR
STARTCHAR 207E
ENCODING 8318
SWIDTH 548 0
DWIDTH 16 0
BBX 6 13 5 10
BITMAP
40
F0
38
18
1C
1C
0C
0C
1C
1C
38
70
60
ENDCHAR
STARTCHAR 207F
ENCODING 8319
SWIDTH 548 0
DWIDTH 16 0
BBX 7 10 5 12
BITMAP
78
FC
CC
C6
C6
C6
C6
C6
C6
84
ENDCHAR
STARTCHAR 2080
ENCODING 8320
SWIDTH 548 0
DWIDTH 16 0
BBX 7 10 5 0
BITMAP
78
FC
DE
9E
B6
B6
E6
EE
FC
78
ENDCHAR
STARTCHAR 2081
ENCODING 8321
SWIDTH 548 0
DWIDTH 16 0
BBX 4 10 5 0
BITMAP
10
70
F0
70
30
30
30
30
30
30
ENDCHAR
STARTCHAR 2082
ENCODING 8322
SWIDTH 548 0
DWIDTH 16 0
BBX 7 10 5 0
BITMAP
78
FC
CC
C6
0C
3C
70
E0
FE
FC
ENDCHAR
STARTCHAR 2083
ENCODING 8323
SWIDTH 548 0
DWIDTH 16 0
BBX 6 10 5 0
BITMAP
FC
FC
18
30
38
1C
CC
CC
FC
78
ENDCHAR
STARTCHAR 2084
ENCODING 8324
SWIDTH 548 0
DWIDTH 16 0
BBX 7 10 5 0
BITMAP
04
1C
1C
3C
7C
6C
FE
FC
0C
08
ENDCHAR
STARTCHAR 2085
ENCODING 8325
SWIDTH 548 0
DWIDTH 16 0
BBX 6 10 5 0
BITMAP
7C
7C
60
60
78
7C
4C
CC
FC
78
ENDCHAR
STARTCHAR 2086
ENCODING 8326
SWIDTH 548 0
DWIDTH 16 0
BBX 7 10 5 0
BITMAP
78
FC
C6
F8
FC
CC
C6
CC
FC
78
ENDCHAR
STARTCHAR 2087
ENCODING 8327
SWIDTH 548 0
DWIDTH 16 0
BBX 8 11 4 0
BITMAP
7F
FE
06
0C
0C
18
18
30
30
60
C0
ENDCHAR
STARTCHAR 2088
ENCODING 8328
SWIDTH 548 0
DWIDTH 16 0
BBX 7 10 5 0
BITMAP
78
FC
CC
CC
7C
FC
C6
CE
FC
78
ENDCHAR
STARTCHAR 2089
ENCODING 8329
SWIDTH 548 0
DWIDTH 16 0
BBX 7 10 5 0
BITMAP
78
FC
CC
CE
FE
7E
C6
CE
FC
78
ENDCHAR
STARTCHAR 208A
ENCODING 8330
SWIDTH 548 0
DWIDTH 16 0
BBX 8 8 4 1
BITMAP
08
18
18
7F
FF
18
18
10
ENDCHAR
STARTCHAR 208B
ENCODING 8331
SWIDTH 548 0
DWIDTH 16 0
BBX 8 2 4 4
BITMAP
7F
FF
ENDCHAR
STARTCHAR 208C
ENCODING 8332
SWIDTH 548 0
DWIDTH 16 0
BBX 8 7 4 1
BITMAP
7F
FF
00
00
00
7F
FF
ENDCHAR
STARTCHAR 208D
ENCODING 8333
SWIDTH 548 0
DWIDTH 16 0
BBX 6 13 5 -1
BITMAP
08
3C
70
70
60
E0
E0
E0
E0
60
70
38
1C
ENDCHAR
STARTCHAR 208E
ENCODING 8334
SWIDTH 548 0
DWIDTH 16 0
BBX 6 13 5 -1
BITMAP
40
F0
38
18
1C
1C
0C
0C
1C
1C
38
70
60
ENDCHAR
STARTCHAR 2090
ENCODING 8336
SWIDTH 548 0
DWIDTH 16 0
BBX 7 10 5 0
BITMAP
78
FC
CC
C6
1E
FE
E6
C6
FE
7C
ENDCHAR
STARTCHAR 2091
ENCODING 8337
SWIDTH 548 0
DWIDTH 16 0
BBX 7 10 5 0
BITMAP
78
FC
CC
C6
FE
FA
C6
CC
FC
78
ENDCHAR
STARTCHAR 2092
ENCODING 8338
SWIDTH 548 0
DWIDTH 16 0
BBX 7 10 5 0
BITMAP
78
FC
CE
C6
C6
C6
C6
CC
FC
78
ENDCHAR
STARTCHAR 2093
ENCODING 8339
SWIDTH 548 0
DWIDTH 16 0
BBX 8 10 4 0
BITMAP
42
E7
76
3C
1C
1C
3C
76
E7
42
ENDCHAR
STARTCHAR 2094
ENCODING 8340
SWIDTH 548 0
DWIDTH 16 0
BBX 7 10 5 0
BITMAP
78
FC
CC
C6
1E
7E
E6
CC
FC
78
ENDCHAR
STARTCHAR 20A0
ENCODING 8352
SWIDTH 548 0
DWIDTH 16 0
BBX 12 21 2 0
BITMAP
3C00
7E00
E700
C700
C400
C000
C000
C3F0
C3E0
C300
C300
C700
E700
7FF0
3FF0
0700
0700
0700
0700
07F0
07F0
ENDCHAR
STARTCHAR 20A1
ENCODING 8353
SWIDTH 548 0
DWIDTH 16 0
BBX 14 31 1 -5
BITMAP
0088
01CC
019C
0198
0198
0FD8
1FF8
3B70
7338
6738
6678
6678
6660
6E60
6CE0
6CC0
6CC0
7CC0
79C0
798C
7998
7998
73B8
3B70
3FE0
77C0
6700
6600
6600
E600
4600
ENDCHAR
STARTCHAR 20A2
ENCODING 8354
SWIDTH 548 0
DWIDTH 16 0
BBX 13 22 2 0
BITMAP
0F80
3FC0
70E0
E070
C030
C030
C038
C7A0
CFC0
CCE0
DC60
DC40
DC00
DC00
DC08
DC38
DC30
DC30
E070
70E0
3FC0
0F80
ENDCHAR
STARTCHAR 20A3
ENCODING 8355
SWIDTH 548 0
DWIDTH 16 0
BBX 12 21 1 0
BITMAP
1FF0
3FF0
3000
3000
3000
3000
3000
FF80
FF80
3000
3000
3000
FF80
FF80
3000
3000
3000
3000
3000
3000
2000
ENDCHAR
STARTCHAR 20A4
ENCODING 8356
SWIDTH 548 0
DWIDTH 16 0
BBX 14 22 1 0
BITMAP
0780
0FE0
1C70
3830
3030
3030
3000
3000
3000
3000
7F80
FF80
3000
3000
3000
7F80
FF80
3000
3000
3000
3FFC
3FF8
ENDCHAR
STARTCHAR 20A5
ENCODING 8357
SWIDTH 548 0
DWIDTH 16 0
BBX 14 23 1 -4
BITMAP
0020
0070
0060
1CE0
7FF8
67D8
639C
639C
639C
631C
671C
671C
6F1C
6F1C
7F1C
7B1C
7B1C
7B1C
7218
7000
6000
E000
4000
ENDCHAR
STARTCHAR 20A6
ENCODING 8358
SWIDTH 548 0
DWIDTH 16 0
BBX 16 22 0 0
BITMAP
1006
380E
380E
3C0E
3C0E
3E0E
3E0E
370E
7FFF
FFFE
338E
31CE
31CE
7FFF
FFFE
307E
307E
303E
303E
301E
301E
2008
ENDCHAR
STARTCHAR 20A7
ENCODING 8359
SWIDTH 548 0
DWIDTH 16 0
BBX 16 22 0 0
BITMAP
3880
FD80
ED80
C780
C7E0
C7E0
C79C
C7BE
C7B3
C7B3
C7B2
C7B0
C798
ED9C
FD8C
F986
C187
C1A3
C1B3
C1B3
C1BE
811C
ENDCHAR
STARTCHAR 20A8
ENCODING 8360
SWIDTH 548 0
DWIDTH 16 0
BBX 16 22 0 0
BITMAP
3C00
FE00
E700
E300
C300
C300
C33C
C37E
C367
C3E3
C3E2
C370
E338
E73C
FE1C
FE0E
C687
C6E3
C7E3
C367
C37E
833C
ENDCHAR
STARTCHAR 20A9
ENCODING 8361
SWIDTH 548 0
DWIDTH 16 0
BBX 16 22 0 0
BITMAP
1084
318E
318E
31CC
31CC
31CC
39CC
3BCC
7FFF
FFFE
1BCC
1BFC
1BF8
7FFF
FFFE
1F78
0E78
0E78
0E78
0E78
0E30
0C20
ENDCHAR
STARTCHAR 20AA
ENCODING 8362
SWIDTH 548 0
DWIDTH 16 0
BBX 13 22 2 0
BITMAP
F818
FC38
CE38
C738
C338
C3B8
C1B8
C1B8
C1B8
C1B8
C038
C038
CC38
CC38
CC38
CC38
CC38
CC38
CE38
C738
C3F8
C1F0
ENDCHAR
STARTCHAR 20AB
ENCODING 8363
SWIDTH 548 0
DWIDTH 16 0
BBX 14 26 2 -4
BITMAP
0020
0060
0060
07FC
0FF8
0060
0FE0
3FE0
30E0
7060
6060
6060
6060
6060
6060
6060
6060
6060
7060
38E0
3FC0
0F00
0000
0000
7FF0
FFF0
ENDCHAR
STARTCHAR 20AC
ENCODING 8364
SWIDTH 548 0
DWIDTH 16 0
BBX 14 22 1 0
BITMAP
07C0
0FF0
1C38
3818
300C
300C
300C
3008
7F00
FF00
3000
3000
7F00
FF00
3004
300C
300C
300C
381C
1C38
0FF0
07C0
ENDCHAR
STARTCHAR 20AD
ENCODING 8365
SWIDTH 548 0
DWIDTH 16 0
BBX 14 22 1 0
BITMAP
1018
3018
3038
3070
30E0
30C0
31C0
3380
3700
3E00
7FF0
FFF0
3E00
3700
3380
31C0
30E0
30E0
3070
3038
301C
2018
ENDCHAR
STARTCHAR 20AE
ENCODING 8366
SWIDTH 548 0
DWIDTH 16 0
BBX 14 21 1 0
BITMAP
FFFC
FFFC
0300
0300
0300
0360
03F0
03E0
03C0
03A0
0770
0FE0
1FC0
1B80
0700
0F00
1F00
1B00
0300
0300
0200
ENDCHAR
STARTCHAR 20AF
ENCODING 8367
SWIDTH 548 0
DWIDTH 16 0
BBX 16 28 0 -6
BITMAP
0E00
1F80
3F80
3FC0
3DC0
0CC0
0CE0
0C60
0860
1860
1860
1866
186F
186F
1879
78D9
F8D9
F0DB
F9DB
FF9F
FF9E
6716
0030
0030
0030
0030
0030
0030
ENDCHAR
STARTCHAR 20B0
ENCODING 8368
SWIDTH 548 0
DWIDTH 16 0
BBX 16 22 0 0
BITMAP
01E0
07F8
061C
0E0C
0C0C
0C0C
0C0C
0C0C
0E1C
07F8
03F8
71FC
FF9E
CE06
0007
0003
0003
0007
0006
001E
007C
0070
ENDCHAR
STARTCHAR 20B1
ENCODING 8369
SWIDTH 548 0
DWIDTH 16 0
BBX 16 21 0 0
BITMAP
3FE0
3FF0
3038
7FFF
FFFE
300C
300C
300C
7FFF
FFFE
3038
3FF0
3FE0
3000
3000
3000
3000
3000
3000
3000
2000
ENDCHAR
STARTCHAR 20B2
ENCODING 8370
SWIDTH 548 0
DWIDTH 16 0
BBX 13 30 2 -4
BITMAP
0600
0600
0600
0600
0600
1FC0
7FE0
7670
E630
C630
C638
C620
C600
C600
C678
C6F8
C638
C638
C638
C638
C630
C630
6670
7FE0
1FC0
0600
0600
0600
0600
0600
ENDCHAR
STARTCHAR 20B3
ENCODING 8371
SWIDTH 548 0
DWIDTH 16 0
BBX 16 22 0 0
BITMAP
0080
01C0
03C0
03C0
03E0
03E0
0760
0660
7FFF
FFFE
0C30
0C38
1C38
7FFF
FFFE
381C
380C
300C
700E
7006
6006
2006
ENDCHAR
STARTCHAR 20B4
ENCODING 8372
SWIDTH 548 0
DWIDTH 16 0
BBX 14 22 1 0
BITMAP
07C0
0FE0
1C70
1838
3838
3018
0038
FFFC
FFFC
0FE0
1FC0
3E00
FFFC
FFFC
6000
601C
6018
6018
7038
3870
1FE0
07C0
ENDCHAR
STARTCHAR 20B5
ENCODING 8373
SWIDTH 548 0
DWIDTH 16 0
BBX 13 31 2 -5
BITMAP
0200
0600
0600
0600
0600
1F80
3FE0
76F0
E670
C630
C638
C630
C600
C600
C600
C600
C600
C600
C600
C638
C630
C630
E670
7EE0
3FC0
0F80
0600
0600
0600
0600
0400
ENDCHAR
STARTCHAR 20B9
ENCODING 8377
SWIDTH 548 0
DWIDTH 16 0
BBX 16 21 0 0
BITMAP
7FFF
FFFE
00E0
00E0
0060
7FFF
FFFE
0070
0070
08E0
1FE0
0F80
0700
0380
01C0
00E0
0070
0038
001C
000E
0004
ENDCHAR
STARTCHAR 2100
ENCODING 8448
SWIDTH 548 0
DWIDTH 16 0
BBX 14 22 1 0
BITMAP
3800
7C00
CE00
C600
1E00
7E04
E61C
C63C
FE70
3DE0
03C0
0700
1E78
3CFC
70CC
E18C
4180
0180
018C
00CC
00FC
0078
ENDCHAR
STARTCHAR 2101
ENCODING 8449
SWIDTH 548 0
DWIDTH 16 0
BBX 14 22 1 0
BITMAP
3800
7C00
CE00
C600
1E00
7E04
E61C
C63C
FE70
3DE0
03C0
0700
1E70
3CF8
70CC
E0C0
4078
000C
008C
00CC
00FC
0078
ENDCHAR
STARTCHAR 2102
ENCODING 8450
SWIDTH 548 0
DWIDTH 16 0
BBX 13 21 2 0
BITMAP
07E0
1818
3808
6800
4800
C800
8800
8800
8800
8800
8800
8800
8800
8800
8800
C800
4800
6800
3808
1818
07E0
ENDCHAR
STARTCHAR 2103
ENCODING 8451
SWIDTH 548 0
DWIDTH 16 0
BBX 16 22 0 0
BITMAP
3C3C
7E7E
C6E6
C6C7
E6C6
7EC0
3CC0
00C0
00C0
00C0
00C0
00C0
00C0
00C0
00C0
00C0
00C0
00C3
00C7
00E6
007E
003C
ENDCHAR
STARTCHAR 2104
ENCODING 8452
SWIDTH 548 0
DWIDTH 16 0
BBX 13 22 2 0
BITMAP
0400
0C00
0E00
3F80
7FC0
7DC0
ECE0
CCE0
CC40
CC00
CC00
CC00
CC20
CC60
ECE0
ECC0
7DC0
3F80
1F00
0C00
0FF8
0FF0
ENDCHAR
STARTCHAR 2105
ENCODING 8453
SWIDTH 548 0
DWIDTH 16 0
BBX 14 22 1 0
BITMAP
3800
7E00
E600
C600
C400
C004
C61C
E63C
7E70
3DE0
03C0
0700
1E70
3DF8
719C
E18C
418C
018C
018C
019C
01F8
00F0
ENDCHAR
STARTCHAR 2106
ENCODING 8454
SWIDTH 548 0
DWIDTH 16 0
BBX 14 22 1 0
BITMAP
3800
7C00
E600
C600
C600
C004
C61C
E63C
7E70
3DE0
03C0
0700
1E84
3D8C
718C
E18C
418C
018C
018C
018C
00F8
0070
ENDCHAR
STARTCHAR 2107
ENCODING 8455
SWIDTH 548 0
DWIDTH 16 0
BBX 12 21 2 0
BITMAP
0FC0
3FF0
7830
6000
E000
E000
E000
6000
7000
1F80
3F80
7000
E000
E000
C000
C000
E000
E000
7810
3FF0
0FE0
ENDCHAR
STARTCHAR 2108
ENCODING 8456
SWIDTH 548 0
DWIDTH 16 0
BBX 13 21 1 0
BITMAP
1F00
7FC0
E0E0
C070
0030
0038
0018
0018
0018
3FF8
3FF8
0018
0018
0018
0038
0038
8030
C070
E0E0
7FC0
1F00
ENDCHAR
STARTCHAR 2109
ENCODING 8457
SWIDTH 548 0
DWIDTH 16 0
BBX 15 22 0 0
BITMAP
3C7E
7EFE
C6C0
C6C0
66C0
7EC0
38C0
00C0
00C0
00C0
00FE
00FE
00C0
00C0
00C0
00C0
00C0
00C0
00C0
00C0
00C0
0080
ENDCHAR
STARTCHAR 210A
ENCODING 8458
SWIDTH 548 0
DWIDTH 16 0
BBX 16 19 0 -7
BITMAP
07B0
0C70
1870
1870
3070
3070
3060
3060
1060
18E0
07FE
01E3
06C0
0CC0
11C0
2380
4700
9E00
7800
ENDCHAR
STARTCHAR 210B
ENCODING 8459
SWIDTH 548 0
DWIDTH 16 0
BBX 16 21 0 0
BITMAP
1F03
2207
4205
4208
4208
C208
C208
4210
0210
03F0
0210
0610
0610
0610
0410
0410
0410
0418
C81A
D00A
600C
ENDCHAR
STARTCHAR 210C
ENCODING 8460
SWIDTH 548 0
DWIDTH 16 0
BBX 16 26 0 -4
BITMAP
0104
0388
03C8
07F0
0CE0
0800
1800
183C
187E
1C8F
0D07
0E07
0E03
0603
0603
0203
0203
0203
3403
7C03
9802
0806
0004
0024
0078
0030
ENDCHAR
STARTCHAR 210D
ENCODING 8461
SWIDTH 548 0
DWIDTH 16 0
BBX 14 21 1 0
BITMAP
F03C
9024
9024
9024
9024
9024
9024
9024
9024
9FE4
9FE4
9024
9024
9024
9024
9024
9024
9024
9024
9024
F03C
ENDCHAR
STARTCHAR 210E
ENCODING 8462
SWIDTH 548 0
DWIDTH 16 0
BBX 13 22 1 0
BITMAP
1C00
1C00
1800
1800
1800
1800
3800
39F0
37F8
3C38
3818
7018
7018
7018
6018
6038
6038
E030
E030
C030
C030
C070
ENDCHAR
STARTCHAR 210F
ENCODING 8463
SWIDTH 548 0
DWIDTH 16 0
BBX 14 22 1 0
BITMAP
1C00
1C00
1C40
1BC0
1E00
F800
B9F0
3BF8
3E38
3818
381C
301C
7018
7018
6018
6018
6038
6038
E030
E030
C030
C070
ENDCHAR
STARTCHAR 2110
ENCODING 8464
SWIDTH 548 0
DWIDTH 16 0
BBX 10 20 3 0
BITMAP
0FC0
3180
4180
C180
C180
C180
0180
0180
0180
0180
0180
0180
0180
0180
0100
0100
0300
C200
C400
7800
ENDCHAR
STARTCHAR 2111
ENCODING 8465
SWIDTH 548 0
DWIDTH 16 0
BBX 13 23 1 -1
BITMAP
1F00
3FF8
43E8
0010
0030
0030
0030
0030
0030
0038
0038
0038
0018
0018
0018
0018
0018
0010
3830
7C20
9E60
0FC0
0700
ENDCHAR
STARTCHAR 2112
ENCODING 8466
SWIDTH 548 0
DWIDTH 16 0
BBX 14 22 1 0
BITMAP
03C0
04C0
0C60
0840
0800
0800
0800
1800
1800
1800
1800
1800
1800
1800
1004
1004
2004
7804
5E04
8788
83F8
80F0
ENDCHAR
STARTCHAR 2113
ENCODING 8467
SWIDTH 548 0
DWIDTH 16 0
BBX 10 22 2 0
BITMAP
0380
0780
06C0
0CC0
0C80
0D80
0D80
1980
1980
1B00
1B00
1B00
3600
3600
3C00
3C00
3800
3800
3000
7800
7980
CF00
ENDCHAR
STARTCHAR 2114
ENCODING 8468
SWIDTH 548 0
DWIDTH 16 0
BBX 20 23 0 -1
BITMAP
39C000
39C000
FFFFC0
FFFFC0
39C000
39C000
39C000
39CF00
39FFC0
39F1E0
39E0E0
39C060
39C070
39C070
39C070
39C070
39C070
39C070
39C060
39E0E0
39F1E0
003FC0
000F00
ENDCHAR
STARTCHAR 2115
ENCODING 8469
SWIDTH 548 0
DWIDTH 16 0
BBX 12 21 2 0
BITMAP
F010
8810
C810
C410
E410
A410
A210
9210
9110
8910
8910
8890
8490
8450
8250
8270
8230
8130
8130
8110
80F0
ENDCHAR
STARTCHAR 2116
ENCODING 8470
SWIDTH 548 0
DWIDTH 16 0
BBX 16 22 0 0
BITMAP
7030
7030
7060
7860
7860
7860
6C60
6C60
6C66
6467
666D
6669
6269
6369
6369
636D
61E7
61E6
61E0
60E0
E0EF
C0EF
ENDCHAR
STARTCHAR 2117
ENCODING 8471
SWIDTH 548 0
DWIDTH 16 0
BBX 16 16 0 3
BITMAP
07E0
0C18
300C
27C6
47E2
4631
C631
87E1
87C1
4601
4603
4602
2406
100C
0C18
03E0
ENDCHAR
STARTCHAR 2118
ENCODING 8472
SWIDTH 548 0
DWIDTH 16 0
BBX 14 20 1 -5
BITMAP
0800
1038
10FC
318C
330C
360C
340C
380C
380C
380C
3808
7C18
4C30
CDE0
CC00
CC00
CC00
C800
F800
7000
ENDCHAR
STARTCHAR 2119
ENCODING 8473
SWIDTH 548 0
DWIDTH 16 0
BBX 13 21 2 0
BITMAP
FFC0
90E0
90B0
9090
9090
9098
9098
9090
9090
90B0
90E0
9FC0
9000
9000
9000
9000
9000
9000
9000
9000
F000
ENDCHAR
STARTCHAR 211A
ENCODING 8474
SWIDTH 548 0
DWIDTH 16 0
BBX 14 24 1 -3
BITMAP
0780
1860
3830
2830
6828
4828
4828
482C
C824
C824
C824
C824
C824
482C
4828
4828
6828
2830
3830
1860
07C0
00E0
0060
0030
ENDCHAR
STARTCHAR 211B
ENCODING 8475
SWIDTH 548 0
DWIDTH 16 0
BBX 16 22 0 0
BITMAP
0100
07F0
110C
210C
4106
4106
4106
6106
4104
010C
0108
01B0
0160
0160
0120
0130
0110
0218
0218
C40D
E40F
7806
ENDCHAR
STARTCHAR 211C
ENCODING 8476
SWIDTH 548 0
DWIDTH 16 0
BBX 16 23 0 -1
BITMAP
3818
3C3C
6ECC
478C
460C
860C
830C
8308
4318
4310
2330
33F8
03B8
0318
0318
031C
031C
021C
461C
460C
460F
2C0E
1C08
ENDCHAR
STARTCHAR 211D
ENCODING 8477
SWIDTH 548 0
DWIDTH 16 0
BBX 14 21 2 0
BITMAP
FF80
90E0
90A0
90A0
9090
9090
9090
9090
90A0
90A0
90E0
9FC0
9240
9320
9120
9190
9090
9098
90C8
9048
F07C
ENDCHAR
STARTCHAR 211E
ENCODING 8478
SWIDTH 548 0
DWIDTH 16 0
BBX 13 22 2 0
BITMAP
7C00
FE00
E600
C700
C700
C700
C710
C738
C730
E670
FF60
FBE0
C3C0
C1C0
C1C0
C3C0
C3E0
C760
C670
CE30
CC38
8C10
ENDCHAR
STARTCHAR 211F
ENCODING 8479
SWIDTH 548 0
DWIDTH 16 0
BBX 13 28 1 -3
BITMAP
0C00
0F00
03C0
00C0
7FC0
7FF0
61F0
61B8
6118
6318
6318
6218
6618
6638
6470
7FE0
7FC0
78C0
78E0
7060
7070
7030
6038
6018
4010
C000
C000
8000
ENDCHAR
STARTCHAR 2120
ENCODING 8480
SWIDTH 548 0
DWIDTH 16 0
BBX 16 10 0 12
BITMAP
3883
7DC3
4DC7
61C7
7DEF
0FEF
C7EF
C7BB
7DBB
39BB
ENDCHAR
STARTCHAR 2121
ENCODING 8481
SWIDTH 548 0
DWIDTH 16 0
BBX 16 17 0 0
BITMAP
FF00
FF00
FF00
1800
1BF8
1BF8
1A18
1A18
1A18
1BF8
1BF8
1A18
1A18
1A18
1A18
1BFF
1BFF
ENDCHAR
STARTCHAR 2122
ENCODING 8482
SWIDTH 548 0
DWIDTH 16 0
BBX 16 10 0 11
BITMAP
7F83
FD87
11C7
11C7
11CF
11EF
11FB
11FB
11BB
11B3
ENDCHAR
STARTCHAR 2123
ENCODING 8483
SWIDTH 548 0
DWIDTH 16 0
BBX 14 28 1 -3
BITMAP
0C00
0F00
03C0
40CC
C08C
C18C
E19C
611C
6318
7318
3238
3630
3E30
1C70
1C60
1C60
1CE0
1CE0
1CC0
1EC0
37C0
3780
6780
6380
4200
C000
C000
8000
ENDCHAR
STARTCHAR 2124
ENCODING 8484
SWIDTH 548 0
DWIDTH 16 0
BBX 14 21 1 0
BITMAP
FFFC
004C
0088
0098
0190
0110
0330
0220
0660
0440
0CC0
0880
1980
1100
3300
2200
2600
6400
4400
CC00
FFFC
ENDCHAR
STARTCHAR 2125
ENCODING 8485
SWIDTH 548 0
DWIDTH 16 0
BBX 12 29 2 -7
BITMAP
7FE0
7FE0
00E0
03C0
0780
0F00
1E00
3C00
3FE0
3FE0
00E0
03C0
0700
0E00
1C00
3F00
3FC0
00E0
0070
0030
0030
0030
0030
0030
0070
0070
C1E0
FFC0
7F00
ENDCHAR
STARTCHAR 2126
ENCODING 8486
SWIDTH 548 0
DWIDTH 16 0
BBX 14 22 1 0
BITMAP
07C0
1FE0
3870
7038
6018
6018
601C
601C
601C
601C
601C
601C
6018
7038
3878
3C70
1C60
1C60
1C60
1C60
7C7C
FC7C
ENDCHAR
STARTCHAR 2127
ENCODING 8487
SWIDTH 548 0
DWIDTH 16 0
BBX 14 21 1 0
BITMAP
7C7C
FC7C
1C60
1C60
1C60
1C60
3C70
3038
7018
6018
601C
601C
601C
601C
601C
6018
6018
7038
3870
1FE0
07C0
ENDCHAR
STARTCHAR 2128
ENCODING 8488
SWIDTH 548 0
DWIDTH 16 0
BBX 15 27 0 -5
BITMAP
0800
1800
1FF0
3FF8
1C38
0038
0030
0030
0020
0040
0080
03F0
07FC
043C
001C
000E
000E
000E
000E
000C
000C
380C
7818
9818
1830
1C60
1F80
ENDCHAR
STARTCHAR 2129
ENCODING 8489
SWIDTH 548 0
DWIDTH 16 0
BBX 10 16 3 0
BITMAP
7800
FC00
0C00
0C00
0E00
0E00
0E00
0E00
0E00
0E00
0E00
0E00
0E00
0E00
0FC0
0FC0
ENDCHAR
STARTCHAR 212A
ENCODING 8490
SWIDTH 548 0
DWIDTH 16 0
BBX 12 22 3 0
BITMAP
4060
C060
C0E0
C1C0
C380
C700
CF00
CE00
DC00
F800
F000
F000
F800
DC00
CE00
CF00
C700
C380
C1C0
C0E0
C070
8060
ENDCHAR
STARTCHAR 212B
ENCODING 8491
SWIDTH 548 0
DWIDTH 16 0
BBX 14 29 1 0
BITMAP
07C0
0FE0
1C70
1830
1830
1830
1C70
1FE0
0FE0
0780
0780
07C0
07C0
0EC0
0CC0
0CE0
1C60
1860
1870
3830
3FF0
3FF8
7018
6018
601C
E00C
C00C
C00C
400C
ENDCHAR
STARTCHAR 212C
ENCODING 8492
SWIDTH 548 0
DWIDTH 16 0
BBX 15 21 0 1
BITMAP
07E0
1B38
230C
430C
430C
C30C
C308
4318
0330
03F8
021C
020C
0206
0206
0206
0406
0404
0C0C
1818
3FF0
7FC0
ENDCHAR
STARTCHAR 212D
ENCODING 8493
SWIDTH 548 0
DWIDTH 16 0
BBX 15 22 1 0
BITMAP
0010
0070
01B8
0FBE
139C
3380
6380
6380
6180
6180
E180
E380
E700
6400
6000
7000
7000
3800
3C00
1F0C
0FF0
03E0
ENDCHAR
STARTCHAR 212E
ENCODING 8494
SWIDTH 548 0
DWIDTH 16 0
BBX 16 17 0 0
BITMAP
03E0
0C30
1008
2004
6006
6006
6006
6007
FFFF
6000
6000
6000
6000
2000
1004
0C18
07E0
ENDCHAR
STARTCHAR 212F
ENCODING 8495
SWIDTH 548 0
DWIDTH 16 0
BBX 13 16 2 0
BITMAP
07E0
1C70
3038
3038
6038
E030
E0F0
E3E0
FFC0
FE00
C000
C000
C000
E060
70C0
3F00
ENDCHAR
STARTCHAR 2130
ENCODING 8496
SWIDTH 548 0
DWIDTH 16 0
BBX 12 22 2 0
BITMAP
07C0
0C60
1860
3060
3060
3000
3000
3000
1800
0C00
0780
3800
7000
6000
C000
C000
C000
C010
C010
6030
7060
1F80
ENDCHAR
STARTCHAR 2131
ENCODING 8497
SWIDTH 548 0
DWIDTH 16 0
BBX 16 21 0 1
BITMAP
0FC1
10FE
20C6
60C0
40C0
60C0
60C0
60C0
00C0
07F8
00C0
00C0
00C0
00C0
00C0
0080
0080
C180
C100
E200
7C00
ENDCHAR
STARTCHAR 2132
ENCODING 8498
SWIDTH 548 0
DWIDTH 16 0
BBX 10 22 3 0
BITMAP
0040
00C0
00C0
00C0
00C0
00C0
00C0
00C0
00C0
00C0
7FC0
FFC0
00C0
00C0
00C0
00C0
00C0
00C0
00C0
00C0
7FC0
FF80
ENDCHAR
STARTCHAR 2133
ENCODING 8499
SWIDTH 548 0
DWIDTH 16 0
BBX 16 21 0 0
BITMAP
3007
780F
5C0B
8C18
8C18
0E38
0E28
0A28
0B28
0B48
0B48
0B48
0948
09C8
0988
0988
118C
118D
D18D
F18E
6106
ENDCHAR
STARTCHAR 2134
ENCODING 8500
SWIDTH 548 0
DWIDTH 16 0
BBX 10 12 3 0
BITMAP
1E00
3180
7080
60C0
60C0
E0C0
E0C0
C1C0
6180
6180
2300
1E00
ENDCHAR
STARTCHAR 2135
ENCODING 8501
SWIDTH 548 0
DWIDTH 16 0
BBX 14 21 1 1
BITMAP
4020
C060
E070
F038
703C
381C
1C1C
1E3C
1E20
2740
2380
43C0
61C0
60E0
70F0
7878
3838
381C
381C
380C
7004
ENDCHAR
STARTCHAR 2136
ENCODING 8502
SWIDTH 548 0
DWIDTH 16 0
BBX 15 21 1 0
BITMAP
4000
7FF8
7FF8
3FF8
0008
0008
0008
0008
0008
0008
0008
0008
0008
0008
0008
0008
0008
0008
7FFE
FFFC
FFF8
ENDCHAR
STARTCHAR 2137
ENCODING 8503
SWIDTH 548 0
DWIDTH 16 0
BBX 10 22 3 -1
BITMAP
2000
3FC0
3FC0
3FC0
0080
0080
0080
0080
0080
0080
0080
0080
00C0
00C0
00C0
00C0
00C0
00C0
3FC0
7FC0
FEC0
0080
ENDCHAR
STARTCHAR 2138
ENCODING 8504
SWIDTH 548 0
DWIDTH 16 0
BBX 14 22 1 -1
BITMAP
8000
FFFC
FFFC
FFFC
0008
0008
0008
0008
0008
0008
0008
0008
0008
0008
0008
0008
000C
000C
000C
000C
000C
0008
ENDCHAR
STARTCHAR 2139
ENCODING 8505
SWIDTH 548 0
DWIDTH 16 0
BBX 8 22 4 0
BITMAP
38
3C
7C
3C
38
00
00
FC
FC
3C
3C
3C
3C
3C
3C
3C
3C
3C
3C
3C
FF
FF
ENDCHAR
STARTCHAR 213A
ENCODING 8506
SWIDTH 548 0
DWIDTH 16 0
BBX 16 14 0 4
BITMAP
0001
0FE3
3FF7
783E
603C
E07C
C07C
C02C
C00C
600C
601C
3838
1FF0
0FC0
ENDCHAR
STARTCHAR 213B
ENCODING 8507
SWIDTH 548 0
DWIDTH 16 0
BBX 15 17 1 0
BITMAP
F800
F800
F800
8000
8666
8666
F63C
FE3C
FF18
8F18
8B18
9918
9F3C
9FBC
99A4
91E6
90E6
ENDCHAR
STARTCHAR 213C
ENCODING 8508
SWIDTH 548 0
DWIDTH 16 0
BBX 14 16 1 0
BITMAP
7FFC
9290
9290
9290
1290
1290
1290
1290
1290
1290
1290
1290
1250
124C
1244
1E3C
ENDCHAR
STARTCHAR 213D
ENCODING 8509
SWIDTH 548 0
DWIDTH 16 0
BBX 16 22 0 -6
BITMAP
3E03
7F02
C582
0686
02C4
0344
016C
0168
0128
0128
00B8
00B8
00B8
0090
0090
0090
0090
0090
0090
0090
0090
00F0
ENDCHAR
STARTCHAR 213E
ENCODING 8510
SWIDTH 548 0
DWIDTH 16 0
BBX 13 21 2 0
BITMAP
FFF8
8800
8800
8800
8800
8800
8800
8800
8800
8800
8800
8800
8800
8800
8800
8800
8800
8800
8800
8800
F800
ENDCHAR
STARTCHAR 213F
ENCODING 8511
SWIDTH 548 0
DWIDTH 16 0
BBX 13 21 2 0
BITMAP
FFF8
9048
9048
9048
9048
9048
9048
9048
9048
9048
9048
9048
9048
9048
9048
9048
9048
9048
9048
9048
F078
ENDCHAR
STARTCHAR 2140
ENCODING 8512
SWIDTH 548 0
DWIDTH 16 0
BBX 13 22 2 0
BITMAP
FFF0
9800
C800
6400
2600
3200
1100
0900
0C80
04C0
0240
0240
0480
0880
0900
1300
3200
2400
4C00
4800
9000
FFF8
ENDCHAR
STARTCHAR 2141
ENCODING 8513
SWIDTH 548 0
DWIDTH 16 0
BBX 13 22 2 0
BITMAP
0F80
3FC0
70E0
E070
C030
C030
C038
C038
C038
C038
FC38
F838
0038
0038
0038
C038
C030
C030
E070
70E0
3FC0
0F80
ENDCHAR
STARTCHAR 2142
ENCODING 8514
SWIDTH 548 0
DWIDTH 16 0
BBX 12 21 2 0
BITMAP
7FF0
FFF0
0030
0030
0030
0030
0030
0030
0030
0030
0030
0030
0030
0030
0030
0030
0030
0030
0030
0030
0020
ENDCHAR
STARTCHAR 2143
ENCODING 8515
SWIDTH 548 0
DWIDTH 16 0
BBX 12 22 2 0
BITMAP
0010
0030
0030
0030
0030
0030
0030
0030
0030
0030
0030
0030
0030
0030
0030
0030
0030
0030
0030
0030
7FF0
FFF0
ENDCHAR
STARTCHAR 2144
ENCODING 8516
SWIDTH 548 0
DWIDTH 16 0
BBX 14 21 1 0
BITMAP
0300
0300
0300
0300
0300
0300
0300
0380
0380
07C0
07C0
0EC0
0CE0
1C60
1870
3830
3038
7018
601C
E01C
4008
ENDCHAR
STARTCHAR 2145
ENCODING 8517
SWIDTH 548 0
DWIDTH 16 0
BBX 16 22 0 0
BITMAP
1FF0
123C
120E
120E
220B
240B
240B
2409
2419
2411
2411
6413
4C12
4812
4812
4836
4824
482C
C838
8830
98E0
FF80
ENDCHAR
STARTCHAR 2146
ENCODING 8518
SWIDTH 548 0
DWIDTH 16 0
BBX 14 22 1 0
BITMAP
001C
0014
0024
0024
002C
0028
0F28
1CA8
28E8
2848
4848
4848
C850
8850
9850
90D0
90D0
9090
9190
51A0
72A0
3CE0
ENDCHAR
STARTCHAR 2147
ENCODING 8519
SWIDTH 548 0
DWIDTH 16 0
BBX 14 17 1 0
BITMAP
03E0
0FF8
1E18
360C
340C
640C
4404
440C
CFFC
CC00
C800
C800
C800
6800
7830
3FF0
0FC0
ENDCHAR
STARTCHAR 2148
ENCODING 8520
SWIDTH 548 0
DWIDTH 16 0
BBX 7 22 5 0
BITMAP
0E
0C
0C
00
00
00
00
3C
24
24
24
6C
6C
48
48
48
48
D8
D0
90
90
F0
ENDCHAR
STARTCHAR 2149
ENCODING 8521
SWIDTH 548 0
DWIDTH 16 0
BBX 11 29 0 -7
BITMAP
0060
0060
00E0
0000
0000
0000
0000
01E0
0160
0360
0240
0240
0240
0240
06C0
06C0
0480
0480
0480
0480
0D80
0D80
0900
0900
0900
0B00
1A00
1600
F800
ENDCHAR
STARTCHAR 214A
ENCODING 8522
SWIDTH 548 0
DWIDTH 16 0
BBX 12 22 2 0
BITMAP
0200
0E00
0E00
0E00
0E00
FF80
FFE0
CE60
CE70
CE30
CE30
CE70
CE60
CFE0
CF80
CE00
CE00
8E00
0E00
0E00
0FF0
0FE0
ENDCHAR
STARTCHAR 214B
ENCODING 8523
SWIDTH 548 0
DWIDTH 16 0
BBX 16 21 0 0
BITMAP
61F0
61FC
738E
3B07
1E03
0E03
1E03
1E03
3B03
7386
E18E
40FC
00FC
001C
000C
000E
000E
000C
001C
01F8
03F0
ENDCHAR
STARTCHAR 214D
ENCODING 8525
SWIDTH 548 0
DWIDTH 16 0
BBX 14 21 1 0
BITMAP
1800
3800
3800
2C00
6C00
7C04
7E1C
C63C
C670
83E0
03C0
0770
1EF8
3CCC
70C8
E078
401C
008C
00CC
00FC
0078
ENDCHAR
STARTCHAR 214E
ENCODING 8526
SWIDTH 548 0
DWIDTH 16 0
BBX 8 17 4 0
BITMAP
03
03
03
03
03
03
03
7F
FF
03
03
03
03
03
03
7F
FE
ENDCHAR
STARTCHAR 2153
ENCODING 8531
SWIDTH 548 0
DWIDTH 16 0
BBX 14 22 1 0
BITMAP
1000
7000
F000
F000
3000
3004
301C
303C
3070
31E0
03C0
0700
1EFC
3CF8
7038
E030
4078
007C
018C
01CC
00FC
0078
ENDCHAR
STARTCHAR 2154
ENCODING 8532
SWIDTH 548 0
DWIDTH 16 0
BBX 15 22 0 0
BITMAP
3C00
7E00
6600
6200
0600
1E02
380E
701E
7F38
FEF0
01E0
0380
0F7E
1E7E
380C
7018
203C
003E
0066
0066
007E
003C
ENDCHAR
STARTCHAR 2155
ENCODING 8533
SWIDTH 548 0
DWIDTH 16 0
BBX 14 22 1 0
BITMAP
1000
7000
F000
F000
3000
3004
301C
303C
3070
31E0
03C0
0700
1E7C
3C78
7060
E040
40F8
007C
004C
00CC
00FC
0078
ENDCHAR
STARTCHAR 2156
ENCODING 8534
SWIDTH 548 0
DWIDTH 16 0
BBX 15 22 0 0
BITMAP
3C00
7E00
6600
6200
0600
1E02
380E
701E
7F38
FEF0
01E0
0380
0F3E
1E3C
3830
7060
207C
003E
0026
0066
007E
003C
ENDCHAR
STARTCHAR 2157
ENCODING 8535
SWIDTH 548 0
DWIDTH 16 0
BBX 14 22 1 0
BITMAP
FC00
FC00
1800
3000
3800
3C04
CC1C
CC3C
FC70
79E0
03C0
0700
1E7C
3C78
7040
E0C0
40F8
00FC
000C
00CC
00FC
0078
ENDCHAR
STARTCHAR 2158
ENCODING 8536
SWIDTH 548 0
DWIDTH 16 0
BBX 15 22 0 0
BITMAP
0200
0E00
0E00
1E00
3600
3602
7F0E
FE1E
0638
06F0
01E0
0380
0F3E
1E3C
3820
7060
207C
007E
0006
0066
007E
003C
ENDCHAR
STARTCHAR 2159
ENCODING 8537
SWIDTH 548 0
DWIDTH 16 0
BBX 14 22 1 0
BITMAP
1000
7000
F000
F000
3000
3004
301C
303C
3070
31E0
23C0
0700
1E70
3CF8
718C
E18C
41F0
01FC
018C
018C
00FC
0078
ENDCHAR
STARTCHAR 215A
ENCODING 8538
SWIDTH 548 0
DWIDTH 16 0
BBX 14 22 1 0
BITMAP
7C00
7C00
6000
6000
7800
7C04
4C1C
CC3C
FC70
79E0
03C0
0700
1E70
3CF8
718C
E18C
41F0
01FC
018C
018C
00FC
0078
ENDCHAR
STARTCHAR 215B
ENCODING 8539
SWIDTH 548 0
DWIDTH 16 0
BBX 14 22 1 0
BITMAP
1000
7000
F000
F000
3000
3004
301C
303C
3070
31E0
23C0
0700
1E70
3CF8
718C
E1DC
40F8
01DC
018C
018C
00FC
0070
ENDCHAR
STARTCHAR 215C
ENCODING 8540
SWIDTH 548 0
DWIDTH 16 0
BBX 14 22 1 0
BITMAP
FC00
FC00
1800
3000
3800
3C04
CC1C
CC3C
FC70
79E0
03C0
0700
1E70
3CF8
718C
E1DC
40F8
01DC
018C
018C
00FC
0070
ENDCHAR
STARTCHAR 215D
ENCODING 8541
SWIDTH 548 0
DWIDTH 16 0
BBX 14 22 1 0
BITMAP
7C00
7C00
6000
6000
7800
7C04
4C1C
CC3C
FC70
79E0
03C0
0700
1E70
3CF8
718C
E1DC
40F8
01DC
018C
018C
00FC
0070
ENDCHAR
STARTCHAR 215E
ENCODING 8542
SWIDTH 548 0
DWIDTH 16 0
BBX 14 22 1 0
BITMAP
7F00
7E00
0600
0C00
0C00
1804
181C
303C
3070
61E0
03C0
0700
1E70
3CF8
718C
E1DC
40F8
01DC
018C
018C
00FC
0070
ENDCHAR
STARTCHAR 215F
ENCODING 8543
SWIDTH 548 0
DWIDTH 16 0
BBX 14 17 1 5
BITMAP
1000
7000
F000
F000
3000
3004
301C
303C
3070
31E0
23C0
0700
1E00
3C00
7000
E000
4000
ENDCHAR
STARTCHAR 2160
ENCODING 8544
SWIDTH 548 0
DWIDTH 16 0
BBX 2 22 7 0
BITMAP
40
C0
C0
C0
C0
C0
C0
C0
C0
C0
C0
C0
C0
C0
C0
C0
C0
C0
C0
C0
C0
80
ENDCHAR
STARTCHAR 2161
ENCODING 8545
SWIDTH 548 0
DWIDTH 16 0
BBX 8 22 4 0
BITMAP
41
C3
C3
C3
C3
C3
C3
C3
C3
C3
C3
C3
C3
C3
C3
C3
C3
C3
C3
C3
C3
82
ENDCHAR
STARTCHAR 2162
ENCODING 8546
SWIDTH 548 0
DWIDTH 16 0
BBX 14 22 1 0
BITMAP
6104
E30C
E30C
E30C
E30C
E30C
E30C
E30C
E30C
E30C
E30C
E30C
E30C
E30C
E30C
E30C
E30C
E30C
E30C
E30C
E30C
8208
ENDCHAR
STARTCHAR 2163
ENCODING 8547
SWIDTH 548 0
DWIDTH 16 0
BBX 13 22 2 0
BITMAP
4830
D838
D830
D830
DC30
CC30
CC70
CC60
CC60
CE60
CE60
C6E0
C6E0
C6C0
C6C0
C7C0
C7C0
C3C0
C380
C380
C380
8300
ENDCHAR
STARTCHAR 2164
ENCODING 8548
SWIDTH 548 0
DWIDTH 16 0
BBX 14 22 1 0
BITMAP
400C
C00C
C00C
E01C
601C
6018
7018
3038
3030
3830
1870
1860
1C60
1CE0
0CE0
0CC0
0EC0
07C0
0780
0780
0380
0200
ENDCHAR
STARTCHAR 2165
ENCODING 8549
SWIDTH 548 0
DWIDTH 16 0
BBX 13 22 2 0
BITMAP
4198
C1B8
C1B8
C1B8
E1B8
E3B8
63B8
6338
6338
6338
7338
7738
3638
3638
3638
3638
3E38
1C38
1C38
1C38
1C38
1820
ENDCHAR
STARTCHAR 2166
ENCODING 8550
SWIDTH 548 0
DWIDTH 16 0
BBX 13 22 2 0
BITMAP
4458
C7F8
C7F8
C7F8
C7F8
C7F8
E7F8
6FF8
6DF8
6DF8
6DF8
6DF8
6DF8
6DF8
7DF8
3DF8
39F8
39F8
39F8
39F8
39F8
31A0
ENDCHAR
STARTCHAR 2167
ENCODING 8551
SWIDTH 548 0
DWIDTH 16 0
BBX 16 22 0 0
BITMAP
4249
C7DB
C7DB
E6DB
66DB
66DB
66DB
66DB
66DB
66DB
6EDB
7CDB
3CDB
3CDB
3CDB
3CDB
3CDB
3CDB
3CDB
3CDB
18DB
1092
ENDCHAR
STARTCHAR 2168
ENCODING 8552
SWIDTH 548 0
DWIDTH 16 0
BBX 12 22 2 0
BITMAP
4830
D830
DC30
CC70
CC60
CE60
C6E0
C7C0
C7C0
C3C0
C380
C380
C3C0
C3C0
C7C0
C6E0
CEE0
CE60
CC70
DC30
D830
8830
ENDCHAR
STARTCHAR 2169
ENCODING 8553
SWIDTH 548 0
DWIDTH 16 0
BBX 14 22 1 0
BITMAP
4008
E01C
7018
3038
3830
1870
1CE0
0CC0
0FC0
0780
0780
0380
0780
0FC0
0EC0
1CE0
1870
3870
3038
7018
E01C
6008
ENDCHAR
STARTCHAR 216A
ENCODING 8554
SWIDTH 548 0
DWIDTH 16 0
BBX 13 22 2 0
BITMAP
4198
C1B8
E1B8
63B8
6338
7738
3738
3638
3E38
1C38
1C38
1C38
1C38
3E38
3638
3638
7738
6338
63B8
E3B8
C1B8
4120
ENDCHAR
STARTCHAR 216B
ENCODING 8555
SWIDTH 548 0
DWIDTH 16 0
BBX 13 22 2 0
BITMAP
4458
C7F8
C7F8
CFF8
6DF8
6DF8
6DF8
6DF8
79F8
39F8
39F8
39F8
39F8
39F8
7DF8
6DF8
6DF8
6DF8
EFF8
C7F8
C7F8
45A0
ENDCHAR
STARTCHAR 216C
ENCODING 8556
SWIDTH 548 0
DWIDTH 16 0
BBX 12 22 2 0
BITMAP
4000
C000
C000
C000
C000
C000
C000
C000
C000
C000
C000
C000
C000
C000
C000
C000
C000
C000
C000
C000
FFF0
FFF0
ENDCHAR
STARTCHAR 216D
ENCODING 8557
SWIDTH 548 0
DWIDTH 16 0
BBX 13 22 2 0
BITMAP
0F80
3FC0
70E0
E070
C030
C030
C038
C000
C000
C000
C000
C000
C000
C000
C008
C038
C030
C030
E070
70E0
3FC0
0F80
ENDCHAR
STARTCHAR 216E
ENCODING 8558
SWIDTH 548 0
DWIDTH 16 0
BBX 13 21 2 0
BITMAP
7F80
FFC0
C0E0
C070
C030
C030
C038
C038
C038
C038
C038
C038
C038
C038
C038
C030
C030
C070
C0E0
FFC0
FF80
ENDCHAR
STARTCHAR 216F
ENCODING 8559
SWIDTH 548 0
DWIDTH 16 0
BBX 14 22 1 0
BITMAP
6004
E00C
E01C
F01C
F03C
F83C
F83C
F87C
FC6C
ECEC
ECCC
E7CC
E7CC
E78C
E38C
E30C
E00C
E00C
E00C
E00C
E00C
8008
ENDCHAR
STARTCHAR 2170
ENCODING 8560
SWIDTH 548 0
DWIDTH 16 0
BBX 2 22 7 0
BITMAP
C0
C0
C0
00
00
00
40
C0
C0
C0
C0
C0
C0
C0
C0
C0
C0
C0
C0
C0
C0
80
ENDCHAR
STARTCHAR 2171
ENCODING 8561
SWIDTH 548 0
DWIDTH 16 0
BBX 8 22 4 0
BITMAP
C3
E3
C3
00
00
00
41
C3
C3
C3
C3
C3
C3
C3
C3
C3
C3
C3
C3
C3
C3
82
ENDCHAR
STARTCHAR 2172
ENCODING 8562
SWIDTH 548 0
DWIDTH 16 0
BBX 14 22 1 0
BITMAP
430C
E30C
430C
0000
0000
0000
6104
E30C
E30C
E30C
E30C
E30C
E30C
E30C
E30C
E30C
E30C
E30C
E30C
E30C
E30C
8208
ENDCHAR
STARTCHAR 2173
ENCODING 8563
SWIDTH 548 0
DWIDTH 16 0
BBX 12 22 2 0
BITMAP
C000
C000
C000
0000
0000
0000
4830
D830
D830
DC30
CC70
CC60
CC60
CE60
C6E0
C6C0
C6C0
C7C0
C3C0
C380
C380
8300
ENDCHAR
STARTCHAR 2174
ENCODING 8564
SWIDTH 548 0
DWIDTH 16 0
BBX 14 16 1 0
BITMAP
4008
E00C
601C
7018
7038
3030
3830
1870
1860
1CE0
0CC0
0EC0
07C0
0780
0780
0200
ENDCHAR
STARTCHAR 2175
ENCODING 8565
SWIDTH 548 0
DWIDTH 16 0
BBX 13 22 2 0
BITMAP
0030
0038
0030
0000
0000
0000
4198
C1B8
C1B8
E1B8
63B8
6338
6338
7338
7738
3638
3638
3E38
3C38
1C38
1C38
1820
ENDCHAR
STARTCHAR 2176
ENCODING 8566
SWIDTH 548 0
DWIDTH 16 0
BBX 13 22 2 0
BITMAP
00B0
01F8
00B0
0000
0000
0000
4458
C7F8
C7F8
C7F8
E7F8
EFF8
6DF8
6DF8
6DF8
6DF8
7DF8
3DF8
39F8
39F8
39F8
31A0
ENDCHAR
STARTCHAR 2177
ENCODING 8567
SWIDTH 548 0
DWIDTH 16 0
BBX 16 22 0 0
BITMAP
00DB
00DF
00DB
0000
0000
0000
4249
C7DB
E6DB
66DB
66DB
66DB
66DB
6EDB
7CDB
3CDB
3CDB
3CDB
3CDB
3CDB
18DB
1092
ENDCHAR
STARTCHAR 2178
ENCODING 8568
SWIDTH 548 0
DWIDTH 16 0
BBX 12 22 2 0
BITMAP
C000
C000
C000
0000
0000
0000
4830
DC30
CC70
CE60
C6E0
C7C0
C7C0
C380
C380
C3C0
C7C0
C6E0
CE60
CC70
DC30
8830
ENDCHAR
STARTCHAR 2179
ENCODING 8569
SWIDTH 548 0
DWIDTH 16 0
BBX 12 16 2 0
BITMAP
4030
E070
7070
70E0
39C0
1D80
0F80
0F00
0F00
0F80
1D80
39C0
30E0
7070
E070
4030
ENDCHAR
STARTCHAR 217A
ENCODING 8570
SWIDTH 548 0
DWIDTH 16 0
BBX 13 22 2 0
BITMAP
0030
0038
0030
0000
0000
0000
4198
E1B8
E3B8
7338
7738
3E38
3E38
1C38
1C38
3E38
3E38
7738
7338
E3B8
E1B8
4120
ENDCHAR
STARTCHAR 217B
ENCODING 8571
SWIDTH 548 0
DWIDTH 16 0
BBX 13 22 2 0
BITMAP
00B0
01F8
00B0
0000
0000
0000
4458
C7F8
EFF8
6DF8
6DF8
7DF8
39F8
39F8
39F8
39F8
7DF8
6DF8
6DF8
EFF8
C7F8
45A0
ENDCHAR
STARTCHAR 217C
ENCODING 8572
SWIDTH 548 0
DWIDTH 16 0
BBX 10 22 3 0
BITMAP
4000
C000
C000
C000
C000
C000
C000
C000
C000
C000
C000
C000
C000
C000
C000
C000
C040
C0C0
E0C0
61C0
7F80
1E00
ENDCHAR
STARTCHAR 217D
ENCODING 8573
SWIDTH 548 0
DWIDTH 16 0
BBX 10 16 3 0
BITMAP
1E00
7F80
71C0
E0C0
C0C0
C0C0
C000
C000
C000
C000
C0C0
C0C0
E0C0
71C0
7F80
1E00
ENDCHAR
STARTCHAR 217E
ENCODING 8574
SWIDTH 548 0
DWIDTH 16 0
BBX 10 22 3 0
BITMAP
0040
00C0
00C0
00C0
00C0
00C0
1FC0
7FC0
61C0
E0C0
C0C0
C0C0
C0C0
C0C0
C0C0
C0C0
C0C0
C0C0
E0C0
71C0
7F80
1E00
ENDCHAR
STARTCHAR 217F
ENCODING 8575
SWIDTH 548 0
DWIDTH 16 0
BBX 13 16 2 0
BITMAP
39E0
FFF0
C730
C638
C638
C638
C638
C638
C638
C638
C638
C638
C638
C638
C638
8430
ENDCHAR
STARTCHAR 2180
ENCODING 8576
SWIDTH 548 0
DWIDTH 16 0
BBX 16 21 0 0
BITMAP
0FF0
1FFC
399E
7186
6187
E183
E183
E183
E183
E183
E183
E183
E183
E183
E183
E183
6187
7186
399E
1FFC
0FF0
ENDCHAR
STARTCHAR 2181
ENCODING 8577
SWIDTH 548 0
DWIDTH 16 0
BBX 13 21 2 0
BITMAP
7F80
FFC0
C0E0
C070
F830
FE30
C638
C338
C338
C338
C338
C338
C338
C738
C638
FE30
F830
C070
C0E0
FFC0
FF80
ENDCHAR
STARTCHAR 2182
ENCODING 8578
SWIDTH 548 0
DWIDTH 16 0
BBX 16 21 0 0
BITMAP
0FF0
1FFC
399E
7186
63C7
E7E3
EFF3
EDB3
EDBB
EDBB
EDBB
EDBB
EDBB
EDB3
EFF3
E7E3
63C7
7186
399E
1FFC
0FF0
ENDCHAR
STARTCHAR 2183
ENCODING 8579
SWIDTH 548 0
DWIDTH 16 0
BBX 13 22 2 0
BITMAP
0F80
3FC0
70E0
E070
C030
C030
C038
0038
0038
0038
0038
0038
0038
0038
0038
C038
C030
C030
E070
70E0
3FC0
0F80
ENDCHAR
STARTCHAR 2184
ENCODING 8580
SWIDTH 548 0
DWIDTH 16 0
BBX 10 16 3 0
BITMAP
1E00
7F80
71C0
E0C0
C0C0
C0C0
00C0
00C0
00C0
00C0
C0C0
C0C0
E0C0
71C0
3F80
1E00
ENDCHAR
STARTCHAR 2190
ENCODING 8592
SWIDTH 548 0
DWIDTH 16 0
BBX 13 4 2 9
BITMAP
3000
FFF8
FFF0
3000
ENDCHAR
STARTCHAR 2191
ENCODING 8593
SWIDTH 548 0
DWIDTH 16 0
BBX 4 13 6 4
BITMAP
20
60
F0
F0
60
60
60
60
60
60
60
60
40
ENDCHAR
STARTCHAR 2192
ENCODING 8594
SWIDTH 548 0
DWIDTH 16 0
BBX 12 4 2 9
BITMAP
00C0
FFF0
FFF0
00C0
ENDCHAR
STARTCHAR 2193
ENCODING 8595
SWIDTH 548 0
DWIDTH 16 0
BBX 5 13 6 4
BITMAP
60
60
60
60
60
60
60
60
F8
F0
70
60
40
ENDCHAR
STARTCHAR 2194
ENCODING 8596
SWIDTH 548 0
DWIDTH 16 0
BBX 12 4 2 9
BITMAP
30C0
FFF0
FFF0
30C0
ENDCHAR
STARTCHAR 2195
ENCODING 8597
SWIDTH 548 0
DWIDTH 16 0
BBX 5 13 6 5
BITMAP
20
60
F0
F0
60
60
60
60
F8
F0
70
60
40
ENDCHAR
STARTCHAR 2196
ENCODING 8598
SWIDTH 548 0
DWIDTH 16 0
BBX 9 10 4 5
BITMAP
E000
F000
F000
F800
1C00
0E00
0700
0380
0180
0100
ENDCHAR
STARTCHAR 2197
ENCODING 8599
SWIDTH 548 0
DWIDTH 16 0
BBX 10 10 3 5
BITMAP
01C0
0780
0780
0F80
1E80
3C00
7800
F000
6000
4000
ENDCHAR
STARTCHAR 2198
ENCODING 8600
SWIDTH 548 0
DWIDTH 16 0
BBX 10 11 3 5
BITMAP
4000
6000
F000
7800
3C00
1C80
0F80
0780
0780
03C0
0040
ENDCHAR
STARTCHAR 2199
ENCODING 8601
SWIDTH 548 0
DWIDTH 16 0
BBX 10 11 3 5
BITMAP
0080
00C0
01C0
0380
0700
0E00
7C00
7800
7800
7800
8000
ENDCHAR
STARTCHAR 219A
ENCODING 8602
SWIDTH 548 0
DWIDTH 16 0
BBX 13 10 2 5
BITMAP
0030
0030
3070
FFF8
FFF0
31C0
1380
0380
0700
0200
ENDCHAR
STARTCHAR 219B
ENCODING 8603
SWIDTH 548 0
DWIDTH 16 0
BBX 12 10 2 6
BITMAP
0400
0E00
1C00
18C0
FFF0
FFF0
60C0
E080
C000
C000
ENDCHAR
STARTCHAR 219C
ENCODING 8604
SWIDTH 548 0
DWIDTH 16 0
BBX 14 5 1 9
BITMAP
E000
78F0
73F8
7F9C
5E0C
ENDCHAR
STARTCHAR 219D
ENCODING 8605
SWIDTH 548 0
DWIDTH 16 0
BBX 14 5 1 9
BITMAP
000C
3C7C
7F38
E7F8
C1E8
ENDCHAR
STARTCHAR 219E
ENCODING 8606
SWIDTH 548 0
DWIDTH 16 0
BBX 13 4 2 9
BITMAP
3600
FFF8
FFF0
3600
ENDCHAR
STARTCHAR 219F
ENCODING 8607
SWIDTH 548 0
DWIDTH 16 0
BBX 6 13 5 4
BITMAP
30
30
30
30
30
FC
78
38
7C
78
38
30
20
ENDCHAR
STARTCHAR 21A0
ENCODING 8608
SWIDTH 548 0
DWIDTH 16 0
BBX 12 4 2 9
BITMAP
06C0
FFF0
FFF0
06C0
ENDCHAR
STARTCHAR 21A1
ENCODING 8609
SWIDTH 548 0
DWIDTH 16 0
BBX 5 13 6 4
BITMAP
20
60
F0
F0
60
F0
F8
60
60
60
60
60
40
ENDCHAR
STARTCHAR 21A2
ENCODING 8610
SWIDTH 548 0
DWIDTH 16 0
BBX 13 4 2 9
BITMAP
3018
FFF8
FFF8
3018
ENDCHAR
STARTCHAR 21A3
ENCODING 8611
SWIDTH 548 0
DWIDTH 16 0
BBX 13 6 1 8
BITMAP
8000
C060
FFF8
FFF8
C060
8000
ENDCHAR
STARTCHAR 21A4
ENCODING 8612
SWIDTH 548 0
DWIDTH 16 0
BBX 13 10 2 6
BITMAP
0018
0018
0018
3018
FFF8
FFF8
3018
0018
0018
0010
ENDCHAR
STARTCHAR 21A5
ENCODING 8613
SWIDTH 548 0
DWIDTH 16 0
BBX 10 13 3 4
BITMAP
0400
0C00
0E00
1E00
3F00
0C00
0C00
0C00
0C00
0C00
0C00
7FC0
FFC0
ENDCHAR
STARTCHAR 21A6
ENCODING 8614
SWIDTH 548 0
DWIDTH 16 0
BBX 13 10 1 6
BITMAP
6000
E000
E000
E060
FFF8
FFF8
E060
E000
E000
C000
ENDCHAR
STARTCHAR 21A7
ENCODING 8615
SWIDTH 548 0
DWIDTH 16 0
BBX 10 13 3 4
BITMAP
7FC0
FFC0
0C00
0C00
0C00
0C00
0C00
0C00
3F00
1E00
0E00
0C00
0400
ENDCHAR
STARTCHAR 21A8
ENCODING 8616
SWIDTH 548 0
DWIDTH 16 0
BBX 12 15 2 4
BITMAP
0600
0600
0F00
0F80
0600
0600
0600
0600
0F80
0F00
0700
0600
0000
7FF0
FFF0
ENDCHAR
STARTCHAR 21A9
ENCODING 8617
SWIDTH 548 0
DWIDTH 16 0
BBX 13 9 2 5
BITMAP
0060
00F8
0018
0018
1018
3018
FFF8
FFE0
3000
ENDCHAR
STARTCHAR 21AA
ENCODING 8618
SWIDTH 548 0
DWIDTH 16 0
BBX 14 10 1 5
BITMAP
3800
7800
E000
E000
E040
E070
7FFC
3FF8
0070
0040
ENDCHAR
STARTCHAR 21AB
ENCODING 8619
SWIDTH 548 0
DWIDTH 16 0
BBX 14 10 1 6
BITMAP
0078
00FC
01CC
198C
7FFC
FFF8
19C0
01C0
01C0
0100
ENDCHAR
STARTCHAR 21AC
ENCODING 8620
SWIDTH 548 0
DWIDTH 16 0
BBX 14 9 1 6
BITMAP
3800
FE00
C600
C660
FFF8
7FFC
0670
0640
0600
ENDCHAR
STARTCHAR 21AD
ENCODING 8621
SWIDTH 548 0
DWIDTH 16 0
BBX 16 7 0 8
BITMAP
01C0
0BF0
1E7C
7E7E
FC3F
181C
0810
ENDCHAR
STARTCHAR 21AE
ENCODING 8622
SWIDTH 548 0
DWIDTH 16 0
BBX 14 9 1 6
BITMAP
00C0
00E0
19E0
7FFC
FFFC
3F30
0E00
0C00
0C00
ENDCHAR
STARTCHAR 21AF
ENCODING 8623
SWIDTH 548 0
DWIDTH 16 0
BBX 8 19 4 1
BITMAP
38
30
70
70
60
E0
C0
FF
FF
E7
06
06
0E
0C
3C
3E
3C
18
10
ENDCHAR
STARTCHAR 21B0
ENCODING 8624
SWIDTH 548 0
DWIDTH 16 0
BBX 9 13 4 5
BITMAP
3000
FF80
FF80
3180
0180
0180
0180
0180
0180
0180
0180
0180
0100
ENDCHAR
STARTCHAR 21B1
ENCODING 8625
SWIDTH 548 0
DWIDTH 16 0
BBX 9 13 3 5
BITMAP
0600
FF80
FF80
E600
E000
E000
E000
E000
E000
E000
E000
E000
C000
ENDCHAR
STARTCHAR 21B2
ENCODING 8626
SWIDTH 548 0
DWIDTH 16 0
BBX 9 13 4 3
BITMAP
0080
0180
0180
0180
0180
0180
0180
0180
0180
3180
FF80
FF80
3000
ENDCHAR
STARTCHAR 21B3
ENCODING 8627
SWIDTH 548 0
DWIDTH 16 0
BBX 9 13 3 3
BITMAP
6000
E000
E000
E000
E000
E000
E000
E000
E000
E600
FF80
FF80
0600
ENDCHAR
STARTCHAR 21B4
ENCODING 8628
SWIDTH 548 0
DWIDTH 16 0
BBX 10 14 3 4
BITMAP
FF80
FF80
0180
0180
0180
0180
0180
0180
0180
0180
03C0
03C0
0180
0180
ENDCHAR
STARTCHAR 21B5
ENCODING 8629
SWIDTH 548 0
DWIDTH 16 0
BBX 13 12 2 3
BITMAP
0008
0018
0018
0018
0018
0018
0018
0018
3018
FFF8
FFF8
3000
ENDCHAR
STARTCHAR 21B6
ENCODING 8630
SWIDTH 548 0
DWIDTH 16 0
BBX 11 9 3 4
BITMAP
1F00
3FC0
70E0
6060
6060
F000
F000
6000
4000
ENDCHAR
STARTCHAR 21B7
ENCODING 8631
SWIDTH 548 0
DWIDTH 16 0
BBX 12 9 2 4
BITMAP
1F00
7F80
71C0
E0C0
C0E0
01F0
00E0
00E0
0040
ENDCHAR
STARTCHAR 21B8
ENCODING 8632
SWIDTH 548 0
DWIDTH 16 0
BBX 12 13 2 3
BITMAP
7FF0
FFE0
0000
7800
3C00
3C00
3E00
2F00
0780
03C0
01E0
00E0
0040
ENDCHAR
STARTCHAR 21B9
ENCODING 8633
SWIDTH 548 0
DWIDTH 16 0
BBX 14 20 1 0
BITMAP
2000
E000
E000
E100
E300
EFFC
FFF8
E700
E104
E00C
E00C
800C
018C
7FEC
FFEC
018C
000C
000C
000C
0008
ENDCHAR
STARTCHAR 21BA
ENCODING 8634
SWIDTH 548 0
DWIDTH 16 0
BBX 10 11 3 5
BITMAP
0600
07C0
0380
C3C0
C2C0
C0C0
C0C0
E0C0
E1C0
7F80
1F00
ENDCHAR
STARTCHAR 21BB
ENCODING 8635
SWIDTH 548 0
DWIDTH 16 0
BBX 10 11 3 5
BITMAP
1800
F800
7800
F0C0
D0C0
C0C0
C0C0
E0C0
E1C0
7F80
1F00
ENDCHAR
STARTCHAR 21BC
ENCODING 8636
SWIDTH 548 0
DWIDTH 16 0
BBX 13 4 2 10
BITMAP
1000
3000
7FF8
FFF0
ENDCHAR
STARTCHAR 21BD
ENCODING 8637
SWIDTH 548 0
DWIDTH 16 0
BBX 13 4 2 8
BITMAP
FFF8
7FF0
3000
1000
ENDCHAR
STARTCHAR 21BE
ENCODING 8638
SWIDTH 548 0
DWIDTH 16 0
BBX 4 13 7 5
BITMAP
80
C0
E0
E0
D0
C0
C0
C0
C0
C0
C0
C0
40
ENDCHAR
STARTCHAR 21BF
ENCODING 8639
SWIDTH 548 0
DWIDTH 16 0
BBX 5 14 5 3
BITMAP
08
18
38
78
F8
38
38
38
38
38
38
38
38
20
ENDCHAR
STARTCHAR 21C0
ENCODING 8640
SWIDTH 548 0
DWIDTH 16 0
BBX 12 4 2 10
BITMAP
0080
00C0
FFE0
FFF0
ENDCHAR
STARTCHAR 21C1
ENCODING 8641
SWIDTH 548 0
DWIDTH 16 0
BBX 12 4 2 8
BITMAP
FFF0
FFE0
00C0
0080
ENDCHAR
STARTCHAR 21C2
ENCODING 8642
SWIDTH 548 0
DWIDTH 16 0
BBX 4 13 7 3
BITMAP
40
C0
C0
C0
C0
C0
C0
C0
C0
F0
E0
C0
80
ENDCHAR
STARTCHAR 21C3
ENCODING 8643
SWIDTH 548 0
DWIDTH 16 0
BBX 5 14 5 4
BITMAP
08
38
38
38
38
38
38
38
38
F8
78
38
18
08
ENDCHAR
STARTCHAR 21C4
ENCODING 8644
SWIDTH 548 0
DWIDTH 16 0
BBX 13 9 2 6
BITMAP
00C0
FFF0
FFF0
00C0
0000
3000
FFF8
FFF0
3000
ENDCHAR
STARTCHAR 21C5
ENCODING 8645
SWIDTH 548 0
DWIDTH 16 0
BBX 11 13 3 4
BITMAP
2180
6180
7180
F180
6180
6180
6180
6180
67E0
63C0
61C0
6180
4100
ENDCHAR
STARTCHAR 21C6
ENCODING 8646
SWIDTH 548 0
DWIDTH 16 0
BBX 13 9 2 6
BITMAP
3000
FFF8
FFF0
3000
0000
00C0
FFF0
FFF0
00C0
ENDCHAR
STARTCHAR 21C7
ENCODING 8647
SWIDTH 548 0
DWIDTH 16 0
BBX 13 9 2 6
BITMAP
3000
FFF8
FFF0
3000
0000
3000
FFF8
FFF0
3000
ENDCHAR
STARTCHAR 21C8
ENCODING 8648
SWIDTH 548 0
DWIDTH 16 0
BBX 10 13 3 4
BITMAP
2180
6180
73C0
F3C0
6180
6180
6180
6180
6180
6180
6180
6180
4100
ENDCHAR
STARTCHAR 21C9
ENCODING 8649
SWIDTH 548 0
DWIDTH 16 0
BBX 12 9 2 6
BITMAP
00C0
FFF0
FFF0
00C0
0000
00C0
FFF0
FFF0
00C0
ENDCHAR
STARTCHAR 21CA
ENCODING 8650
SWIDTH 548 0
DWIDTH 16 0
BBX 11 13 3 4
BITMAP
6180
6180
6180
6180
6180
6180
6180
6180
FFE0
F3C0
71C0
6180
2100
ENDCHAR
STARTCHAR 21CB
ENCODING 8651
SWIDTH 548 0
DWIDTH 16 0
BBX 13 11 2 5
BITMAP
1000
3000
7FF8
FFF0
0000
0000
0000
FFF0
FFE0
00C0
0080
ENDCHAR
STARTCHAR 21CC
ENCODING 8652
SWIDTH 548 0
DWIDTH 16 0
BBX 13 11 2 5
BITMAP
0080
00C0
FFE0
FFF0
0000
0000
0000
FFF8
7FF0
3000
1000
ENDCHAR
STARTCHAR 21CD
ENCODING 8653
SWIDTH 548 0
DWIDTH 16 0
BBX 15 14 1 3
BITMAP
000C
080C
1C1C
3FFE
7FFC
E030
E070
E060
7FFE
3FFC
1DC0
0980
0B80
0100
ENDCHAR
STARTCHAR 21CE
ENCODING 8654
SWIDTH 548 0
DWIDTH 16 0
BBX 16 16 0 3
BITMAP
0010
0018
0438
0430
0E78
1FFC
3FFC
71CE
E1C7
718E
3FFC
1FF8
0E30
0E20
0C00
0C00
ENDCHAR
STARTCHAR 21CF
ENCODING 8655
SWIDTH 548 0
DWIDTH 16 0
BBX 14 14 1 4
BITMAP
0200
0340
0740
0660
0E70
FFF8
FFFC
181C
381C
FFF8
FFF0
E0E0
C040
C000
ENDCHAR
STARTCHAR 21D0
ENCODING 8656
SWIDTH 548 0
DWIDTH 16 0
BBX 15 11 1 4
BITMAP
0800
1C00
3FFE
7FFC
E000
E000
E000
7FFE
3FFC
1C00
0800
ENDCHAR
STARTCHAR 21D1
ENCODING 8657
SWIDTH 548 0
DWIDTH 16 0
BBX 11 15 3 3
BITMAP
0C00
1E00
3F00
7380
F3C0
F3E0
3300
3300
3300
3300
3300
3300
3300
3300
2200
ENDCHAR
STARTCHAR 21D2
ENCODING 8658
SWIDTH 548 0
DWIDTH 16 0
BBX 14 11 1 5
BITMAP
0040
0060
00F0
FFF0
FFF8
001C
001C
FFF8
FFF0
00E0
0040
ENDCHAR
STARTCHAR 21D3
ENCODING 8659
SWIDTH 548 0
DWIDTH 16 0
BBX 11 15 3 3
BITMAP
1180
3380
3380
3380
3380
3380
3380
3380
3380
F3E0
F3C0
7B80
3F00
1E00
0400
ENDCHAR
STARTCHAR 21D4
ENCODING 8660
SWIDTH 548 0
DWIDTH 16 0
BBX 16 12 0 5
BITMAP
0430
0E38
1FF8
3FFC
700E
E007
700E
3FFC
1FF8
0E30
0C20
0400
ENDCHAR
STARTCHAR 21D5
ENCODING 8661
SWIDTH 548 0
DWIDTH 16 0
BBX 12 15 2 4
BITMAP
0600
0F00
1F80
79E0
F9F0
19C0
19C0
19C0
19C0
79F0
79F0
3DC0
1F80
0F00
0600
ENDCHAR
STARTCHAR 21D6
ENCODING 8662
SWIDTH 548 0
DWIDTH 16 0
BBX 12 13 2 4
BITMAP
FF00
FE00
CE00
C700
E380
F1C0
F8E0
9C70
0E30
0710
0380
0180
0080
ENDCHAR
STARTCHAR 21D7
ENCODING 8663
SWIDTH 548 0
DWIDTH 16 0
BBX 13 13 2 4
BITMAP
0FF0
07F0
0730
0E30
1C70
38F0
71F0
E3D8
C700
8E00
1C00
1800
1000
ENDCHAR
STARTCHAR 21D8
ENCODING 8664
SWIDTH 548 0
DWIDTH 16 0
BBX 13 13 2 2
BITMAP
1000
1800
1C00
8E00
C700
E3D8
71F8
38F0
1C70
0E30
0730
07F0
0FF0
ENDCHAR
STARTCHAR 21D9
ENCODING 8665
SWIDTH 548 0
DWIDTH 16 0
BBX 12 13 2 2
BITMAP
0080
0180
0380
0710
0E30
9C70
F8E0
F1C0
E380
C700
CE00
FE00
FF00
ENDCHAR
STARTCHAR 21DA
ENCODING 8666
SWIDTH 548 0
DWIDTH 16 0
BBX 15 11 1 4
BITMAP
0800
1C00
3FFC
7000
FFFE
FFFC
7000
3FFC
3FFC
1C00
0800
ENDCHAR
STARTCHAR 21DB
ENCODING 8667
SWIDTH 548 0
DWIDTH 16 0
BBX 14 12 1 5
BITMAP
0040
0060
00F0
FFF0
FFF8
FFFC
FFFC
001C
0038
FFF0
00E0
0040
ENDCHAR
STARTCHAR 21DC
ENCODING 8668
SWIDTH 548 0
DWIDTH 16 0
BBX 15 5 1 8
BITMAP
0080
33C0
7FEE
FE7E
3030
ENDCHAR
STARTCHAR 21DD
ENCODING 8669
SWIDTH 548 0
DWIDTH 16 0
BBX 15 5 0 8
BITMAP
0200
0798
FFFE
FCFE
1818
ENDCHAR
STARTCHAR 21DE
ENCODING 8670
SWIDTH 548 0
DWIDTH 16 0
BBX 9 13 4 5
BITMAP
1800
1800
3C00
3C00
1800
1800
1800
FF80
1800
1800
FF80
1800
1800
ENDCHAR
STARTCHAR 21DF
ENCODING 8671
SWIDTH 548 0
DWIDTH 16 0
BBX 9 13 4 3
BITMAP
1800
1800
FF80
1800
1800
FF80
1800
1800
1800
3E00
3C00
1800
0800
ENDCHAR
STARTCHAR 21E0
ENCODING 8672
SWIDTH 548 0
DWIDTH 16 0
BBX 13 4 2 9
BITMAP
3000
FD98
FD90
3000
ENDCHAR
STARTCHAR 21E1
ENCODING 8673
SWIDTH 548 0
DWIDTH 16 0
BBX 4 13 6 4
BITMAP
20
60
F0
F0
60
60
00
60
60
00
00
60
40
ENDCHAR
STARTCHAR 21E2
ENCODING 8674
SWIDTH 548 0
DWIDTH 16 0
BBX 12 4 2 9
BITMAP
00C0
DBF0
DBF0
00C0
ENDCHAR
STARTCHAR 21E3
ENCODING 8675
SWIDTH 548 0
DWIDTH 16 0
BBX 5 13 6 4
BITMAP
60
60
00
60
60
00
60
60
F8
F0
70
60
40
ENDCHAR
STARTCHAR 21E4
ENCODING 8676
SWIDTH 548 0
DWIDTH 16 0
BBX 14 11 1 5
BITMAP
E000
E000
E000
E100
E300
EFFC
FFF8
E300
E100
E000
C000
ENDCHAR
STARTCHAR 21E5
ENCODING 8677
SWIDTH 548 0
DWIDTH 16 0
BBX 14 11 1 5
BITMAP
000C
000C
000C
018C
7FEC
FFEC
018C
000C
000C
000C
0008
ENDCHAR
STARTCHAR 21E6
ENCODING 8678
SWIDTH 548 0
DWIDTH 16 0
BBX 15 11 1 6
BITMAP
0800
1800
37FE
6002
C002
8002
4002
2002
17FE
0800
0800
ENDCHAR
STARTCHAR 21E7
ENCODING 8679
SWIDTH 548 0
DWIDTH 16 0
BBX 12 15 2 3
BITMAP
0200
0700
0980
30C0
6060
F0F0
1080
1080
1080
1080
1080
1080
1080
1080
1F80
ENDCHAR
STARTCHAR 21E8
ENCODING 8680
SWIDTH 548 0
DWIDTH 16 0
BBX 15 11 1 6
BITMAP
0040
0060
FFD0
8008
8004
8006
800C
8018
FFF0
0060
0040
ENDCHAR
STARTCHAR 21E9
ENCODING 8681
SWIDTH 548 0
DWIDTH 16 0
BBX 12 15 2 3
BITMAP
1F80
1080
1080
1080
1080
1080
1080
1080
1080
F0F0
6060
30C0
1980
0700
0200
ENDCHAR
STARTCHAR 21EA
ENCODING 8682
SWIDTH 548 0
DWIDTH 16 0
BBX 12 15 2 3
BITMAP
0200
0700
0980
30C0
6060
F070
1080
1080
1080
1F80
0000
1FC0
10C0
10C0
1FC0
ENDCHAR
STARTCHAR 21EB
ENCODING 8683
SWIDTH 548 0
DWIDTH 16 0
BBX 12 18 2 2
BITMAP
0200
0700
1980
30C0
6060
F0F0
1080
1080
1080
1080
1080
1080
1080
1080
1080
F0F0
8010
FFF0
ENDCHAR
STARTCHAR 21EC
ENCODING 8684
SWIDTH 548 0
DWIDTH 16 0
BBX 12 17 2 3
BITMAP
0600
0980
1FC0
6060
F0F0
1080
1080
1080
1080
1080
1080
1080
1080
1080
F0F0
8010
FFF0
ENDCHAR
STARTCHAR 21ED
ENCODING 8685
SWIDTH 548 0
DWIDTH 16 0
BBX 12 17 2 3
BITMAP
0600
0B80
12C0
6260
F2F0
1280
1280
1280
1280
1280
1280
1280
1280
1280
F2F0
8210
FFF0
ENDCHAR
STARTCHAR 21EE
ENCODING 8686
SWIDTH 548 0
DWIDTH 16 0
BBX 12 18 2 2
BITMAP
0200
0700
0980
12C0
6760
F9F0
10C0
2060
7070
1040
1040
1040
1040
1040
1040
1040
1040
1FC0
ENDCHAR
STARTCHAR 21EF
ENCODING 8687
SWIDTH 548 0
DWIDTH 16 0
BBX 12 21 2 0
BITMAP
0600
0F00
1980
32C0
6760
F9F0
1080
2060
F0F0
1080
1080
1080
1080
1080
1080
1080
1080
F0F0
8010
8010
FFF0
ENDCHAR
STARTCHAR 21F0
ENCODING 8688
SWIDTH 548 0
DWIDTH 16 0
BBX 16 13 0 4
BITMAP
F000
9020
9030
9FE8
8004
8002
8003
8006
800C
9FE8
9030
9020
F000
ENDCHAR
STARTCHAR 21F1
ENCODING 8689
SWIDTH 548 0
DWIDTH 16 0
BBX 12 14 2 5
BITMAP
FFE0
FFF0
C000
C000
DE00
CF00
CE00
CF00
CB80
C1C0
C0E0
C070
C030
0010
ENDCHAR
STARTCHAR 21F2
ENCODING 8690
SWIDTH 548 0
DWIDTH 16 0
BBX 13 14 3 2
BITMAP
4000
6018
F018
7818
3C18
1C98
0F98
0798
0798
03D8
0058
0018
7FF8
3FF8
ENDCHAR
STARTCHAR 21F3
ENCODING 8691
SWIDTH 548 0
DWIDTH 16 0
BBX 12 15 2 3
BITMAP
0200
0700
0980
10C0
2060
7070
1040
1040
1040
F070
2060
10C0
0980
0700
0200
ENDCHAR
STARTCHAR 21F4
ENCODING 8692
SWIDTH 548 0
DWIDTH 16 0
BBX 12 7 2 7
BITMAP
3C00
7EC0
FFF0
FFF0
67E0
3E80
1C00
ENDCHAR
STARTCHAR 21F5
ENCODING 8693
SWIDTH 548 0
DWIDTH 16 0
BBX 10 13 3 4
BITMAP
6180
6180
63C0
63C0
6180
6180
6180
6180
F980
F180
7180
6180
2100
ENDCHAR
STARTCHAR 21F6
ENCODING 8694
SWIDTH 548 0
DWIDTH 16 0
BBX 12 15 2 3
BITMAP
00C0
FFF0
FFF0
00C0
0000
00C0
FFF0
FFF0
00C0
0080
0080
00C0
FFF0
FFF0
00C0
ENDCHAR
STARTCHAR 21F7
ENCODING 8695
SWIDTH 548 0
DWIDTH 16 0
BBX 13 10 2 6
BITMAP
0080
0180
0180
3180
FFF8
FFF0
3180
0180
0180
0100
ENDCHAR
STARTCHAR 21F8
ENCODING 8696
SWIDTH 548 0
DWIDTH 16 0
BBX 12 10 2 6
BITMAP
0800
1800
1800
18C0
FFF0
FFF0
18C0
1800
1800
1000
ENDCHAR
STARTCHAR 21F9
ENCODING 8697
SWIDTH 548 0
DWIDTH 16 0
BBX 12 10 2 6
BITMAP
0200
0600
0600
36C0
FFF0
FFF0
36C0
0600
0600
0400
ENDCHAR
STARTCHAR 21FA
ENCODING 8698
SWIDTH 548 0
DWIDTH 16 0
BBX 13 10 2 6
BITMAP
0020
0160
0160
3160
FFF8
FFF0
3160
0160
0160
0140
ENDCHAR
STARTCHAR 21FB
ENCODING 8699
SWIDTH 548 0
DWIDTH 16 0
BBX 12 9 2 7
BITMAP
2800
2800
28C0
FFF0
FFF0
28C0
2800
2800
0800
ENDCHAR
STARTCHAR 21FC
ENCODING 8700
SWIDTH 548 0
DWIDTH 16 0
BBX 14 9 1 6
BITMAP
0680
0E80
3EB0
7FFC
FFFC
3EB0
0E80
0680
0680
ENDCHAR
STARTCHAR 21FD
ENCODING 8701
SWIDTH 548 0
DWIDTH 16 0
BBX 13 5 2 9
BITMAP
3000
4FF8
8FF0
7000
1000
ENDCHAR
STARTCHAR 21FE
ENCODING 8702
SWIDTH 548 0
DWIDTH 16 0
BBX 13 5 2 9
BITMAP
00C0
FFB0
FF98
00A0
00C0
ENDCHAR
STARTCHAR 21FF
ENCODING 8703
SWIDTH 548 0
DWIDTH 16 0
BBX 13 5 2 9
BITMAP
30C0
4FB0
8F98
70A0
10C0
ENDCHAR
STARTCHAR 2200
ENCODING 8704
SWIDTH 548 0
DWIDTH 16 0
BBX 14 22 1 0
BITMAP
400C
C00C
C00C
E00C
601C
6018
6018
3018
3FF0
3FF0
1830
1860
1860
1C60
0CE0
0CC0
0EC0
07C0
0780
0780
0380
0200
ENDCHAR
STARTCHAR 2201
ENCODING 8705
SWIDTH 548 0
DWIDTH 16 0
BBX 13 22 2 0
BITMAP
0F80
3FC0
70E0
E070
C030
C030
C038
C000
C000
C000
C000
C000
C000
C000
C008
C038
C030
C030
E070
70E0
3FC0
0F80
ENDCHAR
STARTCHAR 2202
ENCODING 8706
SWIDTH 548 0
DWIDTH 16 0
BBX 11 19 2 0
BITMAP
1F00
1FC0
01C0
00E0
0060
0060
0060
1E60
3F60
71E0
60E0
60E0
E0E0
E0C0
E1C0
6180
6380
7F00
1E00
ENDCHAR
STARTCHAR 2203
ENCODING 8707
SWIDTH 548 0
DWIDTH 16 0
BBX 12 21 3 0
BITMAP
3FE0
3FF0
0030
0030
0030
0030
0030
0030
0030
3FF0
3FF0
0030
0030
0030
0030
0030
0030
0030
0030
7FF0
FFF0
ENDCHAR
STARTCHAR 2204
ENCODING 8708
SWIDTH 548 0
DWIDTH 16 0
BBX 12 29 3 -4
BITMAP
0080
00C0
00C0
01C0
3FE0
3FF0
03B0
03B0
0330
0330
0730
0730
0630
3FF0
3FF0
0C30
0C30
0C30
1C30
1C30
1830
1830
1830
7FF0
FFF0
3000
3000
7000
2000
ENDCHAR
STARTCHAR 2205
ENCODING 8709
SWIDTH 548 0
DWIDTH 16 0
BBX 13 20 2 1
BITMAP
0020
0070
0060
00E0
0FC0
3FE0
71E0
E3F0
C330
C730
C638
CE30
EC30
7C70
78E0
3FC0
3F80
7000
6000
6000
ENDCHAR
STARTCHAR 2206
ENCODING 8710
SWIDTH 548 0
DWIDTH 16 0
BBX 15 22 1 0
BITMAP
0100
0380
0780
0780
07C0
06C0
0CC0
0CE0
0CE0
1C60
1860
1870
3830
3030
3038
7018
6018
601C
E01C
E00C
FFFC
FFFE
ENDCHAR
STARTCHAR 2207
ENCODING 8711
SWIDTH 548 0
DWIDTH 16 0
BBX 15 22 1 0
BITMAP
FFFE
FFFC
E00C
E01C
601C
6018
7018
3038
3030
3830
1870
1860
1C60
1CE0
0CE0
0CC0
0FC0
07C0
0780
0780
0380
0200
ENDCHAR
STARTCHAR 2208
ENCODING 8712
SWIDTH 548 0
DWIDTH 16 0
BBX 12 21 2 0
BITMAP
0FF0
1FE0
3800
7000
6000
E000
E000
E000
E000
FFF0
FFE0
E000
E000
E000
E000
E000
6000
7000
3800
1FF0
0FE0
ENDCHAR
STARTCHAR 2209
ENCODING 8713
SWIDTH 548 0
DWIDTH 16 0
BBX 12 29 2 -4
BITMAP
0040
0060
0060
00E0
0FF0
1FE0
39C0
71C0
6180
E180
E380
E380
E300
FFF0
FFE0
E600
E600
E600
EE00
EE00
6C00
7C00
3C00
1FF0
1FE0
1800
1800
3800
1000
ENDCHAR
STARTCHAR 220A
ENCODING 8714
SWIDTH 548 0
DWIDTH 16 0
BBX 12 13 2 4
BITMAP
0FF0
3FF0
7000
E000
C000
FFF0
FFF0
C000
E000
6000
7000
3FF0
0FF0
ENDCHAR
STARTCHAR 220B
ENCODING 8715
SWIDTH 548 0
DWIDTH 16 0
BBX 11 21 3 0
BITMAP
FE00
FF80
03C0
00C0
00E0
0060
0060
0060
0060
0060
FFE0
FFE0
0060
0060
0060
0060
00E0
00C0
01C0
FF80
FE00
ENDCHAR
STARTCHAR 220C
ENCODING 8716
SWIDTH 548 0
DWIDTH 16 0
BBX 11 29 3 -4
BITMAP
0180
0180
0180
0180
FF80
FF80
03C0
03C0
07E0
0660
0660
0660
0E60
0E60
FFE0
FFE0
1C60
1860
1860
1860
38E0
30C0
31C0
FF80
FE00
6000
6000
6000
6000
ENDCHAR
STARTCHAR 220D
ENCODING 8717
SWIDTH 548 0
DWIDTH 16 0
BBX 13 13 2 4
BITMAP
7F80
FFC0
00E0
0070
0030
7FF0
FFF8
0030
0030
0070
00E0
7FC0
FF80
ENDCHAR
STARTCHAR 220E
ENCODING 8718
SWIDTH 548 0
DWIDTH 16 0
BBX 7 15 5 3
BITMAP
FE
FE
FE
FE
FE
FE
FE
FE
FE
FE
FE
FE
FE
FE
FE
ENDCHAR
STARTCHAR 220F
ENCODING 8719
SWIDTH 548 0
DWIDTH 16 0
BBX 12 21 2 0
BITMAP
FFF0
FFF0
C030
C030
C030
C030
C030
C030
C030
C030
C030
C030
C030
C030
C030
C030
C030
C030
C030
C030
8020
ENDCHAR
STARTCHAR 2210
ENCODING 8720
SWIDTH 548 0
DWIDTH 16 0
BBX 12 22 2 0
BITMAP
4010
C030
C030
C030
C030
C030
C030
C030
C030
C030
C030
C030
C030
C030
C030
C030
C030
C030
C030
C030
FFF0
FFF0
ENDCHAR
STARTCHAR 2211
ENCODING 8721
SWIDTH 548 0
DWIDTH 16 0
BBX 12 21 2 0
BITMAP
7FE0
FFE0
7000
3000
3800
1C00
0C00
0E00
0700
0300
0300
0700
0600
0E00
1C00
1C00
3800
3800
7000
7FF0
FFF0
ENDCHAR
STARTCHAR 2212
ENCODING 8722
SWIDTH 548 0
DWIDTH 16 0
BBX 12 2 2 10
BITMAP
7FF0
FFF0
ENDCHAR
STARTCHAR 2213
ENCODING 8723
SWIDTH 548 0
DWIDTH 16 0
BBX 12 15 2 4
BITMAP
7FF0
FFF0
0000
0200
0600
0600
0600
0600
7FF0
FFF0
0600
0600
0600
0600
0400
ENDCHAR
STARTCHAR 2214
ENCODING 8724
SWIDTH 548 0
DWIDTH 16 0
BBX 12 17 2 4
BITMAP
0600
0F00
0F00
0600
0000
0200
0600
0600
0600
0600
7FF0
FFF0
0600
0600
0600
0600
0400
ENDCHAR
STARTCHAR 2215
ENCODING 8725
SWIDTH 548 0
DWIDTH 16 0
BBX 14 31 1 -5
BITMAP
000C
000C
001C
001C
0018
0038
0030
0070
0060
00E0
00E0
00C0
01C0
0180
0380
0300
0700
0700
0600
0E00
0C00
1C00
1800
3800
3800
3000
7000
6000
E000
C000
4000
ENDCHAR
STARTCHAR 2216
ENCODING 8726
SWIDTH 548 0
DWIDTH 16 0
BBX 14 15 1 3
BITMAP
4000
E000
7000
3800
1C00
0E00
0700
0380
0180
01C0
00E0
0070
0038
001C
0008
ENDCHAR
STARTCHAR 2217
ENCODING 8727
SWIDTH 548 0
DWIDTH 16 0
BBX 12 11 2 5
BITMAP
0600
0600
2660
FFF0
3FC0
0F00
3FC0
FFF0
2660
0600
0600
ENDCHAR
STARTCHAR 2218
ENCODING 8728
SWIDTH 548 0
DWIDTH 16 0
BBX 10 9 3 6
BITMAP
1E00
3F80
7180
E0C0
E0C0
E0C0
7180
3F80
1E00
ENDCHAR
STARTCHAR 2219
ENCODING 8729
SWIDTH 548 0
DWIDTH 16 0
BBX 10 9 3 6
BITMAP
1E00
3F80
7F80
FFC0
FFC0
FFC0
7F80
3F80
1E00
ENDCHAR
STARTCHAR 221A
ENCODING 8730
SWIDTH 548 0
DWIDTH 16 0
BBX 14 22 1 0
BITMAP
000C
000C
000C
001C
001C
0018
0018
0038
0030
0030
0070
0060
7860
FCE0
1CE0
0CC0
0EC0
0FC0
0780
0780
0780
0200
ENDCHAR
STARTCHAR 221B
ENCODING 8731
SWIDTH 548 0
DWIDTH 16 0
BBX 14 22 1 0
BITMAP
7E0C
FC0C
180C
381C
3C1C
2E18
C618
C638
7C30
3830
0070
0060
7860
FCE0
1CE0
0CC0
0EC0
0FC0
0780
0780
0780
0200
ENDCHAR
STARTCHAR 221C
ENCODING 8732
SWIDTH 548 0
DWIDTH 16 0
BBX 14 22 1 0
BITMAP
040C
0C0C
1C0C
3C1C
3C1C
6C18
FE18
FE38
0C30
0C30
0870
0060
7860
FCE0
1CE0
0CC0
0EC0
0FC0
0780
0780
0780
0200
ENDCHAR
STARTCHAR 221D
ENCODING 8733
SWIDTH 548 0
DWIDTH 16 0
BBX 12 9 2 6
BITMAP
1E70
7FE0
63C0
E180
E180
E180
63C0
7FF0
1E60
ENDCHAR
STARTCHAR 221E
ENCODING 8734
SWIDTH 548 0
DWIDTH 16 0
BBX 15 9 1 6
BITMAP
3CF0
7FF8
E79C
C30C
C30E
C30C
E79C
7FF8
3CF0
ENDCHAR
STARTCHAR 221F
ENCODING 8735
SWIDTH 548 0
DWIDTH 16 0
BBX 12 13 2 0
BITMAP
4000
C000
C000
C000
C000
C000
C000
C000
C000
C000
C000
FFF0
FFF0
ENDCHAR
STARTCHAR 2220
ENCODING 8736
SWIDTH 548 0
DWIDTH 16 0
BBX 15 13 1 5
BITMAP
0020
0070
00E0
01C0
0380
0700
0E00
1C00
3800
7000
E000
FFFE
FFFE
ENDCHAR
STARTCHAR 2221
ENCODING 8737
SWIDTH 548 0
DWIDTH 16 0
BBX 15 16 1 2
BITMAP
0020
0070
00E0
3FC0
7F80
0780
0FC0
1CE0
38E0
7070
E070
FFFE
FFFE
0060
0060
0040
ENDCHAR
STARTCHAR 2222
ENCODING 8738
SWIDTH 548 0
DWIDTH 16 0
BBX 14 16 1 3
BITMAP
0200
078C
01FC
00F8
03E0
0FE0
3E70
7870
F070
3C70
1F70
07E0
01E0
01F8
03BC
0708
ENDCHAR
STARTCHAR 2223
ENCODING 8739
SWIDTH 548 0
DWIDTH 16 0
BBX 2 31 7 -5
BITMAP
C0
C0
C0
C0
C0
C0
C0
C0
C0
C0
C0
C0
C0
C0
C0
C0
C0
C0
C0
C0
C0
C0
C0
C0
C0
C0
C0
C0
C0
C0
80
ENDCHAR
STARTCHAR 2224
ENCODING 8740
SWIDTH 548 0
DWIDTH 16 0
BBX 14 31 1 -4
BITMAP
0300
0300
0300
0300
0300
0300
0300
0300
0308
031C
0338
0370
03E0
03C0
0380
0380
0700
0F00
1F00
3B00
7300
E300
4300
0300
0300
0300
0300
0300
0300
0300
0200
ENDCHAR
STARTCHAR 2225
ENCODING 8741
SWIDTH 548 0
DWIDTH 16 0
BBX 7 31 5 -5
BITMAP
C6
CE
CE
CE
CE
CE
CE
CE
CE
CE
CE
CE
CE
CE
CE
CE
CE
CE
CE
CE
CE
CE
CE
CE
CE
CE
CE
CE
CE
CE
88
ENDCHAR
STARTCHAR 2226
ENCODING 8742
SWIDTH 548 0
DWIDTH 16 0
BBX 14 32 1 -5
BITMAP
0020
0CE0
0CE0
0CE0
0CE0
0CE0
0CE0
0CE0
0CE0
0CE8
0CFC
0CF8
0CF0
0CE0
0DE0
0DE0
0FE0
0FE0
0EE0
1CE0
3CE0
7CE0
ECE0
4CE0
0CE0
0CE0
0CE0
0CE0
0CE0
0CE0
0CE0
0880
ENDCHAR
STARTCHAR 2227
ENCODING 8743
SWIDTH 548 0
DWIDTH 16 0
BBX 12 12 2 5
BITMAP
0200
0700
0F00
0F80
1D80
19C0
38C0
30E0
70E0
6060
E070
4020
ENDCHAR
STARTCHAR 2228
ENCODING 8744
SWIDTH 548 0
DWIDTH 16 0
BBX 12 12 2 5
BITMAP
6020
E070
6060
70E0
30E0
38C0
19C0
1D80
1F80
0F00
0F00
0600
ENDCHAR
STARTCHAR 2229
ENCODING 8745
SWIDTH 548 0
DWIDTH 16 0
BBX 10 12 3 4
BITMAP
1E00
7F80
E1C0
E0C0
C0C0
C0C0
C0C0
C0C0
C0C0
C0C0
C0C0
80C0
ENDCHAR
STARTCHAR 222A
ENCODING 8746
SWIDTH 548 0
DWIDTH 16 0
BBX 10 12 3 4
BITMAP
4040
C0C0
C0C0
C0C0
C0C0
C0C0
C0C0
C0C0
E0C0
E1C0
7F80
1F00
ENDCHAR
STARTCHAR 222B
ENCODING 8747
SWIDTH 548 0
DWIDTH 16 0
BBX 8 31 4 -5
BITMAP
07
0F
1C
18
18
18
18
18
18
18
18
18
18
18
18
18
18
18
18
18
18
18
18
18
18
18
18
18
18
78
E0
ENDCHAR
STARTCHAR 222C
ENCODING 8748
SWIDTH 548 0
DWIDTH 16 0
BBX 14 31 1 -5
BITMAP
07BC
0F78
0C60
1C60
1C60
1C60
1C60
1C60
1C60
1C60
1C60
1C60
1C60
1C60
1C60
1C60
1C60
1C60
1C60
1C60
1C60
1C60
1C60
1C60
1C60
1C60
1C60
1C60
1CE0
7BC0
F380
ENDCHAR
STARTCHAR 222D
ENCODING 8749
SWIDTH 548 0
DWIDTH 16 0
BBX 16 31 0 -5
BITMAP
0777
0FFF
1DDC
1998
1998
1998
1998
1998
1998
1998
1998
1998
1998
1998
1998
1998
1998
1998
1998
1998
1998
1998
1998
1998
1998
1998
1998
1998
3998
77F8
EEF0
ENDCHAR
STARTCHAR 222E
ENCODING 8750
SWIDTH 548 0
DWIDTH 16 0
BBX 13 31 2 -5
BITMAP
01C0
03C0
0700
0600
0600
0600
0600
0600
0600
0F00
3FC0
7FE0
E670
C630
C630
C638
C630
E630
6670
7FE0
3FC0
0F00
0600
0600
0600
0600
0600
0600
0600
1C00
3800
ENDCHAR
STARTCHAR 222F
ENCODING 8751
SWIDTH 548 0
DWIDTH 16 0
BBX 13 31 2 -5
BITMAP
0770
0FF0
1DC0
1980
1980
1980
1980
1980
1980
1F80
3FC0
79E0
F9F0
D9B0
D9B0
D9B8
D9B0
F9F0
79E0
3FC0
1F80
1980
1980
1980
1980
1980
1980
1980
3980
7780
EE00
ENDCHAR
STARTCHAR 2230
ENCODING 8752
SWIDTH 548 0
DWIDTH 16 0
BBX 16 31 0 -5
BITMAP
0777
0FFF
1DDC
1998
1998
1998
1998
1998
1998
1FF8
1FF8
3D9C
799E
799E
799F
799F
799F
799E
799E
3D9C
1FF8
1FF8
1998
1998
1998
1998
1998
1998
3998
77F8
EEF0
ENDCHAR
STARTCHAR 2231
ENCODING 8753
SWIDTH 548 0
DWIDTH 16 0
BBX 12 31 3 -5
BITMAP
0380
0780
0E00
0C00
0C00
0C00
0C00
0C00
0C00
0C00
0C00
0C00
3F00
7F80
7DC0
ECC0
CCE0
0DF0
0CE0
0CE0
0C40
0C00
0C00
0C00
0C00
0C00
0C00
0C00
0C00
3800
7000
ENDCHAR
STARTCHAR 2232
ENCODING 8754
SWIDTH 548 0
DWIDTH 16 0
BBX 12 31 3 -5
BITMAP
0380
0780
0E00
0C00
0C00
0C00
0C00
0C00
0C00
0C00
1E00
3F00
7F80
EDD0
CDE0
CDE0
CCE0
EC60
FC00
7C00
1C00
0C00
0C00
0C00
0C00
0C00
0C00
0C00
0C00
3800
7000
ENDCHAR
STARTCHAR 2233
ENCODING 8755
SWIDTH 548 0
DWIDTH 16 0
BBX 12 31 3 -5
BITMAP
0380
0780
0E00
0C00
0C00
0C00
0C00
0C00
0C00
0C00
1C00
3C00
7C00
EC60
CCE0
CDE0
CDE0
EDF0
FF80
7F80
1E00
0C00
0C00
0C00
0C00
0C00
0C00
0C00
0C00
3800
7000
ENDCHAR
STARTCHAR 2234
ENCODING 8756
SWIDTH 548 0
DWIDTH 16 0
BBX 13 14 2 4
BITMAP
0600
0F00
0F00
0600
0000
0000
0000
0000
0000
0000
E030
E078
E078
E030
ENDCHAR
STARTCHAR 2235
ENCODING 8757
SWIDTH 548 0
DWIDTH 16 0
BBX 13 14 2 4
BITMAP
C030
E078
E078
E030
0000
0000
0000
0000
0000
0000
0600
0F00
0F00
0600
ENDCHAR
STARTCHAR 2236
ENCODING 8758
SWIDTH 548 0
DWIDTH 16 0
BBX 4 14 6 4
BITMAP
60
F0
F0
60
00
00
00
00
00
00
60
F0
F0
60
ENDCHAR
STARTCHAR 2237
ENCODING 8759
SWIDTH 548 0
DWIDTH 16 0
BBX 13 14 2 4
BITMAP
C030
E078
E078
E030
0000
0000
0000
0000
0000
0000
E030
E078
E078
E030
ENDCHAR
STARTCHAR 2238
ENCODING 8760
SWIDTH 548 0
DWIDTH 16 0
BBX 12 8 2 10
BITMAP
0600
0F00
0F00
0600
0000
0000
7FF0
FFF0
ENDCHAR
STARTCHAR 2239
ENCODING 8761
SWIDTH 548 0
DWIDTH 16 0
BBX 13 14 2 4
BITMAP
0030
0078
0078
0030
0000
0000
7F00
FF00
0000
0000
0030
0078
0078
0030
ENDCHAR
STARTCHAR 223A
ENCODING 8762
SWIDTH 548 0
DWIDTH 16 0
BBX 13 14 2 4
BITMAP
C030
E078
E078
E030
0000
0000
7FF0
FFF0
0000
0000
E030
E078
E078
E030
ENDCHAR
STARTCHAR 223B
ENCODING 8763
SWIDTH 548 0
DWIDTH 16 0
BBX 12 14 2 4
BITMAP
0600
0F00
0F00
0600
0000
3C10
7F30
E7F0
C1E0
0000
0600
0F00
0F00
0600
ENDCHAR
STARTCHAR 223C
ENCODING 8764
SWIDTH 548 0
DWIDTH 16 0
BBX 12 4 2 9
BITMAP
3C10
7F30
E7F0
C1E0
ENDCHAR
STARTCHAR 223D
ENCODING 8765
SWIDTH 548 0
DWIDTH 16 0
BBX 12 4 2 9
BITMAP
83E0
E7F0
7E30
3810
ENDCHAR
STARTCHAR 223E
ENCODING 8766
SWIDTH 548 0
DWIDTH 16 0
BBX 16 7 0 7
BITMAP
3C0C
7F1E
E787
C3C3
E0F7
787E
383C
ENDCHAR
STARTCHAR 223F
ENCODING 8767
SWIDTH 548 0
DWIDTH 16 0
BBX 13 13 2 4
BITMAP
3C00
FE00
C600
C600
C600
C600
4600
0670
0630
0638
0730
03F0
01E0
ENDCHAR
STARTCHAR 2240
ENCODING 8768
SWIDTH 548 0
DWIDTH 16 0
BBX 4 13 6 4
BITMAP
C0
E0
70
30
30
70
60
E0
C0
C0
F0
70
10
ENDCHAR
STARTCHAR 2241
ENCODING 8769
SWIDTH 548 0
DWIDTH 16 0
BBX 12 19 2 1
BITMAP
0020
0070
0060
00E0
00C0
01C0
0380
3B90
7F30
EFF0
CFE0
0C00
1C00
1800
3800
3000
7000
6000
6000
ENDCHAR
STARTCHAR 2242
ENCODING 8770
SWIDTH 548 0
DWIDTH 16 0
BBX 12 7 2 7
BITMAP
7FF0
FFF0
0000
3C10
7F30
E7F0
C1E0
ENDCHAR
STARTCHAR 2243
ENCODING 8771
SWIDTH 548 0
DWIDTH 16 0
BBX 12 8 2 7
BITMAP
3C10
7F30
E7F0
C1E0
0000
0000
7FF0
FFF0
ENDCHAR
STARTCHAR 2244
ENCODING 8772
SWIDTH 548 0
DWIDTH 16 0
BBX 12 19 2 1
BITMAP
0020
0070
0060
00E0
00C0
3DD0
7FB0
E7F0
C7E0
0700
0600
7FF0
FFF0
1800
3800
3000
7000
6000
6000
ENDCHAR
STARTCHAR 2245
ENCODING 8773
SWIDTH 548 0
DWIDTH 16 0
BBX 12 12 2 5
BITMAP
3C10
7F30
E7F0
C1E0
0000
0000
7FF0
FFF0
0000
0000
7FF0
FFF0
ENDCHAR
STARTCHAR 2246
ENCODING 8774
SWIDTH 548 0
DWIDTH 16 0
BBX 12 16 2 1
BITMAP
3C10
7F30
E7F0
C1E0
0200
0300
7FF0
FFF0
0C00
1C00
7FF0
FFF0
7000
7000
6000
6000
ENDCHAR
STARTCHAR 2247
ENCODING 8775
SWIDTH 548 0
DWIDTH 16 0
BBX 12 19 2 1
BITMAP
0020
0070
0060
3EF0
7FF0
E7F0
C3E0
0380
0300
7FF0
FFF0
0C00
1C00
7FF0
FFF0
7000
7000
6000
6000
ENDCHAR
STARTCHAR 2248
ENCODING 8776
SWIDTH 548 0
DWIDTH 16 0
BBX 13 9 2 6
BITMAP
3C10
7F30
E7F0
C1E0
0008
3C10
7F30
E7F0
C1C0
ENDCHAR
STARTCHAR 2249
ENCODING 8777
SWIDTH 548 0
DWIDTH 16 0
BBX 13 19 2 1
BITMAP
0020
0070
0060
00E0
00C0
3DD0
7FB0
E7F0
C7E0
8608
3E10
7F30
FFF0
D9E0
3800
3000
7000
6000
6000
ENDCHAR
STARTCHAR 224A
ENCODING 8778
SWIDTH 548 0
DWIDTH 16 0
BBX 12 12 2 5
BITMAP
3C10
7F30
E7F0
81E0
3C10
7F30
E7F0
C1E0
0000
0000
7FF0
FFE0
ENDCHAR
STARTCHAR 224B
ENCODING 8779
SWIDTH 548 0
DWIDTH 16 0
BBX 13 13 2 4
BITMAP
3C10
7F30
E7F0
81E0
3C10
7F30
E7F0
C1E0
0008
3C10
7F30
E7F0
C1C0
ENDCHAR
STARTCHAR 224C
ENCODING 8780
SWIDTH 548 0
DWIDTH 16 0
BBX 12 12 2 5
BITMAP
83E0
E7F0
7E30
3810
0000
0000
7FF0
FFF0
0000
0000
7FF0
FFF0
ENDCHAR
STARTCHAR 224D
ENCODING 8781
SWIDTH 548 0
DWIDTH 16 0
BBX 14 10 1 6
BITMAP
6018
F83C
3FF8
0FE0
0000
0000
0FE0
3FF8
F83C
6018
ENDCHAR
STARTCHAR 224E
ENCODING 8782
SWIDTH 548 0
DWIDTH 16 0
BBX 14 16 1 3
BITMAP
0780
0FE0
1C60
1870
3830
783C
F83C
0000
0000
0000
783C
F83C
3830
1C70
1FE0
07C0
ENDCHAR
STARTCHAR 224F
ENCODING 8783
SWIDTH 548 0
DWIDTH 16 0
BBX 14 12 1 7
BITMAP
0780
0FC0
1C60
3870
3030
703C
F03C
0000
0000
0000
7FFC
FFFC
ENDCHAR
STARTCHAR 2250
ENCODING 8784
SWIDTH 548 0
DWIDTH 16 0
BBX 12 13 2 7
BITMAP
0600
0F00
0F00
0600
0000
0000
7FF0
FFF0
0000
0000
0000
7FF0
FFF0
ENDCHAR
STARTCHAR 2251
ENCODING 8785
SWIDTH 548 0
DWIDTH 16 0
BBX 12 18 2 2
BITMAP
0600
0F00
0F00
0600
0000
0000
7FF0
FFF0
0000
0000
0000
7FF0
FFF0
0000
0600
0F00
0F00
0600
ENDCHAR
STARTCHAR 2252
ENCODING 8786
SWIDTH 548 0
DWIDTH 16 0
BBX 12 17 2 2
BITMAP
E000
E000
E000
E000
0000
7FF0
FFF0
0000
0000
0000
7FF0
FFF0
0000
0070
0070
0070
0070
ENDCHAR
STARTCHAR 2253
ENCODING 8787
SWIDTH 548 0
DWIDTH 16 0
BBX 12 17 2 2
BITMAP
0070
0070
0070
0070
0000
7FF0
FFF0
0000
0000
0000
7FF0
FFF0
0000
E000
E000
E000
E000
ENDCHAR
STARTCHAR 2254
ENCODING 8788
SWIDTH 548 0
DWIDTH 16 0
BBX 14 9 1 6
BITMAP
6000
F3FC
F3F8
6000
0000
6000
F3FC
F3F8
6000
ENDCHAR
STARTCHAR 2255
ENCODING 8789
SWIDTH 548 0
DWIDTH 16 0
BBX 13 9 2 6
BITMAP
0030
FF78
FE78
0030
0000
0030
FF78
FE78
0030
ENDCHAR
STARTCHAR 2256
ENCODING 8790
SWIDTH 548 0
DWIDTH 16 0
BBX 12 7 2 7
BITMAP
7FF0
FFF0
18C0
10C0
18C0
7FF0
FFF0
ENDCHAR
STARTCHAR 2257
ENCODING 8791
SWIDTH 548 0
DWIDTH 16 0
BBX 12 15 2 7
BITMAP
0700
0F80
18C0
18C0
18C0
0F80
0700
0000
7FF0
FFF0
0000
0000
0000
7FF0
FFF0
ENDCHAR
STARTCHAR 2258
ENCODING 8792
SWIDTH 548 0
DWIDTH 16 0
BBX 12 12 2 7
BITMAP
1F80
3FE0
70F0
2020
0000
7FF0
FFF0
0000
0000
0000
7FF0
FFF0
ENDCHAR
STARTCHAR 2259
ENCODING 8793
SWIDTH 548 0
DWIDTH 16 0
BBX 12 15 2 7
BITMAP
0100
0700
0F80
0F80
1DC0
38E0
1080
0000
7FF0
FFF0
0000
0000
0000
7FF0
FFF0
ENDCHAR
STARTCHAR 225A
ENCODING 8794
SWIDTH 548 0
DWIDTH 16 0
BBX 12 15 2 7
BITMAP
18C0
38C0
1DC0
0F80
0F00
0700
0000
0000
7FF0
FFF0
0000
0000
0000
7FF0
FFF0
ENDCHAR
STARTCHAR 225B
ENCODING 8795
SWIDTH 548 0
DWIDTH 16 0
BBX 12 15 2 7
BITMAP
0200
0600
1F80
1F80
1F80
0F80
0600
0400
7FF0
FFF0
0000
0000
0000
7FF0
FFF0
ENDCHAR
STARTCHAR 225C
ENCODING 8796
SWIDTH 548 0
DWIDTH 16 0
BBX 12 15 2 7
BITMAP
0200
0200
0700
0D80
0D80
18C0
1FC0
0000
7FF0
FFF0
0000
0000
0000
7FF0
FFF0
ENDCHAR
STARTCHAR 225D
ENCODING 8797
SWIDTH 548 0
DWIDTH 16 0
BBX 12 14 2 7
BITMAP
1070
3350
5570
5740
5540
3340
0000
7FF0
FFF0
0000
0000
0000
7FF0
FFF0
ENDCHAR
STARTCHAR 225E
ENCODING 8798
SWIDTH 548 0
DWIDTH 16 0
BBX 12 15 2 7
BITMAP
1DC0
3FE0
3760
2620
2620
2620
2620
0400
7FF0
FFF0
0000
0000
0000
7FF0
FFF0
ENDCHAR
STARTCHAR 225F
ENCODING 8799
SWIDTH 548 0
DWIDTH 16 0
BBX 12 15 2 7
BITMAP
0700
0F80
0D80
0CC0
0180
0180
0300
0600
7FF0
FFF0
0000
0000
0000
7FF0
FFF0
ENDCHAR
STARTCHAR 2260
ENCODING 8800
SWIDTH 548 0
DWIDTH 16 0
BBX 12 19 2 1
BITMAP
0020
0070
0060
00E0
01C0
01C0
7FF0
FFF0
0700
0600
0E00
7FF0
FFF0
1800
3800
3000
7000
6000
6000
ENDCHAR
STARTCHAR 2261
ENCODING 8801
SWIDTH 548 0
DWIDTH 16 0
BBX 12 11 2 5
BITMAP
7FF0
FFF0
0000
0000
7FF0
FFF0
0000
0000
0000
7FF0
FFF0
ENDCHAR
STARTCHAR 2262
ENCODING 8802
SWIDTH 548 0
DWIDTH 16 0
BBX 12 19 2 1
BITMAP
0020
0070
0060
00E0
7FF0
FFF0
0380
0300
7FF0
FFF0
0E00
0C00
1C00
7FF0
FFF0
3000
7000
6000
6000
ENDCHAR
STARTCHAR 2263
ENCODING 8803
SWIDTH 548 0
DWIDTH 16 0
BBX 12 15 2 3
BITMAP
7FF0
FFF0
0000
0000
7FF0
FFF0
0000
0000
0000
7FF0
FFF0
0000
0000
7FF0
FFF0
ENDCHAR
STARTCHAR 2264
ENCODING 8804
SWIDTH 548 0
DWIDTH 16 0
BBX 12 15 2 3
BITMAP
0030
00F0
03E0
0F80
3E00
7800
F800
7E00
1F80
03F0
00F0
0020
0000
7FF0
FFF0
ENDCHAR
STARTCHAR 2265
ENCODING 8805
SWIDTH 548 0
DWIDTH 16 0
BBX 12 15 2 3
BITMAP
4000
F000
7E00
1F80
07E0
00F0
00F0
07E0
1F00
7C00
F000
4000
0000
7FF0
FFF0
ENDCHAR
STARTCHAR 2266
ENCODING 8806
SWIDTH 548 0
DWIDTH 16 0
BBX 12 20 2 1
BITMAP
0030
00F0
03E0
0F80
3E00
7800
F800
7E00
1F80
03F0
00F0
0030
0000
0000
7FF0
FFF0
0000
0000
7FF0
FFF0
ENDCHAR
STARTCHAR 2267
ENCODING 8807
SWIDTH 548 0
DWIDTH 16 0
BBX 12 20 2 1
BITMAP
4000
F000
7E00
1F80
07E0
00F0
00F0
07E0
1F80
7C00
F000
4000
0000
0000
7FF0
FFF0
0000
0000
7FF0
FFF0
ENDCHAR
STARTCHAR 2268
ENCODING 8808
SWIDTH 548 0
DWIDTH 16 0
BBX 12 21 2 -1
BITMAP
0030
00F0
03E0
0F80
3E00
7800
F800
7E00
1F80
03F0
00F0
0030
0080
01C0
7FF0
FFF0
0700
0E00
7FF0
FFF0
3800
ENDCHAR
STARTCHAR 2269
ENCODING 8809
SWIDTH 548 0
DWIDTH 16 0
BBX 12 21 2 -1
BITMAP
4000
F000
7E00
1F80
07E0
00F0
00F0
07E0
1F80
7C00
F000
4000
01C0
01C0
7FF0
FFF0
0700
0E00
7FF0
FFF0
3800
ENDCHAR
STARTCHAR 226A
ENCODING 8810
SWIDTH 548 0
DWIDTH 16 0
BBX 15 12 0 5
BITMAP
0102
0306
0F1E
1E3C
3870
70E0
F1E0
78F0
3E7C
0F1E
070E
0102
ENDCHAR
STARTCHAR 226B
ENCODING 8811
SWIDTH 548 0
DWIDTH 16 0
BBX 15 12 1 5
BITMAP
8100
E1C0
F1E0
3CF8
1E3C
071E
071E
1E3C
3C78
F1E0
E1C0
8100
ENDCHAR
STARTCHAR 226C
ENCODING 8812
SWIDTH 548 0
DWIDTH 16 0
BBX 7 22 5 0
BITMAP
10
30
78
78
7C
FC
EC
CC
CE
CE
CE
CE
CE
CC
CC
EC
FC
7C
78
78
30
10
ENDCHAR
STARTCHAR 226D
ENCODING 8813
SWIDTH 548 0
DWIDTH 16 0
BBX 14 19 1 1
BITMAP
0010
0038
0030
0070
6078
F0FC
7FF8
1FE0
0380
0300
0700
1FF0
7FF8
FC3C
3C08
1800
3800
3000
3000
ENDCHAR
STARTCHAR 226E
ENCODING 8814
SWIDTH 548 0
DWIDTH 16 0
BBX 12 19 2 1
BITMAP
0020
0070
0060
00E0
00F0
01F0
07C0
3F80
7F00
F600
7E00
1F80
1FF0
18F0
3820
3000
7000
6000
6000
ENDCHAR
STARTCHAR 226F
ENCODING 8815
SWIDTH 548 0
DWIDTH 16 0
BBX 12 19 2 1
BITMAP
0020
0070
00E0
40E0
F1C0
7D80
1F80
07E0
07F0
06F0
0FE0
0FC0
3F00
FC00
F800
3000
7000
6000
6000
ENDCHAR
STARTCHAR 2270
ENCODING 8816
SWIDTH 548 0
DWIDTH 16 0
BBX 12 19 2 1
BITMAP
0020
0070
0070
01F0
07E0
1FC0
7F80
7380
FF00
7E00
0FC0
0FF0
1CF0
1820
3800
7FF0
FFF0
6000
6000
ENDCHAR
STARTCHAR 2271
ENCODING 8817
SWIDTH 548 0
DWIDTH 16 0
BBX 12 19 2 1
BITMAP
0020
0070
4060
F0E0
7EC0
1FC0
07E0
03F0
07F0
07E0
1F00
7C00
FC00
5800
3800
7FF0
FFF0
6000
6000
ENDCHAR
STARTCHAR 2272
ENCODING 8818
SWIDTH 548 0
DWIDTH 16 0
BBX 12 16 2 2
BITMAP
0030
00F0
03E0
0F80
3E00
7800
F800
7E00
1F80
03F0
00F0
0020
3C10
7F30
E7F0
C1E0
ENDCHAR
STARTCHAR 2273
ENCODING 8819
SWIDTH 548 0
DWIDTH 16 0
BBX 12 16 2 2
BITMAP
4000
F000
7E00
1F80
07E0
00F0
00F0
07E0
1F00
7C00
F000
4000
3C10
7F30
E7F0
C1E0
ENDCHAR
STARTCHAR 2274
ENCODING 8820
SWIDTH 548 0
DWIDTH 16 0
BBX 12 19 2 1
BITMAP
0020
0070
0070
01F0
07C0
1FC0
7F80
7300
FF00
7E00
0FC0
0FF0
1CF0
1820
3C10
7F30
F7F0
E1E0
2000
ENDCHAR
STARTCHAR 2275
ENCODING 8821
SWIDTH 548 0
DWIDTH 16 0
BBX 12 19 2 1
BITMAP
0020
0070
4060
F0E0
7EC0
1FC0
07E0
03F0
07F0
07C0
3F00
FC00
FC00
1800
3C10
7F30
F7F0
E1E0
2000
ENDCHAR
STARTCHAR 2276
ENCODING 8822
SWIDTH 548 0
DWIDTH 16 0
BBX 12 21 2 0
BITMAP
0030
00F0
03E0
0F80
3E00
7800
F800
7E00
1F80
43F0
F0F0
7E20
1F80
07E0
00F0
00F0
07E0
1F00
7C00
F000
4000
ENDCHAR
STARTCHAR 2277
ENCODING 8823
SWIDTH 548 0
DWIDTH 16 0
BBX 12 21 2 0
BITMAP
4000
F000
7E00
1F80
07E0
00F0
00F0
07E0
1F00
7C30
F0F0
43E0
0F80
3E00
7800
F800
7E00
1F80
03F0
00F0
0020
ENDCHAR
STARTCHAR 2278
ENCODING 8824
SWIDTH 548 0
DWIDTH 16 0
BBX 15 26 1 -2
BITMAP
0004
000E
000C
001C
0078
01F8
07F0
3F70
3CE0
7CC0
3FC0
0FC0
23F8
7F78
3F10
0FC0
0FF0
0C78
1CF8
1BE0
3F80
3E00
7800
E000
C000
C000
ENDCHAR
STARTCHAR 2279
ENCODING 8825
SWIDTH 548 0
DWIDTH 16 0
BBX 15 26 1 -2
BITMAP
0004
000E
000C
201C
7818
3F38
0FF0
03F0
00F8
00F8
01F0
0FC0
3F98
7B78
27F0
07C0
1F00
3C00
7C00
3F00
3FC0
71F8
7078
E010
C000
C000
ENDCHAR
STARTCHAR 227A
ENCODING 8826
SWIDTH 548 0
DWIDTH 16 0
BBX 12 11 2 6
BITMAP
0030
0070
00E0
07C0
7F00
F800
7F80
03C0
00E0
0070
0030
ENDCHAR
STARTCHAR 227B
ENCODING 8827
SWIDTH 548 0
DWIDTH 16 0
BBX 12 11 2 6
BITMAP
4000
E000
7800
3E00
0FF0
00F0
0FE0
3E00
7000
E000
4000
ENDCHAR
STARTCHAR 227C
ENCODING 8828
SWIDTH 548 0
DWIDTH 16 0
BBX 12 16 2 2
BITMAP
0030
0070
01E0
07C0
7E00
FC00
3F80
03C0
00F0
7830
FF10
0F80
01E0
00F0
0030
0010
ENDCHAR
STARTCHAR 227D
ENCODING 8829
SWIDTH 548 0
DWIDTH 16 0
BBX 12 15 2 2
BITMAP
C000
F000
7800
1F00
07F0
03F0
1FC0
3C00
F000
C0F0
07F0
1F00
7800
E000
4000
ENDCHAR
STARTCHAR 227E
ENCODING 8830
SWIDTH 548 0
DWIDTH 16 0
BBX 12 16 2 2
BITMAP
0010
0070
00F0
03C0
7F00
7000
FF00
07C0
01E0
0070
0030
0000
3C10
7F30
E7F0
C1E0
ENDCHAR
STARTCHAR 227F
ENCODING 8831
SWIDTH 548 0
DWIDTH 16 0
BBX 12 16 2 2
BITMAP
4000
E000
7000
3C00
0FE0
01F0
07E0
3E00
7800
E000
C000
0000
3C10
7F30
E7F0
C1E0
ENDCHAR
STARTCHAR 2280
ENCODING 8832
SWIDTH 548 0
DWIDTH 16 0
BBX 12 19 2 1
BITMAP
0020
0070
0060
00E0
00D0
01F0
03E0
03C0
7F00
7E00
FF00
0FC0
1DE0
1870
3830
3000
7000
6000
6000
ENDCHAR
STARTCHAR 2281
ENCODING 8833
SWIDTH 548 0
DWIDTH 16 0
BBX 12 19 2 1
BITMAP
0020
0070
0060
00E0
40C0
E1C0
7180
3F80
0FE0
07F0
0FE0
3E00
7C00
F800
F800
3000
7000
6000
6000
ENDCHAR
STARTCHAR 2282
ENCODING 8834
SWIDTH 548 0
DWIDTH 16 0
BBX 12 10 2 5
BITMAP
1FF0
7FF0
7000
E000
C000
C000
E000
7000
7FF0
1FF0
ENDCHAR
STARTCHAR 2283
ENCODING 8835
SWIDTH 548 0
DWIDTH 16 0
BBX 12 10 2 5
BITMAP
7F80
FFE0
0070
0030
0030
0030
0030
0070
7FE0
FF80
ENDCHAR
STARTCHAR 2284
ENCODING 8836
SWIDTH 548 0
DWIDTH 16 0
BBX 12 19 2 1
BITMAP
0020
0070
0060
00E0
00C0
1FF0
7FF0
7380
E700
C700
CE00
EC00
7C00
7FF0
3FF0
3000
7000
6000
6000
ENDCHAR
STARTCHAR 2285
ENCODING 8837
SWIDTH 548 0
DWIDTH 16 0
BBX 12 19 2 1
BITMAP
0020
0070
0060
00E0
00C0
7FC0
FFE0
03F0
0330
0730
0E30
0C30
1C70
7FE0
FF80
3000
7000
6000
6000
ENDCHAR
STARTCHAR 2286
ENCODING 8838
SWIDTH 548 0
DWIDTH 16 0
BBX 12 14 2 3
BITMAP
1FF0
7FF0
7000
E000
C000
C000
E000
7000
7FF0
1FF0
0000
0000
7FF0
FFF0
ENDCHAR
STARTCHAR 2287
ENCODING 8839
SWIDTH 548 0
DWIDTH 16 0
BBX 12 14 2 3
BITMAP
7F80
FFE0
0070
0030
0030
0030
0030
0070
7FE0
FF80
0000
0000
7FF0
FFF0
ENDCHAR
STARTCHAR 2288
ENCODING 8840
SWIDTH 548 0
DWIDTH 16 0
BBX 12 19 2 1
BITMAP
0020
0070
0060
1FF0
7FF0
71C0
E180
C380
C700
E700
7E00
7FF0
1FF0
1800
3800
7FF0
FFF0
6000
6000
ENDCHAR
STARTCHAR 2289
ENCODING 8841
SWIDTH 548 0
DWIDTH 16 0
BBX 12 19 2 1
BITMAP
0020
0070
0060
7FE0
FFE0
01F0
01B0
03B0
0730
0730
0E70
7FE0
FF80
1800
3800
7FF0
FFF0
6000
6000
ENDCHAR
STARTCHAR 228A
ENCODING 8842
SWIDTH 548 0
DWIDTH 16 0
BBX 12 18 2 -1
BITMAP
1FF0
7FF0
7000
E000
C000
C000
E000
7000
7FF0
1FF0
0300
0300
7FF0
FFF0
0C00
1C00
3800
1800
ENDCHAR
STARTCHAR 228B
ENCODING 8843
SWIDTH 548 0
DWIDTH 16 0
BBX 12 18 2 -1
BITMAP
7F80
FFE0
0070
0030
0030
0030
0030
0070
7FE0
FF80
0300
0300
7FF0
FFF0
0C00
1C00
3800
1800
ENDCHAR
STARTCHAR 228C
ENCODING 8844
SWIDTH 548 0
DWIDTH 16 0
BBX 10 12 3 5
BITMAP
40C0
C0C0
C0C0
D0C0
DFC0
DFC0
D0C0
C0C0
E0C0
E1C0
7F80
1E00
ENDCHAR
STARTCHAR 228D
ENCODING 8845
SWIDTH 548 0
DWIDTH 16 0
BBX 10 12 3 5
BITMAP
40C0
C0C0
C0C0
CCC0
DEC0
DEC0
CCC0
C0C0
E0C0
E1C0
7F80
1E00
ENDCHAR
STARTCHAR 228E
ENCODING 8846
SWIDTH 548 0
DWIDTH 16 0
BBX 10 12 3 4
BITMAP
40C0
C0C0
C4C0
CCC0
DFC0
FFC0
CCC0
CCC0
E0C0
E1C0
7F80
1E00
ENDCHAR
STARTCHAR 228F
ENCODING 8847
SWIDTH 548 0
DWIDTH 16 0
BBX 12 10 2 5
BITMAP
FFF0
FFF0
C000
C000
C000
C000
C000
C000
FFF0
FFF0
ENDCHAR
STARTCHAR 2290
ENCODING 8848
SWIDTH 548 0
DWIDTH 16 0
BBX 12 10 2 5
BITMAP
7FF0
FFF0
0030
0030
0030
0030
0030
0030
7FF0
FFF0
ENDCHAR
STARTCHAR 2291
ENCODING 8849
SWIDTH 548 0
DWIDTH 16 0
BBX 12 14 2 3
BITMAP
FFF0
FFF0
C000
C000
C000
C000
C000
C000
FFF0
FFF0
0000
0000
7FF0
FFF0
ENDCHAR
STARTCHAR 2292
ENCODING 8850
SWIDTH 548 0
DWIDTH 16 0
BBX 12 14 2 3
BITMAP
7FF0
FFF0
0030
0030
0030
0030
0030
0030
7FF0
FFF0
0000
0000
7FF0
FFF0
ENDCHAR
STARTCHAR 2293
ENCODING 8851
SWIDTH 548 0
DWIDTH 16 0
BBX 10 12 3 4
BITMAP
FFC0
FFC0
C0C0
C0C0
C0C0
C0C0
C0C0
C0C0
C0C0
C0C0
C0C0
80C0
ENDCHAR
STARTCHAR 2294
ENCODING 8852
SWIDTH 548 0
DWIDTH 16 0
BBX 10 12 3 4
BITMAP
4040
C0C0
C0C0
C0C0
C0C0
C0C0
C0C0
C0C0
C0C0
C0C0
FFC0
FFC0
ENDCHAR
STARTCHAR 2295
ENCODING 8853
SWIDTH 548 0
DWIDTH 16 0
BBX 13 13 2 5
BITMAP
0200
1FC0
7FE0
76F0
E670
C630
FFF8
FFF0
C630
E670
76E0
3FC0
0F80
ENDCHAR
STARTCHAR 2296
ENCODING 8854
SWIDTH 548 0
DWIDTH 16 0
BBX 13 13 2 4
BITMAP
0F80
3FC0
70E0
E070
C030
FFF0
FFF8
C030
E030
E070
70E0
3FC0
0F80
ENDCHAR
STARTCHAR 2297
ENCODING 8855
SWIDTH 548 0
DWIDTH 16 0
BBX 13 13 2 4
BITMAP
0F80
3FC0
70E0
F9F0
DFB0
CF30
CF38
DFB0
F9F0
F0F0
79E0
3FC0
0F80
ENDCHAR
STARTCHAR 2298
ENCODING 8856
SWIDTH 548 0
DWIDTH 16 0
BBX 13 13 2 4
BITMAP
0F80
3FC0
70E0
E1F0
C3F0
C7B0
CF38
DE30
FC30
F870
78E0
3FC0
0F80
ENDCHAR
STARTCHAR 2299
ENCODING 8857
SWIDTH 548 0
DWIDTH 16 0
BBX 13 13 2 4
BITMAP
0F80
3FC0
70E0
E070
C630
CF30
CF38
C630
C030
E070
70E0
3FC0
0F80
ENDCHAR
STARTCHAR 229A
ENCODING 8858
SWIDTH 548 0
DWIDTH 16 0
BBX 13 13 2 4
BITMAP
0F80
3FC0
70E0
E770
CF30
C9B0
C9B8
C9B0
C730
E070
70E0
3FC0
0F80
ENDCHAR
STARTCHAR 229B
ENCODING 8859
SWIDTH 548 0
DWIDTH 16 0
BBX 13 13 2 4
BITMAP
0F80
3FC0
70E0
E670
DFB0
DFB0
DFB8
DFB0
C630
E470
70E0
3FC0
0F80
ENDCHAR
STARTCHAR 229C
ENCODING 8860
SWIDTH 548 0
DWIDTH 16 0
BBX 13 13 2 4
BITMAP
0F80
3FC0
70E0
E070
CFB0
DFB0
C038
CFB0
DFB0
E070
70E0
3FC0
0F80
ENDCHAR
STARTCHAR 229D
ENCODING 8861
SWIDTH 548 0
DWIDTH 16 0
BBX 13 13 2 4
BITMAP
0F80
3FC0
70E0
E070
C030
CFB0
DFB8
C030
C030
E070
70E0
3FC0
0F80
ENDCHAR
STARTCHAR 229E
ENCODING 8862
SWIDTH 548 0
DWIDTH 16 0
BBX 13 13 2 4
BITMAP
FFF8
FFF8
C638
C638
C638
FFF8
FFF8
C638
C638
C638
C638
FFF8
FFF8
ENDCHAR
STARTCHAR 229F
ENCODING 8863
SWIDTH 548 0
DWIDTH 16 0
BBX 13 13 2 4
BITMAP
FFF8
FFF8
C038
C038
C038
FFF8
FFF8
C038
C038
C038
C038
FFF8
FFF8
ENDCHAR
STARTCHAR 22A0
ENCODING 8864
SWIDTH 548 0
DWIDTH 16 0
BBX 13 13 2 4
BITMAP
FFF8
FFF8
F0F8
F9F8
FFF8
DFB8
CF38
DFB8
FFB8
F9F8
F0F8
FFF8
FFF8
ENDCHAR
STARTCHAR 22A1
ENCODING 8865
SWIDTH 548 0
DWIDTH 16 0
BBX 13 13 2 4
BITMAP
FFF8
FFF8
C038
C038
C638
CF38
CF38
C638
C038
C038
C038
FFF8
FFF8
ENDCHAR
STARTCHAR 22A2
ENCODING 8866
SWIDTH 548 0
DWIDTH 16 0
BBX 16 14 0 3
BITMAP
6000
E000
E000
E000
E000
E000
FFFF
FFFE
E000
E000
E000
E000
E000
E000
ENDCHAR
STARTCHAR 22A3
ENCODING 8867
SWIDTH 548 0
DWIDTH 16 0
BBX 15 14 1 3
BITMAP
0006
0006
0006
0006
0006
0006
FFFE
FFFE
0006
0006
0006
0006
0006
0006
ENDCHAR
STARTCHAR 22A4
ENCODING 8868
SWIDTH 548 0
DWIDTH 16 0
BBX 14 17 1 2
BITMAP
FFFC
FFFC
0300
0300
0300
0300
0300
0300
0300
0300
0300
0300
0300
0300
0300
0300
0200
ENDCHAR
STARTCHAR 22A5
ENCODING 8869
SWIDTH 548 0
DWIDTH 16 0
BBX 14 17 1 2
BITMAP
0100
0300
0300
0300
0300
0300
0300
0300
0300
0300
0300
0300
0300
0300
0300
FFFC
FFFC
ENDCHAR
STARTCHAR 22A6
ENCODING 8870
SWIDTH 548 0
DWIDTH 16 0
BBX 7 14 5 3
BITMAP
C0
C0
C0
C0
C0
C0
FE
FC
C0
C0
C0
C0
C0
C0
ENDCHAR
STARTCHAR 22A7
ENCODING 8871
SWIDTH 548 0
DWIDTH 16 0
BBX 6 15 5 3
BITMAP
40
C0
C0
C0
FC
FC
C0
C0
C0
FC
FC
C0
C0
C0
80
ENDCHAR
STARTCHAR 22A8
ENCODING 8872
SWIDTH 548 0
DWIDTH 16 0
BBX 12 15 2 3
BITMAP
4000
C000
C000
C000
FFF0
FFE0
C000
C000
C000
FFF0
FFE0
C000
C000
C000
C000
ENDCHAR
STARTCHAR 22A9
ENCODING 8873
SWIDTH 548 0
DWIDTH 16 0
BBX 14 15 1 3
BITMAP
6000
EC00
EC00
EC00
EC00
EC00
EC00
EFFC
EFF8
EC00
EC00
EC00
EC00
EC00
8C00
ENDCHAR
STARTCHAR 22AA
ENCODING 8874
SWIDTH 548 0
DWIDTH 16 0
BBX 14 15 1 3
BITMAP
4400
CCC0
CDC0
CDC0
CDC0
CDC0
CDC0
CDFC
CDFC
CDC0
CDC0
CDC0
CDC0
CDC0
8980
ENDCHAR
STARTCHAR 22AB
ENCODING 8875
SWIDTH 548 0
DWIDTH 16 0
BBX 15 15 1 3
BITMAP
4800
D800
D800
D800
DFFE
DFFC
D800
D800
D800
DFFE
DFFC
D800
D800
D800
9800
ENDCHAR
STARTCHAR 22AC
ENCODING 8876
SWIDTH 548 0
DWIDTH 16 0
BBX 16 19 0 1
BITMAP
0008
001C
2018
E038
E030
E070
E060
E0E0
E0C0
FFFF
FFFE
E300
E700
E600
EE00
EC00
DC00
1800
1800
ENDCHAR
STARTCHAR 22AD
ENCODING 8877
SWIDTH 548 0
DWIDTH 16 0
BBX 12 19 2 1
BITMAP
0020
0070
0060
C0E0
C1C0
C1C0
FFF0
FFE0
C700
C600
CE00
FFF0
FFE0
D800
F800
F000
F000
6000
6000
ENDCHAR
STARTCHAR 22AE
ENCODING 8878
SWIDTH 548 0
DWIDTH 16 0
BBX 14 19 1 1
BITMAP
0010
0038
2030
EC70
EC60
ECE0
ECC0
EDC0
ED80
EFFC
EFF8
EE00
EE00
EC00
FC00
FC00
FC00
3000
3000
ENDCHAR
STARTCHAR 22AF
ENCODING 8879
SWIDTH 548 0
DWIDTH 16 0
BBX 15 19 1 1
BITMAP
0010
0038
4830
D870
D8E0
D8E0
DFFE
DFFC
DB80
DB00
DF00
DFFE
DFFC
DC00
DC00
D800
B800
3000
3000
ENDCHAR
STARTCHAR 22B0
ENCODING 8880
SWIDTH 548 0
DWIDTH 16 0
BBX 14 19 1 1
BITMAP
00F0
0078
001C
000C
000C
001C
01F8
1FF0
FF00
F800
7F80
0FF0
00F8
001C
000C
000C
001C
0078
00F0
ENDCHAR
STARTCHAR 22B1
ENCODING 8881
SWIDTH 548 0
DWIDTH 16 0
BBX 15 19 0 1
BITMAP
3C00
7800
E000
E000
E000
7000
7F00
1FE0
03FE
007E
07FC
3FC0
7C00
E000
E000
E000
7800
7C00
1800
ENDCHAR
STARTCHAR 22B2
ENCODING 8882
SWIDTH 548 0
DWIDTH 16 0
BBX 12 12 2 4
BITMAP
0010
0070
01F0
07F0
3F30
7830
F030
FC30
3F30
07F0
01F0
0070
ENDCHAR
STARTCHAR 22B3
ENCODING 8883
SWIDTH 548 0
DWIDTH 16 0
BBX 12 13 2 4
BITMAP
8000
F000
FC00
FF00
CFC0
C1F0
C070
C3E0
CFC0
FE00
F800
E000
8000
ENDCHAR
STARTCHAR 22B4
ENCODING 8884
SWIDTH 548 0
DWIDTH 16 0
BBX 12 15 2 4
BITMAP
0070
01F0
07F0
1F30
7C30
7030
FC30
3F30
0FF0
01F0
0070
0010
0000
7FF0
FFF0
ENDCHAR
STARTCHAR 22B5
ENCODING 8885
SWIDTH 548 0
DWIDTH 16 0
BBX 12 16 2 3
BITMAP
8000
E000
F800
FF00
CFC0
C3F0
C070
C1F0
C7C0
DF00
FC00
F000
8000
0000
7FF0
FFF0
ENDCHAR
STARTCHAR 22B6
ENCODING 8886
SWIDTH 548 0
DWIDTH 16 0
BBX 16 7 0 7
BITMAP
381E
FC3F
C7FF
C7FF
C63F
7C3F
381C
ENDCHAR
STARTCHAR 22B7
ENCODING 8887
SWIDTH 548 0
DWIDTH 16 0
BBX 16 7 0 7
BITMAP
381E
FC3F
FFE3
FFE3
FE33
7C3F
381C
ENDCHAR
STARTCHAR 22B8
ENCODING 8888
SWIDTH 548 0
DWIDTH 16 0
BBX 14 7 1 7
BITMAP
0078
00FC
7F8C
FF8C
00CC
00FC
0078
ENDCHAR
STARTCHAR 22B9
ENCODING 8889
SWIDTH 548 0
DWIDTH 16 0
BBX 14 15 1 3
BITMAP
0100
0300
0300
0300
0300
0300
FC7C
FC7C
0000
0300
0300
0300
0300
0300
0200
ENDCHAR
STARTCHAR 22BA
ENCODING 8890
SWIDTH 548 0
DWIDTH 16 0
BBX 12 21 2 0
BITMAP
7FF0
FFE0
0600
0600
0600
0600
0600
0600
0600
0600
0600
0600
0600
0600
0600
0600
0600
0600
0600
0600
0400
ENDCHAR
STARTCHAR 22BB
ENCODING 8891
SWIDTH 548 0
DWIDTH 16 0
BBX 12 15 2 3
BITMAP
6020
E070
6060
70E0
30C0
38C0
19C0
1D80
0F80
0F00
0F00
0400
0000
7FF0
FFF0
ENDCHAR
STARTCHAR 22BC
ENCODING 8892
SWIDTH 548 0
DWIDTH 16 0
BBX 12 15 2 3
BITMAP
7FF0
FFF0
0000
0700
0700
0F00
0F80
1D80
19C0
38C0
30E0
70E0
6070
E070
4020
ENDCHAR
STARTCHAR 22BD
ENCODING 8893
SWIDTH 548 0
DWIDTH 16 0
BBX 12 15 2 3
BITMAP
7FF0
FFF0
0000
6020
E070
6060
70E0
30E0
38C0
19C0
1D80
0F80
0F00
0F00
0400
ENDCHAR
STARTCHAR 22BE
ENCODING 8894
SWIDTH 548 0
DWIDTH 16 0
BBX 12 14 2 4
BITMAP
4000
C000
C000
F000
FC00
CE00
C700
C380
C180
C080
C0C0
C0C0
FFF0
FFF0
ENDCHAR
STARTCHAR 22BF
ENCODING 8895
SWIDTH 548 0
DWIDTH 16 0
BBX 15 14 1 4
BITMAP
0002
0006
000E
001E
003E
0076
00E6
01C6
0786
0F06
1E06
3C06
7FFE
FFFE
ENDCHAR
STARTCHAR 22C0
ENCODING 8896
SWIDTH 548 0
DWIDTH 16 0
BBX 14 17 1 2
BITMAP
0380
0780
0780
07C0
0EC0
0CE0
1CE0
1C60
1870
3830
3038
7038
7018
601C
E00C
C00C
400C
ENDCHAR
STARTCHAR 22C1
ENCODING 8897
SWIDTH 548 0
DWIDTH 16 0
BBX 14 17 1 2
BITMAP
400C
C00C
E00C
601C
7018
7038
3030
3830
1870
1C60
1CE0
0CC0
0EC0
07C0
0780
0780
0300
ENDCHAR
STARTCHAR 22C2
ENCODING 8898
SWIDTH 548 0
DWIDTH 16 0
BBX 13 17 2 2
BITMAP
0F80
3FC0
70E0
E070
C030
C038
C038
C038
C038
C038
C038
C038
C038
C038
C038
C038
C030
ENDCHAR
STARTCHAR 22C3
ENCODING 8899
SWIDTH 548 0
DWIDTH 16 0
BBX 13 17 2 2
BITMAP
C038
C038
C038
C038
C038
C038
C038
C038
C038
C038
C038
C038
C030
E070
70E0
3FC0
0F80
ENDCHAR
STARTCHAR 22C4
ENCODING 8900
SWIDTH 548 0
DWIDTH 16 0
BBX 8 9 4 7
BITMAP
1C
3E
7E
E7
E3
E7
7E
3C
18
ENDCHAR
STARTCHAR 22C5
ENCODING 8901
SWIDTH 548 0
DWIDTH 16 0
BBX 4 4 6 9
BITMAP
60
F0
F0
60
ENDCHAR
STARTCHAR 22C6
ENCODING 8902
SWIDTH 548 0
DWIDTH 16 0
BBX 7 7 5 7
BITMAP
30
7C
FC
78
FE
7C
30
ENDCHAR
STARTCHAR 22C7
ENCODING 8903
SWIDTH 548 0
DWIDTH 16 0
BBX 16 16 0 3
BITMAP
0180
03C0
43C1
E183
780F
3C1C
0F78
7FFF
FFFE
0E78
3C3C
700F
E187
C3C1
03C0
0180
ENDCHAR
STARTCHAR 22C8
ENCODING 8904
SWIDTH 548 0
DWIDTH 16 0
BBX 16 13 0 4
BITMAP
8000
E003
F007
FC1F
DE3B
C7F3
C3C3
C7F3
DE7B
F81F
F00F
C003
8001
ENDCHAR
STARTCHAR 22C9
ENCODING 8905
SWIDTH 548 0
DWIDTH 16 0
BBX 16 12 0 5
BITMAP
C001
F007
F80E
DE3C
CF70
C3E0
C7E0
DE78
F83C
F00F
C007
8001
ENDCHAR
STARTCHAR 22CA
ENCODING 8906
SWIDTH 548 0
DWIDTH 16 0
BBX 16 12 0 5
BITMAP
8003
E007
701F
3C3F
0EF3
07C3
07E3
0E7B
3C1F
F80F
E003
4000
ENDCHAR
STARTCHAR 22CB
ENCODING 8907
SWIDTH 548 0
DWIDTH 16 0
BBX 16 11 0 5
BITMAP
4000
F000
7E00
1F80
07E0
01F8
03FE
1F8F
7E02
F800
4000
ENDCHAR
STARTCHAR 22CC
ENCODING 8908
SWIDTH 548 0
DWIDTH 16 0
BBX 16 11 0 5
BITMAP
0002
000F
003E
01F8
07E0
1F80
7FE0
F1F8
407E
000F
0002
ENDCHAR
STARTCHAR 22CD
ENCODING 8909
SWIDTH 548 0
DWIDTH 16 0
BBX 12 8 2 7
BITMAP
83E0
E7F0
7E30
3810
0000
0000
7FF0
FFF0
ENDCHAR
STARTCHAR 22CE
ENCODING 8910
SWIDTH 548 0
DWIDTH 16 0
BBX 12 12 2 4
BITMAP
2020
E070
70E0
38C0
1980
0D80
0F00
0F00
0700
0700
0600
0600
ENDCHAR
STARTCHAR 22CF
ENCODING 8911
SWIDTH 548 0
DWIDTH 16 0
BBX 12 11 2 5
BITMAP
0600
0600
0600
0F00
0F00
0F00
1B80
1980
39C0
70E0
E070
ENDCHAR
STARTCHAR 22D0
ENCODING 8912
SWIDTH 548 0
DWIDTH 16 0
BBX 16 13 0 4
BITMAP
0FFF
3FFE
7800
63FF
E7FE
EE00
CE00
E7FF
63FE
6000
3800
1FFF
0FFE
ENDCHAR
STARTCHAR 22D1
ENCODING 8913
SWIDTH 548 0
DWIDTH 16 0
BBX 16 13 0 4
BITMAP
7FF0
FFFC
000E
7FC7
7FF7
0033
0033
7FE3
7FC7
0006
000E
7FFC
FFF0
ENDCHAR
STARTCHAR 22D2
ENCODING 8914
SWIDTH 548 0
DWIDTH 16 0
BBX 13 16 2 2
BITMAP
0F80
3FC0
70E0
E070
C730
CF38
C9B8
D9B8
D9B8
D9B8
D9B8
D9B8
D9B8
D9B8
D9B8
1020
ENDCHAR
STARTCHAR 22D3
ENCODING 8915
SWIDTH 548 0
DWIDTH 16 0
BBX 13 16 2 3
BITMAP
0008
D9B8
D9B8
D9B8
D9B8
D9B8
D9B8
D9B8
D9B8
C9B8
CF38
C730
E070
70E0
3FC0
0F80
ENDCHAR
STARTCHAR 22D4
ENCODING 8916
SWIDTH 548 0
DWIDTH 16 0
BBX 13 20 2 1
BITMAP
0200
0600
0600
1F80
3FC0
76E0
E670
C630
C638
C638
C638
C638
C638
C638
C638
C638
C638
C638
C638
C630
ENDCHAR
STARTCHAR 22D5
ENCODING 8917
SWIDTH 548 0
DWIDTH 16 0
BBX 16 22 0 0
BITMAP
0210
0670
0670
0670
0670
0670
0670
0670
7FFF
FFFE
0670
0670
0670
7FFF
FFFE
0670
0670
0670
0670
0670
0670
0440
ENDCHAR
STARTCHAR 22D6
ENCODING 8918
SWIDTH 548 0
DWIDTH 16 0
BBX 12 12 2 5
BITMAP
0030
00F0
03E0
0F80
3E70
7870
F870
7E70
1F80
03F0
00F0
0020
ENDCHAR
STARTCHAR 22D7
ENCODING 8919
SWIDTH 548 0
DWIDTH 16 0
BBX 12 12 2 5
BITMAP
4000
F000
7E00
1F80
67E0
E0F0
F0F0
67E0
1F80
7C00
F000
4000
ENDCHAR
STARTCHAR 22D8
ENCODING 8920
SWIDTH 548 0
DWIDTH 16 0
BBX 16 12 0 5
BITMAP
0421
0C63
1CE7
39CE
739C
6338
E730
F7BC
7BDE
1CEF
0C63
0421
ENDCHAR
STARTCHAR 22D9
ENCODING 8921
SWIDTH 548 0
DWIDTH 16 0
BBX 16 12 0 5
BITMAP
4420
E630
F7B8
7BDC
3DEF
0CE7
1CE7
3DCE
7B9C
E738
C630
8420
ENDCHAR
STARTCHAR 22DA
ENCODING 8922
SWIDTH 548 0
DWIDTH 16 0
BBX 12 20 2 1
BITMAP
0070
03F0
3FC0
7C00
FE00
3FE0
03F0
0070
0000
7FF0
FFF0
0000
0000
F800
FF80
0FF0
00F0
0FE0
FF00
F800
ENDCHAR
STARTCHAR 22DB
ENCODING 8923
SWIDTH 548 0
DWIDTH 16 0
BBX 12 20 2 1
BITMAP
4000
FC00
FF80
0FF0
00F0
1FE0
FF00
7000
0000
7FF0
FFF0
0000
0060
03F0
3FC0
7C00
FE00
3FE0
03F0
0060
ENDCHAR
STARTCHAR 22DC
ENCODING 8924
SWIDTH 548 0
DWIDTH 16 0
BBX 12 15 2 3
BITMAP
7FF0
FFF0
0000
0030
00F0
03E0
0F80
3E00
7800
F800
7E00
1F80
03F0
00F0
0020
ENDCHAR
STARTCHAR 22DD
ENCODING 8925
SWIDTH 548 0
DWIDTH 16 0
BBX 12 15 2 3
BITMAP
7FF0
FFF0
0000
4000
F000
7E00
1F80
07E0
00F0
00F0
07E0
1F00
7C00
F000
4000
ENDCHAR
STARTCHAR 22DE
ENCODING 8926
SWIDTH 548 0
DWIDTH 16 0
BBX 12 15 2 2
BITMAP
0030
0070
01E0
0FC0
7F10
F030
0070
01E0
3F80
7C00
FE00
0F80
01E0
0070
0030
ENDCHAR
STARTCHAR 22DF
ENCODING 8927
SWIDTH 548 0
DWIDTH 16 0
BBX 12 16 2 1
BITMAP
8000
E000
F000
7C00
1F80
47F0
E0F0
7000
3C00
1FC0
03F0
07E0
1F00
7800
E000
C000
ENDCHAR
STARTCHAR 22E0
ENCODING 8928
SWIDTH 548 0
DWIDTH 16 0
BBX 12 19 2 1
BITMAP
0020
0070
0070
00F0
00F0
03C0
3F80
7F80
FF00
0780
0FE0
0C70
7C30
FF10
3FC0
31E0
7070
6030
6010
ENDCHAR
STARTCHAR 22E1
ENCODING 8929
SWIDTH 548 0
DWIDTH 16 0
BBX 12 19 2 1
BITMAP
0020
0070
4060
E0E0
70C0
3DC0
1F80
03F0
07F0
1F00
7E00
EC00
DCF0
1FF0
3F00
7800
F000
E000
6000
ENDCHAR
STARTCHAR 22E2
ENCODING 8930
SWIDTH 548 0
DWIDTH 16 0
BBX 12 19 2 1
BITMAP
0020
0070
0060
FFF0
FFF0
C1C0
C180
C380
C300
C700
CE00
FFF0
FFF0
1800
3800
7FF0
FFF0
6000
6000
ENDCHAR
STARTCHAR 22E3
ENCODING 8931
SWIDTH 548 0
DWIDTH 16 0
BBX 12 19 2 1
BITMAP
0020
0070
0060
7FF0
FFF0
01F0
01B0
03B0
0330
0730
0E30
7FF0
FFF0
1800
3800
7FF0
FFF0
6000
6000
ENDCHAR
STARTCHAR 22E4
ENCODING 8932
SWIDTH 548 0
DWIDTH 16 0
BBX 12 18 2 -1
BITMAP
FFF0
FFF0
C000
C000
C000
C000
C000
C000
FFF0
FFF0
0300
0300
7FF0
FFF0
0C00
1C00
3800
1800
ENDCHAR
STARTCHAR 22E5
ENCODING 8933
SWIDTH 548 0
DWIDTH 16 0
BBX 12 18 2 -1
BITMAP
7FF0
FFF0
0030
0030
0030
0030
0030
0030
7FF0
FFF0
0300
0300
7FF0
FFF0
0C00
1C00
3800
1800
ENDCHAR
STARTCHAR 22E6
ENCODING 8934
SWIDTH 548 0
DWIDTH 16 0
BBX 12 19 2 -1
BITMAP
0030
00F0
03E0
0F80
3E00
7800
F800
7E00
1F80
03F0
01F0
03A0
3F10
7F30
EFF0
CDE0
1C00
3800
1800
ENDCHAR
STARTCHAR 22E7
ENCODING 8935
SWIDTH 548 0
DWIDTH 16 0
BBX 12 19 2 -1
BITMAP
4000
F000
7E00
1F80
07E0
00F0
00F0
07E0
1F00
7C00
F100
4380
3F10
7F30
EFF0
CDE0
1C00
3800
1800
ENDCHAR
STARTCHAR 22E8
ENCODING 8936
SWIDTH 548 0
DWIDTH 16 0
BBX 12 19 2 0
BITMAP
0030
0070
00E0
07C0
7F00
F000
FF00
07C0
01E0
0070
0130
0380
3F10
7F30
EFF0
CDE0
1C00
3800
1800
ENDCHAR
STARTCHAR 22E9
ENCODING 8937
SWIDTH 548 0
DWIDTH 16 0
BBX 12 19 2 0
BITMAP
4000
E000
7800
3F00
0FF0
01F0
0FE0
3E00
7000
E000
C100
0380
3F10
7F30
EFF0
CDE0
1C00
3800
1800
ENDCHAR
STARTCHAR 22EA
ENCODING 8938
SWIDTH 548 0
DWIDTH 16 0
BBX 12 19 2 1
BITMAP
0020
0070
0060
00F0
00F0
01F0
07F0
1FB0
7F30
E630
FE30
3F30
1FF0
19F0
3870
3010
7000
6000
6000
ENDCHAR
STARTCHAR 22EB
ENCODING 8939
SWIDTH 548 0
DWIDTH 16 0
BBX 12 19 2 1
BITMAP
0020
0070
0060
80E0
F1C0
FDC0
FF80
CFC0
C7F0
C670
CFE0
CFC0
DF00
FC00
F800
B000
7000
6000
6000
ENDCHAR
STARTCHAR 22EC
ENCODING 8940
SWIDTH 548 0
DWIDTH 16 0
BBX 12 19 2 1
BITMAP
0020
0070
0070
01F0
07F0
1FB0
7FB0
7330
FF30
3F30
0FF0
0FF0
1C70
1810
3800
7FF0
FFF0
6000
6000
ENDCHAR
STARTCHAR 22ED
ENCODING 8941
SWIDTH 548 0
DWIDTH 16 0
BBX 12 19 2 1
BITMAP
0020
8070
E060
F8E0
FFC0
CFC0
C3F0
C370
C7F0
C7C0
DF00
FC00
FC00
D800
3800
7FF0
FFF0
6000
6000
ENDCHAR
STARTCHAR 22EE
ENCODING 8942
SWIDTH 548 0
DWIDTH 16 0
BBX 4 22 6 0
BITMAP
60
F0
F0
60
00
00
00
00
00
60
F0
F0
60
00
00
00
00
00
60
F0
F0
60
ENDCHAR
STARTCHAR 22EF
ENCODING 8943
SWIDTH 548 0
DWIDTH 16 0
BBX 14 4 1 9
BITMAP
E31C
E79C
E79C
E31C
ENDCHAR
STARTCHAR 22F0
ENCODING 8944
SWIDTH 548 0
DWIDTH 16 0
BBX 14 22 1 0
BITMAP
001C
001C
001C
001C
0000
0000
0000
0000
0000
0300
0780
0780
0300
0000
0000
0000
0000
0000
E000
E000
E000
E000
ENDCHAR
STARTCHAR 22F1
ENCODING 8945
SWIDTH 548 0
DWIDTH 16 0
BBX 14 22 1 0
BITMAP
E000
E000
E000
E000
0000
0000
0000
0000
0000
0300
0780
0780
0300
0000
0000
0000
0000
0000
001C
001C
001C
001C
ENDCHAR
STARTCHAR 22F2
ENCODING 8946
SWIDTH 548 0
DWIDTH 16 0
BBX 16 17 0 2
BITMAP
03FF
0FFE
0E00
1800
3800
3800
3800
7FFF
FFFE
3800
3800
3800
1800
1C00
0E00
07FF
03FE
ENDCHAR
STARTCHAR 22F3
ENCODING 8947
SWIDTH 548 0
DWIDTH 16 0
BBX 14 17 1 2
BITMAP
0FFC
3FF8
7800
6000
E000
E000
E00C
FFFC
FFFC
E00C
E000
E000
6000
7000
3800
1FFC
0FF8
ENDCHAR
ENDFONT
